<?xml version="1.0" encoding="UTF-8"?><svg id="Layer_1" xmlns="http://www.w3.org/2000/svg" viewBox="0 0 327.68 350.61"><defs><style>.cls-1{fill:#6c1d30;}.cls-2{fill:#ccad91;}</style></defs><path class="cls-1" d="M265.83,67.89L155.08,3.95c-9.12-5.26-20.44-5.26-29.55,0L14.78,67.89C5.66,73.15,0,82.96,0,93.48v127.88c0,10.53,5.66,20.33,14.78,25.59l110.75,63.94c4.34,2.51,9.19,3.81,14.06,3.92v-3.3c-4.3-.11-8.58-1.25-12.42-3.47L16.42,244.12c-8.1-4.68-13.13-13.39-13.13-22.75V93.48c0-9.36,5.03-18.07,13.13-22.75L127.17,6.79c4.05-2.34,8.59-3.51,13.13-3.51s9.08,1.17,13.13,3.51l110.75,63.94c6.79,3.92,11.42,10.69,12.74,18.29h3.33c-1.35-8.77-6.61-16.62-14.42-21.13Z"/><g><path class="cls-2" d="M217.67,212.11l-.02,.06h.07s-.03-.04-.04-.06Z"/><path class="cls-2" d="M203.97,205.39c.5,1.53,4.12,2.24,5.52,3.17,.48,.07,1.99,1.55,3.47,3.19l.54-1.42c-2.76-2.32-6.01-4.03-9.54-4.95Z"/><path class="cls-2" d="M192.08,194.54c5.92,7.44,16.07,8.88,21.87,14.66l.48-1.25c-6.84-6.57-16.02-6.5-22.07-13.9-.25-.22-.44-.35-.61-.42-.14,.29-.35,.54-.6,.73,.02,.61,.22,1.43,.38,1.89,2.14,10.6,11.18,14.88,19.78,19.46,.25-.54,.51-1.11,.78-1.73-8.21-4.36-19.47-8.98-20-19.42Z"/><path class="cls-2" d="M316.86,215.28c-2.2,1.03,2.67-5.71,2.66-6.66,.64-1.27,1.3-5-.28-4.2-1.38,.87-3.11,.99-4.6,.31-9.93-5.43-17.79,3.84-20.65,12.31-3.9,5.86-9.91,8.38-16.82,8.77-9.69,1.04-18.33,5.48-27.22,9.12,12.62-13.66,15.37-32,20.99-48.79,1.37-2.7,5.24-1.66,7.76-1.65,14.04,.37,23.2-13.16,28.62-24.54,3.66-10.51,13.59-21.24,16-30.46-2.53-.24-4.47-5.46-5.01-7.24-.9-5.36-5.74-3.82-7.1-6.69-.85-10.54-13.53-8.69-18.28-15.11-3.3-5.88-7.19,1.78-8.11,4.96-1,2.03-3.77,.49-6.28,2.29-7.1,3.89-16.61,3.6-13.39,14.72-8.51-3.89,7.38,14.08,5.5,18.37,1.17,13.52-8.05,26.27-2.05,39.68,1.48,4.87-2.56,10.34-3.37,15.21-1.58,4.36-2.18,9.62-4.6,13.38-2.04-14.27,.78-21.22-10.48-32.87-1.85-1.23-6.29-15.67-7.01-11.07-.13,.84,.44,1.14,.49,.13,2.87,9.53,16.02,20.62,15.06,33.17-1.42-5.36-3.78-10.41-6.98-14.94,1.37,4.43,4.71,9.19,4.88,13.74-6.23-7.25-10.23-16.15-11.5-25.62-.26-1.45-.03-4.61-1.66-4.67-2.47,2.37,.98,16.24,6.69,23.71,23.41,25.9-12.55,49.51-27.04,70.1-2.17,2.1,1.18-4.82,1.31-6.06,4-9.36,3.43-19.8,.12-29.27h-.05c-1.1,0-2-.9-2-2v-.53c0-.52,.2-.99,.52-1.34-.72-1.63-1.51-3.23-2.38-4.77h-4.3c-.03,.55,0,1.21,.13,1.83,.09,.05,.18,.11,.27,.16,.55,.68,1.05,1.36,1.54,2.04,.24,.05,.52,.08,.85,.08,0,0,.2,0,.22,0,.52,0,1.02,.2,1.39,.57,.39,.38,.61,.89,.61,1.43v.53c0,.56-.23,1.06-.6,1.42,12.76,24.62-11.9,53.32-32.86,66.41-.85,.98-1.53,.16-.6-.6,11.14-13.24,13.33-28.77,13.41-45.17,1.13-6.73,3.39-12.38,2.01-19.43-.16-.32-.24-.8-.29-1.36-.36,.44-.9,.73-1.52,.73,.34,5.98,.56,11.72-1.64,17.94-1.43-5.69,.03-12.05-.79-17.58-1.64,2.28-.52,6.91-.97,9.98,0,3.19,.34,6.43,.43,9.56-3-5.98-4.67-13.42-3.13-19.9h-1.55c-2.62,12.22,8.14,26.85,4.73,39.85-4.55-13.27-15.91-19.67-29.45-20.56-3.13-.21-7.05-2.82-9.64-2.42-.32,2.28,1.81,3.69,3.8,5.02,18.5,16.1,49.32,7.76,23.48,40.24-8.83,13.56-22.47,19.56-37.3,22.37,.54,1.62,1.69,2.97,3.2,3.77l2.44-.45c11.25-.98,31.7-20.63,36.26-2.04-1.2,14.46-17.38,21.84-21.47,35.5-4.17,13.26,16.31-11.26,19.04-12.56,9.07-7.24,8.76-18.52,3.42-28.12,13.33,4.07,12.92,21.05,27.04,23.1,7.47,1.22,17.22-1.38,25.07-4.64,1.43-1.7,13.19-2.43,9.73-5.38-16.15-10.48-36.54,6.1-50.64-8.06-7.04-5.58-11-8.85-19.51-10.34-.58-.11-.89-.32-.2-.83,16.08-17.14,38.87-11.23,59.67-11.45,2.93,.1,3.74,3.18,6.82,2.98,3.41,1.09,4.55,5.24,7.82,6.99,4.89,2.4,9.03-.19,13.97-1.66,14.61-3.78,14.53-21.57,22.53-31.55,2.91-5.25-13.45,7.67-9.1,2.21,1.15-1.28,5.26-7.73,2.43-7.41-7.42,4.6-16.37,1.14-23.99,4.63-6.42,2.99-6.56,12.47-11.19,16.2-3.43,.62-5.64,4.28-8.99,5.47-13.21,.25-26.26-1.76-39.44-1.66,30.93-35.3,46.81-8.35,77.58-33.95,.69-.51,2-1.17,1.48-2.23-4.96,.87-11.24,4.8-17.13,4.65-15.05-2.15-28.14,8.58-41.35,13.04-2.73,.95,5.06-6.61,4.98-7.49,11.68-20.74,36.58-30.55,58.91-32.15,2.31,2.38,5.6,1.82,7.66,4.84,3.54,7.02,13.29,11.33,19.35,4.05,3.43-4.08,8-8,8.67-13.39,.11-2.49,1.44-4.77,3.55-6.09,1.95-2.49-8.92-1.29-10.59-.6Zm-46.84-33.94c2.51,.69,2.62,2.36,0,0h0Zm20.01-81.65c4.77,2.65,4.76,6.08,11.21,7.45,4.39,1.72,7.04,4.98,6.52,9.55,1.01,2.69-7.85,13.13-4.37,10.86,9.76-12.07,8.42-12.41,16.96,.92,.58,.74,.84,1.25-.18,1.8l.03,.02c-11.08,6.88-19.28,17.36-31.45,22.87,1.51-6.48,6.71-11.8,9.02-18.04-4.44,3.56-6.16,9.27-9.31,13.76-4.94-11.78,2.91-22.2,6.91-32.58-11.99,12.58-8.56,25.76-11.87,20.39-8.55-5.68-6.62-9.59-.29-16.2,5.36-5.29-1.1-16.32,6.8-20.79Zm-19.47,12.5c3.24-1.12,2.99,1.14,3.77,3.45,.34,1.02,.81,.54,.79-.15-2.66-6.06,3.47-4.5,6.73-7.5,4.8-1.55,.2,8.89-1.23,10.6-1.73,1.65-3.26,3.51-4.56,5.52-1.5,1.5-.43-3.33-1.52-3.75-1.7,.72,.55,3.38-.74,4.07-.4,1.2,1.3,4.38-.76,2.79-3.3-2.54-6.78-3.91-6.78-8.57-.63-4.23,.21-4.85,4.3-6.47Zm-6.3,12.72c-3.14-4.58,5.94,2.05,7.02,3.59,20.66,12.81,17,21.99,5.97,40.32,5.59-8.9,12.62-16.55,23.28-19.81,8.85-3.04,13.54-12.47,20.79-17.7-2.52,8.3-13.39,20.87-17.52,31.32-5.17,11.12-17.03,21.87-29.78,17.62-18.53-10.19,11.29-34.89-9.77-55.33Zm-64.97,118.7c-.13,.12-.12-.08-.12-.08,.07,0,.25-.04,.12,.08Zm-6.99,16.08c-10.33-2.87-20.42-6.61-28.95-13.4-.92-.61-4.03-2.98-2.21-2.42,9.31,4.14,22.86,2.15,29.32,11.33-5.05-2.95-10.55-5.04-16.29-6.18l-.06,.09s0,.02,0,.03c0,.03-.01,.06-.03,.09,6.61,2.43,12.66,4.98,17.89,9.8,.21,.14,.52,.34,.31,.66Zm39.66,62.5c-7.87,1.48-14.93,1-21.59-3.8,13.94,3.63,27.83-6.95,40.73,2-12.89,4.85-35.07,14.85-43.4-1.4,8.47,5.9,17.03,6.45,26.75,3.19-.35-1.23-1.7-.18-2.5,0Zm-38.31-5.16l-.06,.09,.06-.09Zm-1.56-.81c-.85,7.77-10.39,11.32-8.97,19.35l-.39,.14,.45-.15c1.45-.46,9.22-7.69,10.67-13.66-.69,10.91-16.08,18.09-22.16,26.42-4.58,2.27,7.55-15.58,9.21-17.09,4.02-4.78,7.75-9.79,11.19-15.01Zm67.19-45.55c5.65-9.18,18.99-3.59,27.12-8.46-2.53,7.94-10.48,8.27-17.18,10.95l-.03,.05c-5.95,3.1-10.19,10.68-17.59,11.77,3.28-4.35,5.87-9.18,7.69-14.31Zm3.97,9.45c7.35-8.36,19.54-7.99,28.34-14.13-5.97,14.06-13.73,33.61-32.31,30.84,7.98-1.21,14.14-6.76,18.46-13.49-3.99,1.51-6.22,6.47-9.82,8.81-4.69,2.59-10.18,3.69-14.11-.65-.48-.52,.16-.92,.55-.83,3.85,.51,14.48-5.14,9.64-3.02-3.5,1.51-9.07,3.18-12.44-.34,4.49-1.27,8.53-3.76,11.69-7.2Zm-12.15,2.67h.06c-3.89,3.93-3.2,1.95-1.2,6.94-5.87,.21-3.08-7.71,1.15-6.94Zm-6.82-23.7c9.51-6.47,21.69-2.89,32.09-7.28,3.96-.78-5.02,4.59-6.02,5.3-4.92,2.77-10.3,4.62-15.88,5.48-4.12,.6-8.32,.36-12.34-.72,5.24-2.03,11.06-1.3,16.23-3.26-3.35-.7-12.56,2.4-14.08,.47Zm46.73-32.88c-2.27-.91-.81-4.7,1.31-4.11,1.26,.39,1.47,6.31-1.31,4.11Zm13.81,10.77c-4.28-2.04-10.72-6.3-10.5-11.41,.49-1.79,3.26,.39,4.36-1.09-5.25-1.37-6.38-4.91-.72-7.51,1.46-.95,3.93-.55,5.03-1.64-1.99-1.05-4.49,1.01-6.29,.53,2.75-4.96,7.9-4.72,12.61-5.58-3.42-.72-6.97-.49-10.26,.66,3.13-4.9,10.4-7.8,15.39-4.74,2.61,1.48,3.35-.57,4.95,.35-2.39,7.53-7.92,13.65-15.16,16.81-1.76,.58-1.18,1.29,.05,1.23,4.11-.21,6.56-3.27,9.66-5.53,1.89-1.83,11.47-5.37,11.76-2.69-4.8,7.61-9.05,23.91-20.89,20.6Z"/></g><g><path class="cls-1" d="M63.06,169.92v.62c-8.73-.53-15.24-6.92-15.24-15.96s6.5-15.43,15.24-15.96v.62c-4.06,.49-5.94,4.17-5.94,15.34s1.96,14.81,5.94,15.34Zm2.27-30.73v-.62c4.54,.13,7.9,.98,9.65,2.35l-.52,7.98h-.57c-1.7-6.87-4.93-9.31-8.56-9.71Zm9.12,21.02l.52,7.98c-2.01,1.33-5.5,2.26-9.65,2.39v-.67c3.75-.49,7.38-3.5,8.56-9.71h.57Z"/><path class="cls-1" d="M107.98,165.04c0,2.17-.22,4.26,1.92,4.57v.58h-10.17v-.58c1.18-.22,1.05-2.39,1.05-4.57v-9.45h-10.56v9.45c0,2.17-.13,4.35,1.05,4.57v.58h-10.22v-.58c2.23-.31,1.96-2.39,1.96-4.57v-20.8c0-1.95,.13-4.52-1.96-4.7v-.58h10.22v.58c-1.27,.18-1.05,2.75-1.05,4.7v10.69h10.56v-10.69c0-1.95,.17-4.52-1.05-4.7v-.58h10.17v.58c-2.01,.18-1.92,2.75-1.92,4.7v20.8Z"/><path class="cls-1" d="M145.57,169.65v.53h-13.88v-.53c3.45,0,1-4.97,1-4.97l-1.35-3.15h-9.43c-.44,1.06-1.4,8.29,4.67,8.11v.53h-11.66v-.53c1.18-.09,2.92-.09,6.5-8.69h9.69l-5.06-12.11,3.8-9.89h.48c10.87,25.9,11.44,27.23,11.44,27.23,1.53,3.55,2.79,3.37,3.8,3.46Zm-12.44-39.29l5.98,1.91-11.96,5.32h-2.58l8.56-7.23Z"/><path class="cls-1" d="M176.6,138.97v31.22h-10.3v-.58c1.88,0,2.92-2.48,2.92-5.5v-19.02c0-2.75-1-5.54-2.92-5.54v-.58h10.3Zm20.56,15.74c0,12.95-9.95,15.48-18.64,15.48v-.58c4.71,0,9.34-.75,9.34-14.9s-4.5-15.17-9.34-15.17v-.58c8.69,0,18.64,2.75,18.64,15.74Z"/><path class="cls-1" d="M203.18,138.97h9.95v31.22h-9.95v-.58c1.83,0,2.53-2.48,2.53-5.5v-19.02c0-2.75-.61-5.59-2.53-5.59v-.53Zm12.22,.62v-.62h12.22v8.74h-.57c-.39-7.05-9.34-7.98-11.66-8.11Zm.83,15.17h-.83v-.67h.83c1,0,5.15-.49,5.54-4.88h.57v10.42h-.57c-.39-4.34-4.54-4.88-5.54-4.88Zm11.96,6.25v9.18h-12.79v-.62c2.31-.13,11.48-.93,12.22-8.56h.57Z"/><path class="cls-1" d="M49.51,217.32c0,5.37,2.18,5.5,4.37,5.5v.58h-14.36v-.58c1.83,0,2.45-1.55,2.45-4.57v-21.06c0-2.75-.79-4.48-2.71-4.48v-.53h10.26v25.14Zm2.27-24.57v-.58c8.03,.13,14.58,1.51,14.58,8.96s-6.55,8.74-14.58,8.87v-.58c4.23-.09,5.94-.89,5.94-8.29s-1.92-8.29-5.94-8.38Z"/><path class="cls-1" d="M99.01,222.87v.53h-13.88v-.53c3.45,0,1-4.97,1-4.97l-1.35-3.15h-9.43c-.44,1.06-1.4,8.29,4.67,8.11v.53h-11.66v-.53c1.18-.09,2.92-.09,6.5-8.69h9.69l-5.06-12.11,3.8-9.89h.48c10.87,25.9,11.44,27.23,11.44,27.23,1.53,3.55,2.79,3.37,3.8,3.46Z"/><path class="cls-1" d="M115.33,192.18l16.76,22.66v8.56h-3.54l-20.21-27.31c-2.71-3.55-4.19-3.28-5.33-3.37v-.53h12.31Zm1.75,30.64v.58h-13.58v-.58c6.29,0,6.72-8.29,6.72-10.07h.57c0,1.77,.09,10.07,6.29,10.07Zm8.34-30.64h13.23v.53c-5.98,0-6.55,7.98-6.55,10.07h-.57c0-2.08-.66-10.07-6.11-10.07v-.53Z"/><path class="cls-1" d="M143.93,192.18h9.95v31.22h-9.95v-.58c1.83,0,2.53-2.48,2.53-5.5v-19.02c0-2.75-.61-5.59-2.53-5.59v-.53Zm12.22,.62v-.62h12.22v8.74h-.57c-.39-7.05-9.34-7.98-11.66-8.11Zm.83,15.17h-.83v-.67h.83c1,0,5.15-.49,5.54-4.88h.57v10.42h-.57c-.39-4.34-4.54-4.88-5.54-4.88Zm11.96,6.25v9.18h-12.79v-.62c2.31-.13,11.48-.93,12.22-8.56h.57Z"/><path class="cls-1" d="M186.75,223.4h-9.95v-.58c1.88,0,2.45-1.33,2.45-4.35v-22.48c0-2.71-.92-3.28-2.79-3.28v-.53h13.45v.53c-1.88,0-3.14,.35-3.14,3.55v27.14Zm14.01,0h-11.74v-.67c3.54-.27,10.56-1.82,11.18-8.96h.57v9.62Z"/><path class="cls-1" d="M238.26,222.87v.53h-13.88v-.53c3.45,0,1-4.97,1-4.97l-1.35-3.15h-9.43c-.44,1.06-1.4,8.29,4.67,8.11v.53h-11.66v-.53c1.18-.09,2.92-.09,6.5-8.69h9.69l-5.06-12.11,3.8-9.89h.48c10.87,25.9,11.44,27.23,11.44,27.23,1.53,3.55,2.79,3.37,3.8,3.46Z"/></g><path class="cls-1" d="M123.1,57.26c1.8-1.02,3.61-2.04,5.37-3.16,1.75-1.12,3.44-2.34,4.95-3.75,.27-.25-.02-.83-.41-.69-1.8,.65-3.25,1.82-4.77,2.89-.51,.35-1.02,.7-1.54,1.04-.04,0-.07,0-.11,0-.51,.03-.91,.35-.91,.35,0,0,.14,.05,.35,.09-.13,.09-.27,.18-.4,.26-.56,.05-1,.34-1,.34,0,0,.13,.04,.34,.08-.11,.07-.21,.14-.32,.2,0,0,0,0,0,0-.08-.09-.17-.14-.17-.14,0,0-.04,.07-.07,.16-.02,.05-.04,.12-.06,.18-.04,.02-.07,.05-.11,.07-.02-.08-.04-.15-.07-.21-.02-.06-.05-.11-.07-.15,.06-.01,.09-.02,.09-.02,0,0-.41-.35-.97-.42-.09,0-.17-.01-.25,0-.03-.09-.05-.14-.05-.14,0,0-.03,.05-.07,.15-.39,.04-.68,.18-.68,.18,0,0,.11,.06,.29,.13-.02,.06-.1,.31-.15,.64-.12,0-.24,0-.35,0-.1-.29-.2-.48-.2-.48,0,0-.05,.19-.09,.49-.14,0-.27,.01-.39,.02,0-.03-.02-.06-.03-.08-.05-.11-.09-.2-.12-.27,1.11-.72,1.82-1.18,1.82-1.18,0,0-.56,.22-1.44,.65-.88,.43-2.08,1.06-3.35,1.89-.79,.51-1.51,1.04-2.13,1.52-.02-.03-.03-.05-.03-.05,0,0-.02,.04-.04,.11-.31,.25-.6,.48-.85,.69,0-.01-.01-.02-.01-.02,0,0-.01,.02-.03,.05,0,0-.02,.01-.02,.02-.3,.24-.53,.48-.69,.69-.03-.04-.06-.06-.06-.06,0,0-.2,.21-.22,.47,0,.04,0,.08,0,.12,0,.02,0,.03,0,.03,0,0,0,0,.01-.02,.01,.12,.06,.23,.09,.29-.03,0-.06,.01-.09,.02-.19,.04-.13,.39,.05,.43,1.59,.41,3.23-.06,4.76-.83,1.53-.77,2.94-1.82,4.22-2.56m-5.4-.04s.04,0,.06,0c-.03,.09-.06,.2-.08,.31-.03,0-.06,0-.09,0-.02-.07-.03-.13-.05-.19,0,0,0-.01,0-.02,.06-.04,.12-.08,.18-.12Zm1.23-.69s-.02-.06-.03-.09c.07-.05,.14-.09,.21-.14,.07,.02,.15,.04,.24,.06,.03,0,.06,.01,.09,.02-.04,.14-.09,.32-.13,.52-.1,0-.2,.01-.3,.02-.02-.14-.05-.28-.09-.39Zm1.45-.44c-.1,0-.2,0-.3,0-.05-.19-.09-.3-.09-.3,0,0-.04,.12-.1,.31-.11,0-.21,0-.31,0-.01-.03-.02-.05-.02-.05,0,0,0,.02-.02,.05-.05,0-.1,0-.15,0,.39-.26,.77-.5,1.12-.72-.02,.07-.04,.18-.06,.31-.02,.11-.04,.24-.06,.39Zm.65,.49c.01,.14,.03,.28,.05,.4-.1-.01-.2-.03-.31-.04,0-.06,.02-.13,.02-.2,0-.06,0-.12,0-.18,.08,0,.16,0,.24,.01Zm.64,0c0,.06,.02,.12,.03,.18-.07,.05-.15,.09-.22,.14,.01-.1,.02-.2,.02-.31,.06,0,.11,0,.17,0Zm1.55-.78s-.08,.05-.12,.08c-.02,.01-.04,.03-.06,.04,0-.04,.02-.07,.02-.11,.06,0,.11,0,.16,0Zm-4.86,2.79c.07-.16,.13-.37,.17-.6h0c0,.12,0,.23,.01,.33,0,.11,.02,.21,.02,.27-.02,.01-.05,.02-.07,.03-.05,0-.1-.02-.15-.03Zm-.75,.46s-.04,.02-.06,.02c0-.03,.02-.07,.03-.11,0,0,0,0,.01,0,0,.03,0,.06,.01,.08Zm-1.5,.6s-.08-.02-.11-.02c.03-.06,.07-.14,.11-.23,.03,0,.06,.01,.09,.02,0,.03,0,.06,0,.09,0,.04,0,.08,0,.11-.03,.01-.07,.02-.1,.04Zm-.43-.36s.05,.02,.08,.02c.01,.11,.03,.21,.05,.29-.07,0-.14-.01-.21-.01,.04-.09,.07-.19,.08-.3Zm1.5-.95s0,.07,0,.11c-.01,0-.03,0-.04,0,0,0,0,0,0-.01,0-.23-.04-.45-.1-.62,.02,0,.03,0,.05,.01,.04,0,.08,.01,.12,.02-.01,.15-.03,.32-.03,.49Zm-.13,.57s.1,.01,.14,.01c0,.09,.01,.17,.02,.25-.07-.03-.15-.05-.24-.08,.03-.06,.05-.12,.07-.18Zm-.37,.1s-.02,0-.02,0c0-.03,0-.06,.01-.09,0,.03,0,.07,0,.1Zm1.38-.96s0-.07,0-.1c0,.22,.01,.42,.04,.58-.05,0-.09-.01-.14-.02,.04-.14,.08-.29,.1-.46Zm.63,.45c.03-.05,.06-.11,.1-.18,.05-.1,.1-.23,.14-.37,.1,0,.2-.01,.29-.02,0,.1,0,.19,.02,.28-.15,.08-.31,.17-.46,.25-.03,.01-.06,.03-.09,.04Zm.92-.62s.05,0,.08-.01c0,.03,0,.06,0,.08-.04,.03-.09,.05-.13,.08,.02-.05,.03-.09,.05-.14Zm.05-1.48s.09,.02,.14,.03c-.03,.12-.05,.26-.07,.41-.01-.16-.04-.31-.07-.43Zm.49,1.28s-.04,0-.06-.01c.03-.11,.05-.22,.06-.34,.04,0,.09,0,.13,0,0,.1,0,.19,0,.27-.05,.03-.09,.06-.14,.08Zm.54-.39s.09,0,.13-.01c-.05,.03-.1,.06-.15,.09,0-.03,.02-.05,.02-.08Zm2.02-1.2s0,0,0,0c0,0,0,0,0,0,0,0,0,0,0,0Zm-2.41,.61c0,.06,0,.12,0,.18-.04,0-.07,0-.11,0,0-.14-.01-.27-.03-.39,.06,0,.11,.01,.17,.02,0,.07-.01,.13-.02,.2Zm-1.06,.63c0,.06-.01,.13-.01,.19-.06,0-.13-.01-.2-.02,0-.03,0-.05,.01-.08,0-.03,0-.07,0-.1,.07,0,.13,0,.2,0Zm-.68,.04s0-.06,0-.08c0,0,.01,0,.02,0,0,.03,0,.05,0,.08Zm-.46,.11s-.03,0-.05,0c-.01-.09-.03-.17-.04-.25,.04,0,.08,.01,.12,.02-.01,.07-.02,.15-.03,.23Zm-.85,.07s-.09,.01-.14,.02c0,0,0,0,0,0,.05-.03,.1-.07,.16-.1,0,.03,0,.05-.01,.08Zm-.58,.81c-.03-.13-.06-.25-.1-.34-.01-.02-.02-.05-.03-.07,.07-.04,.13-.09,.2-.13-.03,.16-.05,.34-.06,.54Zm-.92,.44s0,.06,0,.09c-.02,0-.04,0-.06,0-.02-.11-.05-.21-.09-.3,.05,.02,.1,.03,.17,.05,0,.05-.01,.11-.01,.16Zm.74,.63s.07,0,.11,.01c-.05,.02-.1,.04-.15,.06,.01-.02,.03-.05,.04-.07Zm7.42-4.54c-.07,.12-.14,.28-.16,.47,0,.01,0,.02,0,.04,0,0-.02,0-.03,0,0-.22-.07-.41-.12-.55,.15,0,.27-.02,.37-.04-.02,.03-.04,.06-.06,.09Zm-.51-.05c-.05,.13-.11,.3-.14,.5-.05,0-.11,0-.16-.01,0-.18-.02-.36-.04-.52,.03,0,.06,0,.1,.01,.09,0,.17,.02,.25,.02Zm-.7-.11c-.03,.1-.05,.21-.06,.33-.07-.21-.15-.36-.18-.41,.07,.03,.15,.05,.24,.08Zm-.44,1.02c0,.15,.02,.29,.04,.41-.07,0-.14-.01-.21-.02,0-.02,0-.04,0-.06,0-.12-.02-.24-.04-.35,.07,0,.14,.02,.21,.03Zm-.65-.1c0,.14-.01,.3,0,.45-.05,0-.1,0-.16,0-.02-.18-.06-.35-.11-.51,.08,.02,.17,.04,.27,.06Zm-.63-.38s0,.04,0,.07c-.21,.02-.33,.03-.33,.03,0,0,.12,.05,.33,.11,0,.18,0,.37,0,.59-.08,0-.16,0-.24,0-.02-.14-.05-.28-.08-.39-.04-.16-.09-.28-.12-.35,.16-.1,.31-.2,.45-.29,0,.07,0,.15-.01,.24Zm-2.33,1.28c-.02,.11-.05,.24-.07,.38-.04,0-.08,0-.12,.02-.02-.09-.04-.17-.06-.23,0,0,0,0,0,0,.08-.05,.16-.1,.24-.16Zm-.45,.29s-.02,.09-.04,.14c-.08,.01-.16,.03-.23,.04,0,0,0,0,0,0,.09-.06,.18-.12,.27-.18Zm-1.91,1.25c-.02,.1-.04,.22-.06,.35-.01,0-.03,0-.04,0-.01-.09-.04-.18-.06-.25,.05-.04,.11-.07,.16-.11Zm-.53,.39s-.06,0-.08,0c.03-.02,.06-.04,.09-.06,0,.02,0,.03,0,.05Zm-.5,.28s-.02,.1-.03,.15c-.01,0-.02,0-.03,0,0-.03-.02-.06-.03-.09,.03-.02,.06-.04,.1-.06Zm-.41,.27c-.03,.11-.06,.24-.08,.37-.01,.1-.01,.19,0,.28-.1,.03-.19,.06-.26,.08,0-.13-.06-.25-.13-.34,.12-.12,.28-.25,.48-.39Zm-.39,.9c.09,.02,.2,.04,.33,.06,0,.01,0,.02,0,.03-.16,.04-.33,.08-.5,.11,.06-.05,.12-.12,.16-.21Zm31.32,51.42c-2.14,.75-4.43,1.12-6.71,1.25-2.29,.13-4.58,.04-6.86-.12-1.63-.11-3.56-.08-5.43-.4-1.86-.31-3.63-.98-4.76-2.32-.13-.15,.04-.46,.23-.37,1.7,.84,3.48,1.3,5.28,1.57,1.81,.27,3.63,.34,5.49,.38,2.23,.05,4.45,.04,6.64-.2,.25-.02,.5-.06,.75-.09l.75-.1c.25-.03,.5-.07,.75-.11,.25-.04,.5-.07,.75-.1,.25-.02,.5-.06,.75-.09,.25-.03,.5-.05,.75-.06,.25,0,.5-.03,.76-.04,.25,0,.51,0,.77,0,.44,.02,.47,.67,.09,.8Zm41.87-45.2c-.14-.26-.37-.5-.63-.66-.26-.16-.54-.24-.8-.28-.52-.06-.97,.01-1.39,.13-.42,.12-.81,.28-1.19,.48-.33,.19-.67,.37-1,.56-.67,.37-1.32,.76-1.98,1.13-.65,.39-1.3,.77-1.95,1.16-2.58,1.56-5.1,3.17-7.66,4.71-2.56,1.54-5.16,3.02-7.86,4.33-.68,.32-1.36,.65-2.05,.94-.69,.31-1.39,.59-2.1,.87-1.41,.57-2.84,1.15-4.2,1.95-.11,.07-.2,.14-.27,.2-.93-.4-1.9-.74-2.91-1.02,.02-.32,.02-.63,0-.94-.03-.66-.12-1.31-.23-1.93-.11-.62-.23-1.23-.36-1.85-.55-2.67-1.21-5.35-2.15-7.91-.39-1.07-.82-2.1-1.28-3.11-.23-.5-.46-1.01-.7-1.5-.24-.5-.48-.99-.75-1.48-.27-.48-.58-.96-.95-1.38,0,0-.02-.02-.02-.03,0-.06-.02-.13-.04-.2-.06-.22-.1-.43-.14-.65-.02-.11-.03-.22-.05-.33l-.02-.16v-.04s0-.01,0-.01v-.02s.02-.05,.03-.07c0,0,0-.02,.01-.03h.04s.07-.03,.07-.03c0,.01,.06-.04,.11-.07l.16-.11c.83-.6,1.64-1.26,2.4-1.96,1.52-1.41,2.89-2.97,4.17-4.57,1.39-1.74,2.69-3.52,3.95-5.35,.32-.47,.64-.97,.9-1.55,.13-.29,.24-.6,.31-.93,.02-.08,.03-.17,.05-.25,.01-.09,.03-.18,.03-.26,.01-.18,.02-.35,.01-.52-.02-.35-.08-.69-.2-1.03-.12-.33-.3-.66-.55-.95-.25-.29-.57-.52-.94-.68-.19-.08-.38-.13-.6-.15-.22-.02-.45,0-.67,.07-.05,.02-.11,.04-.16,.06-.37,.16-.59,.38-.77,.56-.09,.1-.17,.18-.24,.27l-.23,.26c-.31,.34-.6,.7-.9,1.05-.58,.71-1.14,1.43-1.68,2.16-1.08,1.45-2.08,2.94-3.07,4.43-.99,1.49-1.96,2.99-2.97,4.47-.5,.75-1.05,1.46-1.5,2.27-.23,.4-.43,.83-.57,1.29-.15,.46-.21,.96-.15,1.48,0,.05,.01,.09,.03,.12-.45,.03-.92,.17-1.33,.45-1.52-3.45-3.44-6.77-5.33-10.08,0-.08-.02-.17-.04-.25,.12-.36-.07-.64-.23-.93-.22-.4-.4-.82-.69-1.2-.36-.48-.9-.89-1.02-1.43,1.42-.62,2.31-1.82,3.06-3.16,.74-1.34,1.34-2.83,2.07-3.96,1.02-1.58,2.19-3.08,3.38-4.56,.59-.74,1.2-1.49,1.74-2.29,.54-.8,1.02-1.64,1.36-2.55,.12-.32-.41-.69-.68-.43-.03,.03-.05,.05-.08,.08,0-.06,0-.16-.02-.29-.02-.15-.05-.34-.12-.53,.12,.15,.24,.3,.35,.45,.23,.32,.87,.18,.75-.31-.16-.56-.42-1.11-.77-1.59-.17-.25-.37-.48-.58-.7l-.04-.04-.06-.06-.14-.13c-.09-.09-.2-.16-.3-.25-.21-.16-.43-.27-.67-.32-.24-.05-.5-.05-.73,.02-.23,.07-.46,.19-.65,.37l-.29,.25s-.11,.09-.14,.12l-.08,.08c-.1,.11-.21,.21-.31,.32-.4,.44-.75,.92-1.06,1.4-.68,1.05-1.22,2.14-1.72,3.21-.49,1.07-.96,2.14-1.4,3.22-1.46,3.61-2.46,7.18-4.52,10.51-.12,.19,.18,.39,.35,.27,.1-.07,.2-.15,.29-.22,.03,.09,.07,.18,.13,.26,.12,.2,.28,.33,.39,.41-.04,.03-.07,.06-.11,.08-.02-.05-.05-.09-.09-.14-.08-.1-.19-.17-.3-.22-.03-.04-.06-.07-.09-.1-.05-.06-.68,.04-.79,.13-.49,.4-.31,.68-.18,.98,.14,.33,.23,.66,.43,.99,.19,.31,.47,.62,.59,.94-.21,.05-.39,.11-.59,.16-.3,.09-.61,.16-.91,.26-1.22,.35-2.42,.76-3.6,1.21-2.37,.9-4.66,1.97-6.84,3.23-1.81,1.05-3.53,2.2-5.15,3.44-.4,.32-.81,.62-1.2,.95-.39,.34-.78,.7-1.12,1.11-.17,.2-.32,.42-.47,.65-.13,.23-.25,.48-.34,.74-.04,.13-.08,.26-.1,.4l-.04,.22-.02,.23v.11s.03,.07,.04,.1l.11,.2,.18,.34c1.59,3.01,3.12,6.05,4.51,9.24-.59-.1-1.14-.03-1.67,.2-.57,.26-1.11,.7-1.51,1.32-.4,.6-.64,1.34-.66,2.07-.01,.36,.03,.73,.11,1.06,.08,.33,.2,.62,.31,.89,.16,.37,.35,.71,.53,1.03,.19,.31,.37,.63,.56,.94,.37,.63,.75,1.25,1.15,1.86,.2,.3,.4,.6,.6,.9-.47-.23-1-.41-1.58-.49-.34-.04-.69-.06-1.07,0-.38,.05-.78,.16-1.18,.38-.4,.22-.77,.57-1.02,.99-.13,.2-.24,.44-.31,.66-.07,.23-.12,.45-.15,.66-.06,.42-.05,.8-.05,1.13,0,.34,.01,.67,.03,1.01,.11,2.71,.45,5.45,.53,7.82,.06,1.66,.14,3.34,.36,5.01,.22,1.67,.6,3.35,1.28,4.93,.69,1.57,1.67,3.03,2.94,4.18,.64,.57,1.35,1.07,2.11,1.44,.76,.38,1.59,.64,2.42,.74,.6,.06,.83-.55,.28-.76-.37-.15-.73-.31-1.08-.49-.03-.1-.08-.23-.13-.38-.07-.22-.17-.49-.26-.8-.1-.31-.22-.67-.34-1.07-.04-.12-.08-.24-.11-.37,0,0,0,0,.01,0,.67,.34,1.09,.53,1.09,.53,0,0-.37-.3-.98-.74-.08-.06-.16-.12-.24-.18-.18-.59-.37-1.24-.57-1.95,.14,.07,.25,.12,.35,.16,.16,.07,.25,.11,.25,.11,0,0-.26-.2-.68-.53-.23-.85-.47-1.77-.71-2.74,.58,.35,1.13,.6,1.57,.77,.31,.12,.56,.2,.74,.25,.18,.05,.27,.08,.27,.08,0,0-.35-.21-.92-.55-.49-.3-1.12-.72-1.81-1.2-.28-1.2-.53-2.36-.74-3.42-.21-1.09-.39-2.08-.52-2.91-.07-.42-.12-.8-.18-1.13-.05-.33-.09-.62-.12-.86-.07-.47-.1-.73-.1-.73,0,0,.01,.27,.03,.75,0,.24,.02,.53,.05,.88,.02,.34,.05,.73,.09,1.15,.07,.85,.2,1.86,.36,2.98,.14,.9,.32,1.87,.54,2.87-.3-.22-.58-.43-.85-.64-.02-.02-.04-.03-.06-.04-.02-.1-.04-.21-.06-.31-.24-1.34-.43-2.63-.57-3.81-.14-1.18-.24-2.25-.3-3.16-.03-.45-.06-.86-.08-1.22-.02-.36-.04-.67-.04-.93-.02-.51-.03-.79-.03-.79,0,0-.02,.29-.04,.8-.02,.26-.02,.57-.03,.94-.01,.37-.01,.78-.01,1.24,0,1.77,.15,4.18,.6,6.78-.08-.06-.16-.13-.23-.19-.1-.87-.2-1.81-.3-2.81-.1-1.1-.19-2.14-.26-3.1-.07-.96-.12-1.83-.16-2.56-.04-.73-.07-1.32-.08-1.73-.02-.41-.03-.64-.03-.64,0,0-.02,.23-.05,.65-.02,.21-.03,.46-.05,.76-.01,.3-.03,.63-.04,1-.03,.74-.03,1.62,0,2.59,.03,.97,.09,2.03,.19,3.14,.08,.8,.18,1.57,.28,2.29-.06-.05-.12-.1-.17-.15-.14-.12-.22-.19-.22-.19,0,0,.06,.09,.17,.25,.07,.1,.16,.22,.26,.35,.16,1.03,.34,1.95,.51,2.72-.33-.29-.62-.56-.87-.79-.48-.45-.78-.73-.78-.73,0,0,.06,.09,.16,.25,.1,.16,.25,.38,.45,.65,.2,.27,.45,.58,.75,.9,.15,.16,.3,.32,.47,.48,.11,.48,.21,.87,.29,1.16,.05,.18,.09,.32,.11,.42-.44-.4-.82-.79-1.11-1.13-.25-.29-.44-.54-.56-.72-.12-.18-.19-.28-.19-.28,0,0,.04,.12,.13,.32,.09,.2,.23,.49,.44,.83,.41,.68,1.12,1.53,2.06,2.26,.15,.12,.3,.23,.44,.33,.09,.25,.17,.49,.25,.72,.16,.41,.29,.79,.43,1.11,.14,.33,.28,.6,.44,.8,.06,.08,.12,.15,.19,.21-.25-.19-.5-.39-.74-.6-.51-.44-.99-.94-1.43-1.48-.44-.54-.85-1.11-1.18-1.72-.74-1.32-1.22-2.85-1.54-4.41-.31-1.57-.46-3.19-.58-4.82-.09-1.37-.18-2.73-.27-4.07-.09-1.35-.17-2.69-.24-4.03-.03-.67-.06-1.34-.07-2.01,0-.33,0-.66,.06-.98,.03-.16,.08-.31,.14-.46,.07-.14,.15-.28,.25-.4,.4-.5,1.05-.75,1.69-.82,.65-.08,1.33-.01,1.99,.11,.14,.03,.23-.03,.28-.11,.1,.13,.2,.26,.3,.39-.25,.13-.56,.32-.85,.59-.12,.1-.22,.21-.32,.32,0,0-.01,0-.01-.01,0,0,0,0-.01,0,.03-.02,.06-.05,.09-.07,.27-.23,.47-.47,.6-.66,.13-.19,.19-.32,.19-.32,0,0-.15,.05-.36,.15-.21,.1-.49,.25-.75,.47-.26,.22-.46,.47-.59,.66,0,0-.01,.02-.02,.03-.1-.05-.2-.09-.29-.12,.08-.06,.16-.12,.24-.2,.16-.15,.29-.3,.39-.42,.1-.12,.15-.2,.15-.2,0,0-.12-.02-.29,0-.17,.02-.4,.1-.58,.26-.13,.12-.22,.27-.27,.41-.07-.04-.14-.08-.2-.12,.03-.01,.06-.02,.09-.04,.27-.14,.39-.41,.39-.41,0,0-.36-.15-.62,0-.11,.06-.18,.15-.24,.24-.08-.05-.16-.09-.24-.14-.32-.19-.59,.07-.36,.3,.25,.25,.52,.49,.8,.73,.14,.12,.28,.24,.44,.35,.15,.11,.31,.21,.47,.32,.32,.21,.65,.42,.99,.6,.35,.18,.71,.35,1.08,.52,.36,.17,.75,.3,1.14,.44,.39,.13,.78,.27,1.19,.37,.4,.11,.81,.21,1.22,.3,.41,.08,.83,.16,1.25,.23,3.35,.54,6.77,.43,9.67,.44,2.03,.01,4.06,0,6.09-.03,2.03-.03,4.06-.04,6.1-.13,1.02-.04,2.04-.11,3.06-.21,1.02-.1,2.03-.24,3.04-.41,2.01-.37,3.99-.91,5.85-1.69,.14-.06,.25-.13,.33-.22,0,.04,0,.08,.01,.12,.01,.13,.02,.3,.02,.47l.02,.51c.13,2.73,.19,5.56-.16,7.97-.5,3.35-1.47,6.66-2.78,9.81-.65,1.57-1.4,3.12-2.19,4.62-.41,.73-.87,1.44-1.44,2.03-.28,.3-.59,.57-.94,.78-.35,.21-.73,.37-1.13,.44-.07,.01-.14,.04-.19,.06-.06,.02-.11,.05-.16,.08-.09,.07-.17,.15-.2,.24-.07,.18,.04,.38,.45,.43,.48,.05,.97-.03,1.43-.18,.46-.15,.88-.39,1.25-.66,.38-.27,.71-.58,1-.91,.3-.33,.56-.67,.8-1.03,.24-.35,.46-.73,.65-1.09l.55-1.08c.18-.36,.34-.73,.51-1.1,.17-.36,.32-.74,.48-1.11,.67-1.62,1.28-3.28,1.76-4.96,.49-1.69,.87-3.4,1.13-5.12,.17-1.08,.28-2.15,.35-3.22,.15-.04,.36-.15,.63-.35l.24-.18,.12-.09s.07-.05,.14-.11l.79-.65c-.07-.36-.14-.73-.21-1.09l-.11-.64c-.08-.43-.15-.86-.23-1.29-.08-.43-.16-.86-.25-1.29l-.06-.32-.03-.15h0s0-.05,.01-.06h.03s.01,0,.01,0h0s0,0,.02,0l.77-.39c.51-.26,1.02-.52,1.53-.79,1.02-.53,2.04-1.07,3.05-1.61,2.03-1.09,4.05-2.2,6.07-3.3,3.25-1.77,6.5-3.54,9.75-5.31,1.62-.89,3.25-1.78,4.87-2.67,.81-.45,1.62-.89,2.43-1.34l.79-.43,.13-.07,.06-.13,.11-.27c.03-.09,.07-.18,.1-.27l.06-.19c.08-.26,.15-.55,.15-.88,0-.32-.06-.7-.25-1.02Zm-71,35.94c.4,.28,.78,.51,1.11,.69,.21,.68,.43,1.32,.64,1.89-.41-.3-.87-.63-1.35-1-.13-.49-.27-1.02-.4-1.58Zm.11-2.53s.09,.06,.14,.09c.22,.94,.47,1.83,.72,2.66-.34-.27-.72-.59-1.14-.94-.18-.77-.36-1.6-.52-2.46,.25,.22,.51,.43,.8,.64Zm-1.37,.83c-.09-.67-.2-1.46-.3-2.33,.09,.09,.18,.19,.27,.29,.17,.89,.36,1.75,.56,2.55-.18-.16-.36-.31-.53-.46,0-.02,0-.03,0-.05Zm.31,2.15c-.03-.23-.1-.71-.2-1.38,.11,.1,.21,.19,.32,.29,.11,.09,.21,.17,.32,.26,.16,.57,.32,1.11,.48,1.61-.33-.26-.64-.52-.92-.78Zm2.73,4.61c-.1-.08-.25-.23-.38-.44-.13-.21-.25-.49-.36-.83-.11-.34-.21-.72-.34-1.15-.03-.11-.07-.23-.1-.35,.48,.32,.94,.58,1.34,.8,.09,.24,.18,.46,.26,.67,.3,.77,.56,1.38,.75,1.79,.06,.12,.1,.23,.15,.32-.23-.12-.46-.25-.69-.39-.16-.1-.32-.21-.48-.32,.01,0,.02,0,.02,0,0,0-.01,0-.04-.03,0,0-.01,0-.02-.01-.02-.01-.04-.03-.06-.04-.01-.01-.03-.02-.05-.04Zm67.06-38.84c-.06-.19-.16-.35-.24-.44,.13-.07,.26-.15,.38-.21-.06,.15-.13,.37-.14,.63,0,0,0,.01,0,.02Zm.28-.73s.1-.06,.14-.08c.09-.06,.17-.14,.23-.22-.03,.13-.06,.3-.06,.47,0,.17,.03,.33,.07,.46-.06,.03-.12,.06-.17,.09,.01-.31-.12-.58-.2-.72Zm.34-.76c.06,0,.1,.01,.14,.02,.03,.04,.06,.07,.09,.11,0,.01,0,.02,0,.04-.04-.06-.06-.11-.06-.11,0,0-.03,.06-.07,.17,0-.11-.06-.19-.12-.24,0,0,.02,0,.03,0Zm-15.84,8.46c2.61-1.54,5.17-3.19,7.66-4.75,1.24-.78,2.48-1.54,3.69-2.25,.61-.35,1.21-.7,1.8-1.03,.15-.08,.3-.16,.45-.24,.15-.08,.3-.17,.43-.23,.27-.13,.55-.24,.83-.32-.12,.07-.2,.16-.26,.24-.06,.08-.09,.15-.1,.21-.01,.05-.02,.08-.02,.08,0,0,.03,0,.07-.03,.04-.02,.11-.04,.18-.06,.15-.04,.35-.07,.55-.09,.18-.01,.35-.01,.49,0,.07,.06,.14,.18,.1,.32-.04,.13-.16,.24-.3,.31-.04,.02-.09,.04-.14,.07,0-.01-.01-.02-.01-.02,0,0,0,.02-.02,.04-.56,.27-1.33,.65-2.26,1.1-2.05,1-4.87,2.42-7.97,4.07-2.18,1.16-4.21,2.28-5.92,3.25,0-.02-.02-.03-.02-.03,0,0-.01,.02-.03,.05-.18,.1-.35,.2-.52,.29-.06-.1-.1-.16-.1-.16,0,0-.06,.11-.11,.28-.31,.18-.61,.35-.9,.51,0,0,0,0,0,0,0,0,0,0,0,.02-.1,.06-.2,.11-.3,.17-.21,.12-.41,.24-.6,.36,0,0,0,0,0,0,0,0,0,0,0,.01-.48,.29-.9,.56-1.24,.8-.28,.11-.59,.24-.9,.41-.02,0-.04,.02-.05,.03-.02-.03-.03-.05-.03-.05,0,0-.02,.04-.05,.09-.72,.4-1.28,.85-1.55,1.09-.01-.03-.02-.04-.02-.04,0,0-.03,.05-.07,.12-.06,.06-.1,.09-.1,.09,0,0,.03,0,.07-.02-.07,.15-.15,.36-.17,.61,0,.04,0,.07,0,.11,0,0,0,0-.01,0,.02-.2-.01-.39-.05-.53-.04-.16-.09-.27-.09-.27,0,0-.07,.08-.15,.22-.08,.14-.16,.35-.2,.58,0,.04,0,.07,0,.1,0,0-.02,.01-.04,.02,0-.07-.02-.13-.04-.19-.04-.15-.09-.25-.09-.25,0,0-.07,.07-.15,.19-.07,.12-.15,.28-.19,.47-.04,.02-.08,.04-.13,.07,0-.13-.04-.26-.07-.36-.02-.06-.04-.12-.06-.16,.21-.12,.38-.22,.51-.28,.14-.07,.21-.11,.21-.11,0,0-.09,.01-.24,.04-.16,.03-.38,.08-.65,.17-.55,.17-1.28,.51-2.01,.97-.27,.17-.53,.34-.77,.5-.04-.07-.07-.11-.07-.11,0,0-.05,.09-.11,.23-.13,.09-.26,.18-.38,.26,0,0-.01-.02-.01-.02,0,0-.01,.02-.03,.04-.06,.04-.11,.08-.17,.12-.01-.05-.03-.09-.04-.13-.07-.2-.14-.32-.14-.32,0,0-.05,.12-.1,.31-.03,.11-.06,.24-.09,.39-.02-.22-.06-.41-.11-.57-.03-.1-.06-.19-.09-.25,.47-.22,1-.49,1.57-.78,.87-.45,1.62-.89,2.13-1.19,.45-.17,.89-.34,1.35-.52,2.67-1.09,5.36-2.51,7.96-4.05Zm13.29-5.69s-.09,.05-.13,.07c-.01-.27-.11-.51-.19-.66,.11-.06,.23-.13,.33-.19,.04-.02,.09-.05,.13-.07-.06,.15-.13,.38-.15,.64,0,.07,0,.14,0,.21Zm-9.21,4.23c.08-.04,.16-.08,.24-.13-.01,.05-.02,.1-.02,.16-.02,.19,0,.37,.05,.5-.1,.05-.2,.11-.3,.16,.04-.09,.07-.18,.09-.29,.02-.15,0-.29-.04-.41Zm.66-.35c.09-.05,.19-.1,.28-.15-.06,.12-.13,.28-.15,.46-.01,.11-.01,.21,0,.3-.05,.03-.1,.06-.15,.08,.03-.08,.05-.17,.06-.26,.01-.15,0-.3-.03-.42Zm.55-.16s-.03-.08-.04-.11c.08-.04,.16-.08,.24-.13,.04-.02,.08-.04,.12-.06-.03,.08-.05,.18-.06,.28-.01,.15,0,.29,.04,.41-.08,.04-.16,.08-.24,.13,.02-.19-.02-.37-.06-.51Zm.65-.48c.12-.06,.24-.13,.36-.19-.03,.1-.05,.2-.06,.31-.01,.14,0,.27,.01,.38-.08,.04-.17,.09-.25,.13,.01-.05,.02-.1,.03-.15,.01-.18-.04-.35-.09-.49Zm.77-.09c-.02-.1-.04-.19-.07-.28,.07-.04,.14-.08,.21-.11-.05,.1-.11,.24-.14,.39Zm.4-.39s-.03-.08-.04-.11c.18-.1,.36-.19,.53-.29,0,0,0,0,0,.02-.07,.14-.14,.35-.15,.58,0,.06,0,.11,0,.17-.09,.05-.18,.09-.26,.14,.02-.19-.02-.36-.07-.5Zm.72-.35c-.02-.06-.04-.11-.05-.15,.13-.07,.27-.14,.4-.21-.05,.12-.09,.26-.11,.41,0,.12,0,.22,.02,.32-.06,.03-.11,.06-.17,.09,0-.17-.05-.33-.09-.46Zm.63-.43s-.02-.05-.03-.07c.15-.08,.3-.16,.45-.24-.06,.14-.11,.31-.13,.49,0,.09,0,.18,0,.27-.07,.04-.14,.08-.22,.12,0-.01,0-.03,0-.04,.02-.19-.03-.37-.08-.52Zm.72-.35s0-.03,0-.04c0-.03-.01-.05-.02-.07,.02-.01,.05-.03,.08-.04-.02,.05-.03,.1-.04,.15Zm.67-.19c-.06-.11-.13-.18-.13-.18,0,0-.06,.06-.11,.15-.02,.03-.04,.08-.06,.12-.02-.05-.03-.1-.05-.14,0-.02-.02-.03-.02-.05,.23-.13,.46-.25,.69-.37-.06,.11-.12,.27-.13,.45,0,.11,.01,.21,.03,.3-.03,.02-.07,.04-.1,.06,0-.12-.06-.24-.12-.34Zm.66-.24s0,.06,0,.1c-.02-.12-.06-.22-.1-.31-.02-.05-.05-.09-.07-.12,.11-.06,.22-.12,.33-.18-.01,.03-.03,.06-.05,.11-.04,.11-.09,.25-.11,.41Zm0,.25s0,.02,0,.03c0,0,0,0,0,0,0-.01,0-.02,0-.04Zm.34-.66c-.05-.07-.09-.11-.12-.14,.21-.12,.42-.23,.63-.35-.06,.11-.13,.26-.15,.43-.02,.14,0,.27,0,.37-.08,.04-.16,.08-.23,.12,.01-.18-.06-.34-.13-.45Zm1.14-.61c-.04-.07-.07-.13-.1-.16,.1-.06,.2-.11,.3-.17-.04,.14-.09,.34-.11,.57-.02-.09-.06-.17-.09-.24Zm-.33,.32c-.03-.12-.08-.22-.12-.29,.09-.05,.17-.09,.26-.14-.01,.03-.03,.06-.04,.11-.03,.09-.06,.2-.09,.32Zm.76-.6c-.03-.05-.05-.09-.07-.13,.14-.08,.29-.16,.42-.24-.04,.16-.08,.38-.08,.62,0,.06,0,.12,0,.18-.05,.02-.09,.05-.13,.07,0-.2-.07-.38-.14-.51Zm-9.64,5.72c-.11,.06-.23,.12-.34,.18,0-.03,0-.05,0-.08,0-.18-.06-.35-.12-.49,0-.02-.02-.04-.03-.05,.17-.09,.33-.18,.5-.26-.02,.09-.04,.18-.05,.27-.01,.16,0,.3,.02,.42Zm-6.26,2.69c-.11,.03-.27,.07-.49,.13,0,0,0,0,0,0,.17-.09,.35-.19,.53-.29-.01,.05-.03,.1-.04,.16Zm-2.35,1.47s-.02,.08-.02,.13c-.01,.11-.02,.22-.01,.32-.08,.05-.17,.09-.25,.13,0-.16-.05-.3-.1-.41,.12-.05,.25-.11,.38-.17Zm.44-.22s.1-.05,.14-.07c.04-.02,.08-.04,.11-.06-.06,.13-.13,.28-.16,.46,0,.02,0,.03,0,.04-.03,.01-.05,.03-.08,.04,0,0,0,0,0,0,.02-.14,0-.28-.02-.4Zm.55-.19s-.02-.07-.02-.1c.08-.05,.16-.09,.24-.14-.02,.11-.04,.23-.04,.35,0,.03,0,.06,0,.1-.05,.03-.1,.05-.14,.08,0-.11-.02-.21-.04-.29Zm.52-.42c.06-.04,.12-.08,.18-.11,0,.05,0,.11,0,.17,.01,.1,.04,.19,.08,.27-.04,.02-.08,.04-.12,.07-.02-.15-.07-.28-.13-.39Zm.66,0c-.01-.13-.08-.24-.15-.33,.13-.09,.24-.17,.31-.23-.01,.07-.02,.15-.02,.23,0,.12,.02,.24,.04,.34-.06,.03-.12,.07-.19,.1,0-.04,0-.08,0-.11Zm.45-.92c.11-.06,.22-.12,.33-.17-.05,.11-.09,.26-.09,.43,0,.14,.03,.27,.07,.37-.05,.02-.09,.05-.14,.07,0-.04,0-.08,0-.12,0-.24-.1-.45-.18-.59Zm.64-.06c-.04-.09-.09-.16-.14-.21,.05-.02,.09-.05,.14-.07,.01,0,.03-.01,.04-.02-.02,.09-.03,.19-.04,.3Zm.06,.47s0,0,0,0c0,0,0,0,0,0,0,0,0,0,0,0Zm.25-.91c.09-.05,.18-.09,.27-.14-.03,.11-.06,.23-.07,.36-.01,.16,0,.31,.02,.44-.02,.01-.04,.02-.06,.03,0-.05,.01-.11,0-.17,0-.21-.09-.39-.17-.53Zm.58-.29s.06-.03,.1-.05c0,.04,0,.09,0,.14,0,.23,.06,.43,.11,.57-.05,.02-.09,.05-.13,.07,.02-.06,.03-.11,.03-.18,.02-.21-.04-.41-.1-.55Zm.51-.26c.07-.04,.14-.07,.21-.11-.02,.1-.04,.21-.05,.32,0,.16,0,.31,.03,.43-.07,.04-.15,.08-.22,.12,.05-.12,.08-.27,.08-.42,0-.12-.03-.23-.06-.34Zm.57-.29c.11-.05,.21-.11,.32-.16-.03,.11-.04,.22-.05,.35,0,.14,.02,.27,.05,.39-.09,.05-.18,.09-.27,.14,.01-.06,.02-.12,.03-.19,.01-.19-.03-.37-.08-.52Zm.66-.34c.14-.07,.29-.15,.44-.23-.06,.14-.13,.32-.14,.52,0,.09,0,.18,.01,.26-.08,.04-.15,.08-.23,.12,0-.05,.01-.1,.01-.16,0-.19-.04-.38-.1-.52Zm.7-.23s-.02-.07-.04-.11c.19-.1,.38-.19,.57-.29-.06,.14-.12,.34-.13,.57,0,.07,0,.14,0,.21-.11,.06-.21,.11-.32,.17,.01-.2-.03-.39-.08-.54Zm.7-.49c.19-.1,.39-.2,.58-.3-.04,.11-.08,.25-.08,.4,0,.12,.01,.22,.04,.32-.12,.06-.24,.13-.37,.2,0-.25-.1-.48-.17-.61Zm-14.48,14.68s-.07,.07-.11,.11c.07-.1,.14-.21,.21-.34-.02,.07-.05,.13-.06,.19l-.04,.04Zm-1.24-7.48c.06-.03,.12-.06,.2-.09,0,.02-.01,.04-.02,.06-.01,.04-.02,.08-.04,.12-.05-.03-.1-.06-.15-.09Zm.75-.76s.31-.15,.33-.36c0-.04,0-.08-.02-.12,.02,0,.05-.02,.07-.02,.04,.12,.1,.21,.1,.21,0,0,.28-.14,.34-.36,.05-.01,.09-.03,.14-.05,0,.06,.03,.11,.05,.15-.41,.25-.78,.5-1.08,.71-.03-.06-.05-.09-.05-.09,0,0-.01,.06-.03,.15,0,0-.02,.01-.03,.02-.2,.15-.37,.28-.5,.38,.05-.07,.1-.15,.11-.25,0-.04,0-.08,0-.11,.03,.1,.07,.17,.07,.17,0,0,.33-.21,.36-.5,0-.08,0-.17-.03-.24,0,0,0,0,.01,0,.02,.19,.15,.33,.15,.33Zm4.42-.38s0,.07,0,.1c-.03,.02-.06,.03-.08,.05,0-.16-.04-.3-.07-.42,0-.03-.02-.06-.03-.08,.14-.08,.26-.16,.38-.23-.07,.14-.16,.34-.19,.58Zm-.58,.25c0,.06,0,.12,0,.17-.06,.03-.13,.07-.19,.11,0-.17-.05-.33-.09-.45,.14-.09,.28-.18,.41-.26-.05,.12-.1,.27-.11,.43Zm-.68,.36c0,.06,0,.12,0,.18,0,0,0,0-.01,0,0-.16-.03-.3-.07-.42,.06-.03,.11-.07,.16-.1-.03,.1-.06,.21-.07,.33Zm-2.96,1.2s0,0,.01,0c0,.01,0,.02,0,.04-.03,.3-.05,.57-.06,.8,0-.08-.02-.16-.03-.24,0-.04-.01-.07-.02-.11,.04-.14,.07-.3,.08-.47,0,0,.02,0,.03,0Zm.08,3.87s-.02,.04-.03,.06v-.02s.02-.02,.03-.03Zm.3-3.27c.02-.05,.03-.11,.05-.16,0,.05,0,.09,0,.13-.02,0-.03,.02-.05,.03Zm-.84-1.13c-.02-.06-.04-.12-.07-.17-.03-.05-.05-.09-.07-.13,.06-.03,.12-.06,.19-.09-.02,.12-.04,.24-.06,.39Zm.77,5.75c.06-.14,.11-.28,.16-.41,.03,.09,.05,.19,.07,.28l.02,.08c-.14,.23-.32,.54-.47,.91-.02,.06-.04,.11-.06,.16,0-.19,.01-.37,.01-.56,.09-.14,.18-.3,.26-.47Zm.4,.5l.06,.21c-.07,.08-.14,.19-.21,.31,.07-.18,.12-.35,.16-.51Zm1.75-6.62s-.01,.09-.01,.14c-.04,.02-.08,.04-.12,.06-.01-.13-.04-.25-.07-.34,.09-.05,.18-.11,.28-.17-.03,.1-.05,.2-.07,.31Zm-.61,.39s0,.02,0,.03c-.01,0-.03,.01-.05,.02,0,0,0,0,0,0,0-.11,0-.21-.02-.31,.05-.03,.1-.06,.15-.08-.03,.11-.06,.22-.08,.35Zm-.53,.01c0,.09,0,.17,0,.25l-.04,.02c0-.09-.03-.18-.05-.26,.03-.01,.06-.03,.09-.05,0,.01,0,.03,0,.04Zm-1.28,.39s-.03,.02-.05,.03c.01-.35-.06-.67-.14-.9,0-.02-.01-.03-.02-.04,.11-.05,.23-.11,.35-.17,0,.06-.02,.13-.03,.21-.03,.23-.08,.54-.12,.88Zm-.83-1.46s0,.08,0,.12c-.01-.03-.03-.06-.04-.09,0-.01-.01-.02-.02-.03,.02,0,.05-.02,.07-.03,0,.01,0,.02,0,.03Zm-.44,.41c-.02,.11-.02,.21-.02,.3,0,0-.02,0-.03-.01,0-.05,.01-.09,.01-.14,0-.14-.05-.26-.11-.36,.09-.03,.17-.07,.26-.1-.04,.09-.09,.2-.11,.32Zm2.47,1.27s.03,0,.05-.01c-.02,0-.04,.02-.05,.03,0,0,0-.01,0-.02Zm4.08-2.36s.03-.03,.04-.04c0,.06,0,.11,0,.16,0,0-.02,0-.02,.01,0-.05,0-.09-.01-.14Zm-3.8-.14c-.09,.05-.18,.1-.26,.14,0-.02,0-.04,0-.06,.06-.02,.12-.04,.18-.06,.03,0,.06-.02,.09-.03Zm-3.24,1.15s0,.09-.01,.13c-.05-.02-.1-.05-.14-.07,.05-.02,.1-.04,.15-.06Zm-3.46,1.32c-.03,.06-.05,.12-.07,.18-.02,.06-.04,.11-.05,.16h0c.03-.13,.05-.26,.06-.39,.02,.01,.05,.03,.07,.04Zm1.32,.56s-.04,0-.05,0c0,0,0-.01,.01-.02,.01,0,.03,0,.04,.01Zm-1.54,.17s-.01,.08-.02,.12c-.04,0-.07,.01-.11,.02,.03-.05,.06-.1,.09-.16,.01,0,.03,.02,.04,.02Zm.68-.42c-.03,.06-.06,.12-.08,.17-.01,0-.02,0-.03-.01,0,0-.01,0-.02,0,.02-.04,.03-.08,.05-.12,.02-.04,.03-.08,.04-.13,.02,.01,.05,.02,.07,.03-.01,.02-.02,.04-.03,.06Zm-1.74,.71s.01-.02,.02-.03c.02,.01,.03,.02,.05,.04-.02,0-.05,0-.07,.01,0,0,0-.01,0-.02Zm-7.93-25.54c.02-.11,.05-.22,.09-.33-.03,.09-.05,.2-.05,.33-.01,0-.03,0-.04,0Zm.18-.58s.03,.03,.05,.05c0,.01-.01,.02-.02,.03-.02-.02-.03-.04-.03-.04,0,0-.03,.04-.06,.12,.02-.05,.04-.1,.06-.15Zm1.59-.19c.02,.07,.06,.13,.09,.18,0,0,0,0,.01,.01l-.15,.13-.22,.19s-.05-.06-.09-.1c.08,0,.13-.01,.13-.01,0,0-.01-.03-.04-.08,.09-.02,.26-.06,.29-.15,.01-.05-.01-.1-.05-.15,.01,0,.02-.01,.03-.02Zm.56-.41s.05,.09,.08,.13c-.03,.02-.05,.05-.08,.07-.04,.03-.08,.07-.12,.1,0-.03,0-.06,0-.09,0-.04-.01-.08-.02-.11,.05-.03,.09-.07,.13-.1Zm-1.84,1.16c-.04-.12-.1-.23-.16-.32-.03-.05-.06-.1-.09-.13,.03,0,.06,.01,.1,.02,.07,.05,.15,.11,.25,.15-.01,.08-.02,.17-.02,.28-.03,0-.06,0-.08,0Zm.54-.14c0,.06,0,.12,0,.18-.03-.07-.07-.14-.12-.2,.04,0,.08,.01,.12,.02Zm-.51,.57s.1,.04,.15,.06c.02,.05,.04,.1,.06,.14-.08-.02-.15-.04-.23-.06,0-.04,.02-.09,.02-.14Zm.56,.12s.04,0,.05,0c.04,.12,.09,.2,.12,.26-.07-.03-.14-.06-.21-.09,.02-.05,.03-.11,.04-.17Zm.34,.08s.01,.07,.02,.11c.02,.07,.03,.13,.05,.19-.03-.02-.06-.03-.09-.05-.03-.02-.07-.03-.1-.05,.02-.04,.07-.11,.11-.2Zm1.34-1.97s0-.06,0-.09c0-.02-.01-.04-.02-.07,.02-.02,.04-.04,.06-.05,.03,.04,.05,.07,.08,.11-.04,.03-.08,.07-.11,.1Zm.54-.69s.06,.08,.09,.11c-.07,.07-.15,.14-.22,.21,0-.06,0-.11-.02-.17,.05-.05,.1-.1,.15-.15Zm.71-.85s0,.01,0,.02c0,0,0,0,0-.01,0,0,0,0,0,0Zm.08,.19s.03,.04,.04,.06c-.01,.01-.02,.02-.03,.03,0-.03,0-.06,0-.09Zm-.41,.23c.04,.06,.08,.11,.12,.15-.03,.03-.06,.05-.08,.08,0-.03-.01-.06-.03-.09-.01-.03-.03-.06-.05-.09,.01-.02,.03-.03,.04-.05Zm1.2-1.06c-.04-.12-.14-.22-.23-.3-.04-.03-.08-.06-.12-.08,.1-.08,.23-.19,.38-.33,0,.02,0,.03-.01,.05-.02,.11-.04,.26,0,.41,.03,.1,.07,.18,.12,.24-.04,.05-.09,.09-.13,.14,0-.04,0-.09-.02-.13Zm7.51-9.38c.03,.08,.07,.14,.11,.2,0,0,0,0,0,0-.01,.02-.03,.04-.04,.05-.05-.13-.11-.24-.18-.35,.03-.04,.05-.09,.08-.12,0,.07,.02,.14,.04,.2Zm-.38,.45c.03,.1,.07,.19,.13,.26-.02,.03-.04,.05-.06,.08-.03-.06-.07-.11-.11-.16-.03-.04-.06-.07-.08-.1,.04-.06,.07-.11,.11-.17,0,.03,0,.06,.02,.08Zm-.3,.68s.03,.08,.04,.12c-.02,.03-.04,.06-.06,.09-.05-.09-.12-.16-.18-.23,0,0,0,0,0,0,.06-.09,.12-.18,.18-.27,0,.09,0,.19,.02,.29Zm-.45,.34s.01,.1,.03,.14c.02,.06,.04,.12,.07,.17-.02,.02-.03,.05-.05,.07-.05-.08-.11-.15-.17-.21,0,0,0,0,0,0,.04-.06,.08-.12,.12-.17Zm-.37,.53s.02,.09,.03,.13c.02,.06,.04,.1,.07,.15-.04,.05-.08,.1-.12,.16-.04-.05-.09-.1-.14-.14-.01-.01-.02-.02-.04-.03,.07-.09,.13-.18,.19-.27Zm-.39,.54c0,.08,.02,.17,.05,.27,0,.01,.01,.03,.02,.04-.08,.11-.17,.22-.26,.33-.05-.06-.11-.11-.17-.16,.12-.16,.24-.33,.36-.48Zm-.6,.8c.01,.05,.03,.11,.05,.16,.01,.03,.03,.06,.05,.09-.09,.12-.18,.23-.27,.35-.05-.06-.11-.12-.17-.17,.11-.14,.22-.29,.33-.43Zm-.6,.76s.03,.09,.05,.13c.02,.04,.04,.07,.07,.1-.04,.06-.09,.11-.13,.16-.05-.07-.11-.13-.17-.18,.06-.07,.12-.14,.18-.22Zm-.44,.53c.01,.06,.02,.11,.05,.17,.01,.04,.03,.08,.05,.11-.02,.02-.03,.04-.05,.06-.05-.06-.1-.12-.16-.17,0,0-.02-.01-.02-.02,.02-.02,.03-.04,.05-.06,.03-.03,.06-.07,.09-.1Zm-.37,.43c0,.07,0,.14,.03,.21,.01,.04,.03,.08,.05,.12-.04,.05-.08,.1-.13,.15-.06-.08-.12-.16-.18-.22,.08-.09,.16-.18,.23-.27Zm-.47,.53c0,.09,.02,.18,.06,.28,0,.03,.02,.05,.03,.07-.04,.05-.09,.11-.13,.16-.04-.06-.08-.12-.13-.17-.03-.03-.05-.06-.07-.08,.08-.09,.16-.18,.24-.27Zm-.39,.88s0,.02,0,.03c-.04,.04-.07,.08-.11,.13-.06-.12-.15-.21-.22-.28,.1-.1,.19-.2,.29-.31-.02,.12-.02,.28,.03,.43Zm-.5,.45s.02,.08,.03,.12c0,0-.01,.01-.02,.02-.04-.14-.11-.27-.17-.37,.05-.05,.09-.1,.14-.14-.01,.11-.01,.24,.01,.37Zm-.44,.07c0,.1,0,.2,.02,.31,.01,.08,.03,.15,.04,.22-.05,.06-.1,.11-.15,.17-.04-.15-.11-.29-.18-.39,0,0-.01-.01-.02-.02,.1-.09,.19-.19,.29-.29Zm-.54,.9c-.06-.08-.13-.14-.19-.19,.06-.06,.13-.12,.19-.19,0,.11-.01,.24,0,.37Zm-.34,.36s0,.02,0,.02c-.02-.02-.05-.04-.07-.06-.09-.06-.17-.11-.17-.11,0,0-.04,.06-.07,.15-.03,.09-.05,.21-.02,.34,.02,.08,.06,.15,.1,.2-.07,.07-.13,.14-.2,.21,0,0,0-.02,0-.02-.04-.13-.14-.24-.23-.32-.04-.04-.09-.07-.12-.09,.19-.17,.41-.37,.66-.6,.04-.04,.08-.08,.12-.12-.02,.11-.03,.25,0,.4Zm7.26-11.67s.07,.09,.1,.15c-.04-.06-.09-.11-.13-.15,.01,0,.02,0,.04,0Zm-.56-.43s.04,.02,.06,.03c0,0,0,0,0,0-.02,.02-.03,.04-.05,.05-.07-.03-.14-.05-.21-.07-.1-.02-.18-.03-.25-.04,0,0,0,0,0,0,.13-.04,.27-.03,.45,.03Zm-10.37,13.41c.14-.18,.29-.37,.43-.55,0,.02-.02,.03-.03,.05-.31,.53-.55,.97-.71,1.27-.16,.3-.25,.47-.25,.47,0,0,.45-.62,1.18-1.63,.73-1.01,1.74-2.4,2.83-3.97s2.06-3.02,2.74-4.09c.69-1.07,1.09-1.75,1.09-1.75,0,0-.51,.62-1.3,1.63-.25,.32-.54,.69-.84,1.09,.28-.42,.56-.83,.85-1.24,.99-1.43,2.02-2.77,3.07-3.92,.16-.17,.33-.37,.48-.51,.07-.07,.15-.14,.21-.18,.02-.01,.03-.02,.05-.03,0,0,0,0,0,0,0,0,.01,0,.02,.01,.06,.04,.14,.1,.24,.18,.1,.08,.2,.18,.3,.29,.1,.12,.21,.25,.31,.39,.04,.06,.08,.12,.12,.18,0,0,0,0,0,.01,0,.02,0,.05,.01,.08,.03,.13,.09,.3,.2,.46,.04,.05,.07,.09,.11,.13,.03,.08,.05,.15,.06,.2,.02,.07,.03,.1,.03,.1,0,0,.02-.04,.05-.11,0-.02,.01-.04,.02-.06,0,0,.01,0,.02,.01,0,.06-.01,.13-.03,.19,0,.05-.02,.09-.03,.14-.08-.12-.19-.22-.28-.3-.11-.09-.2-.16-.2-.16,0,0-.03,.09-.03,.24s.03,.34,.13,.53c.06,.1,.13,.18,.2,.25-.02,.05-.04,.09-.06,.14-.06-.14-.16-.27-.24-.37-.09-.11-.18-.19-.18-.19,0,0-.04,.09-.06,.23-.02,.14-.02,.35,.05,.55,.04,.12,.1,.21,.16,.29-.02,.04-.05,.07-.07,.11-.05-.1-.12-.19-.17-.28-.08-.12-.14-.2-.14-.2,0,0-.06,.07-.1,.21-.02,.07-.04,.17-.04,.27-.03,.04-.07,.08-.11,.13-.07-.11-.12-.18-.12-.18,0,0-.06,.08-.1,.22-.02,.08-.04,.18-.04,.28-.19,.23-.42,.5-.68,.82-.75,.9-1.78,2.13-2.92,3.46-1.13,1.33-2.15,2.52-2.89,3.37-.45,.52-.79,.92-.99,1.15-.01,0-.02-.01-.02-.01,0,0-.01,.02-.03,.06-.1,.11-.15,.17-.15,.17,0,0,.05-.04,.13-.11,0,.01,0,.03-.01,.04-.03,.1-.04,.25,0,.39,.04,.12,.11,.22,.18,.29,0,0,0,0,0,0-.04,.04-.07,.07-.11,.11,0,0,0,0,0,0-.03-.12-.12-.21-.19-.3,.03-.05,.05-.08,.05-.08,0,0-.03,.02-.08,.05-.08-.09-.14-.15-.14-.15,0,0-.05,.06-.09,.18-.01,.04-.02,.09-.03,.15-.05,.03-.1,.07-.15,.1-.08-.07-.16-.12-.16-.12,0,0-.04,.06-.07,.17-.01,.04-.02,.09-.02,.13-.09,.07-.19,.14-.29,.22-.05-.02-.09-.03-.09-.03,0,0-.01,.05-.02,.12-.1,.08-.19,.16-.29,.25-.09-.09-.17-.15-.17-.15,0,0-.04,.08-.06,.2-.01,.05-.02,.11-.02,.18-.07,.07-.13,.13-.2,.2-.03-.02-.05-.04-.05-.04,0,0-.05,.06-.08,.17,0,0,0,0,0,0-.12,.12-.22,.24-.32,.35-.03-.03-.05-.05-.05-.05,0,0-.05,.05-.1,.14-.03,.05-.05,.11-.07,.18-.05,.06-.09,.11-.13,.17-.02,.02-.03,.04-.04,.06,0,0-.02-.01-.02-.01,0,0-.2,.06-.24,.2,0,.02,0,.04,0,.06-.1-.09-.24-.16-.41-.18-.17-.02-.33,.04-.45,.11-.03,0-.07,0-.1,0-.05,0-.09,.01-.13,.02,.13-.28,.28-.54,.45-.81,.4-.61,.9-1.19,1.43-1.85Zm-2.12,3.39s.03,.03,.04,.05c0,.04,0,.07,.01,.11,.02,.11,.06,.21,.11,.3-.07,0-.15-.01-.22-.02,0,0,0,0,0,0,0-.15,.03-.29,.06-.43Zm-4.91-21.02c-.02-.08-.1-.14-.18-.18,.08-.12,.16-.24,.24-.36,0,.01,0,.02,0,.03,.04,.1,.13,.17,.2,.21,0,0,0,0,0,0-.1,.16-.19,.32-.29,.49,.03-.06,.05-.13,.03-.19Zm3.5-6.27c0,.15,.01,.32,.05,.49,.04,.2,.11,.37,.18,.51-.04,.05-.07,.09-.1,.14,0-.01,0-.03-.01-.05-.07-.19-.21-.33-.33-.42-.04-.03-.08-.05-.11-.07,.12-.22,.24-.42,.34-.6Zm-.44,.79c0,.13,.03,.3,.1,.48,.04,.11,.1,.21,.15,.3-.06,.08-.12,.16-.18,.24,0-.06,0-.12,0-.18-.03-.14-.12-.25-.21-.35-.03-.03-.06-.06-.08-.08,.08-.14,.16-.28,.23-.41Zm-.41,.95c.04,.16,.13,.29,.2,.37,0,.01,.02,.02,.03,.03-.01,.02-.03,.03-.04,.05-.07-.12-.16-.23-.25-.3-.04-.03-.08-.06-.11-.08,.05-.09,.1-.17,.15-.26,0,.06,0,.13,.02,.2Zm-.22,.7c.03,.07,.06,.13,.1,.18,0,0-.02,.02-.02,.03-.09-.13-.22-.23-.34-.28,0,0-.01,0-.02,0,.07-.12,.14-.24,.21-.35,0,.12,.01,.28,.07,.43Zm-.43,.18c.03,.1,.07,.21,.12,.32,.02,.05,.05,.09,.08,.13-.02,.02-.03,.04-.05,.07-.06-.13-.2-.21-.31-.26,.05-.09,.1-.17,.15-.26Zm-.32,.53c0,.06,.01,.11,.03,.17,.03,.09,.09,.16,.15,.22-.02,.03-.04,.06-.06,.09-.05-.09-.13-.16-.2-.21-.02-.02-.04-.03-.06-.04,.05-.07,.09-.15,.13-.22Zm-.33,.53c0,.06,0,.11,.03,.17,.01,.04,.03,.08,.05,.11-.06-.05-.12-.08-.18-.11,.04-.06,.07-.12,.11-.17Zm-.29,.47c0,.06,.03,.12,.05,.18,.03,.06,.06,.11,.1,.15-.03,.04-.06,.09-.09,.13-.07-.08-.16-.14-.24-.17,.06-.1,.12-.19,.18-.29Zm-.36,.57c0,.05,.01,.11,.03,.16,.02,.07,.06,.12,.1,.17-.11,.17-.22,.34-.32,.51-.04-.09-.14-.14-.24-.17,.04-.06,.08-.12,.11-.18,.11-.17,.21-.33,.32-.5Zm3.76-5.02s.02,.03,.03,.04c.03,.04,.06,.06,.09,.09-.03,.05-.07,.09-.1,.14,0-.09,0-.18-.02-.27Zm.59-.49c.05-.13,.08-.32,.03-.51,0,0,0,0,0-.01,.06,.07,.13,.13,.18,.18,.01,.01,.03,.02,.04,.03-.08,.1-.15,.19-.23,.29,0,0-.01,.01-.02,.02Zm.77-.94s0-.02,0-.04c-.02-.16-.06-.36-.16-.54-.04-.07-.09-.14-.14-.2,.03-.05,.05-.11,.07-.17,.11,.16,.22,.29,.31,.39,.11,.11,.19,.18,.23,.21-.1,.11-.21,.23-.31,.34Zm-.28-2.65c.06,.05,.12,.1,.17,.15,0,0,.01,0,.02,.01,0,.03,0,.05,.01,.08,0,.05,.02,.11,.03,.17-.12-.18-.25-.33-.37-.45,.05,0,.09,.02,.14,.03Zm.51,1.76c.12,.16,.22,.27,.27,.33-.06,.06-.12,.13-.18,.19,0-.06-.02-.17-.05-.32-.01-.06-.03-.13-.05-.21Zm.55,.06c-.08,.08-.16,.15-.23,.23-.01-.12-.04-.34-.12-.61,.05,.07,.1,.13,.15,.18,.09,.1,.16,.17,.2,.2Zm-7.15,6.39c.46-1.06,.96-2.12,1.48-3.16,.51-1.05,1.03-2.08,1.64-3.05,.3-.48,.63-.95,.98-1.38,.14-.17,.29-.34,.44-.5,.2-.09,.45-.17,.71-.19,.15-.02,.3-.01,.43,0,.04,.13,.1,.3,.17,.49-.08-.09-.14-.14-.14-.14,0,0,0,.11,.02,.29-.07-.03-.14-.06-.2-.06-.12-.02-.22,0-.27,.04-.06,.03-.08,.05-.08,.05,0,0,.03,0,.08,.03,.05,.02,.11,.05,.17,.11,.12,.11,.25,.31,.29,.53,.02,.11,.03,.22,.04,.32-.09-.06-.15-.1-.15-.1,0,0-.01,.1,0,.26,.02,.14,.06,.32,.15,.51,0,.02,0,.03,0,.03,0,0,0,0,0,0,0,.01,.01,.03,.02,.04,.11,.2,.26,.35,.39,.44,.03,.02,.05,.04,.07,.05-.08,.09-.16,.19-.24,.28-.01-.15-.04-.32-.11-.48-.08-.17-.21-.31-.32-.42-.11-.11-.2-.17-.2-.17,0,0-.02,.1-.03,.25,0,.14,.02,.34,.11,.53-.14-.14-.29-.22-.29-.22,0,0-.09,.33,.01,.66,.08,.26,.25,.44,.32,.51-.07,.09-.14,.19-.22,.28,.02-.14,.04-.31-.01-.47-.05-.17-.17-.31-.26-.41-.1-.1-.19-.16-.19-.16,0,0-.03,.09-.05,.22-.01,.1-.01,.24,.01,.37-.08-.11-.15-.18-.15-.18,0,0-.04,.09-.07,.23-.03,.14-.05,.35,0,.56,.04,.21,.14,.38,.22,.5,0,0,0,0,.01,.01-.06,.08-.12,.16-.18,.24,0-.06-.01-.12-.02-.18-.06-.3-.24-.54-.36-.68,.23-.42,.36-.66,.36-.66,0,0-.15,.21-.42,.59-.04-.04-.06-.06-.06-.06,0,0-.01,.07-.02,.18-.71,1-2.09,2.98-3.56,5.26-.86,1.33-1.62,2.57-2.22,3.56,.62-1.63,1.1-3.33,1.71-4.73Zm-2.75,7.19s-.03-.05-.05-.07c.01-.02,.03-.05,.04-.07,0,.04,0,.09,.01,.14Zm-1.62,1.94s.07-.07,.11-.1c.02,.05,.04,.09,.06,.14,.07,.14,.17,.24,.26,.31,.08,.07,.15,.11,.15,.11,0,0,.04-.09,.07-.22,0-.05,.01-.12,.01-.18,.15,.15,.29,.22,.29,.22,0,0,.02-.11,.02-.25,0-.1-.01-.23-.05-.35,.05,.04,.09,.06,.09,.06,0,0,.03-.1,.04-.25,.01-.14,0-.32-.07-.49,0-.02-.02-.04-.03-.06,0,0,0,0,0,0,0,0,0,.01,0,.02,.07,.16,.19,.29,.28,.37,.09,.08,.17,.12,.17,.12,0,0,.03-.1,.05-.23,.01-.13,.01-.3-.06-.46-.04-.09-.1-.16-.16-.22,.02-.03,.04-.06,.06-.09,.07,.18,.16,.32,.23,.44,.08,.11,.13,.18,.13,.18,0,0,.06-.09,.1-.24,.04-.14,.05-.35-.02-.54,.03,.03,.06,.06,.08,.07,.07,.05,.14,.07,.14,.07,0,0,.04-.08,.08-.17,.04-.1,.07-.21,.04-.3-.03-.1-.12-.17-.21-.23-.04-.03-.09-.06-.12-.07,.09-.18,.18-.35,.27-.54-.02,.1-.04,.25,0,.39,.07,.27,.29,.43,.29,.43,0,0,.24-.29,.17-.55-.06-.23-.33-.37-.4-.4,.03-.06,.06-.13,.09-.19,.1-.13,.2-.27,.3-.41-.03,.1-.06,.29,0,.48,.08,.27,.32,.42,.32,.42,0,0,.23-.3,.14-.57-.07-.23-.34-.36-.41-.39,.07-.09,.14-.19,.21-.29,0,.05,0,.1,.02,.15,.07,.23,.29,.37,.29,.37,0,0,.24-.27,.17-.5-.04-.14-.18-.23-.29-.29,.1-.13,.19-.27,.3-.41,0,0,0,.02,0,.03,.04,.2,.24,.32,.24,.32,0,0,.27-.21,.23-.41-.02-.12-.15-.21-.25-.26,.07-.1,.15-.21,.22-.31,0,.02,0,.04,0,.07,.02,.22,.21,.37,.21,.37,0,0,.29-.2,.27-.41-.01-.15-.17-.27-.27-.33,.03-.05,.07-.1,.1-.15,.09,.16,.26,.25,.26,.25,0,0,.23-.26,.16-.48-.02-.07-.08-.13-.14-.18,.08-.11,.15-.23,.23-.34,.08,.14,.24,.21,.24,.21,0,0,.07-.07,.13-.16-.69,1.19-1.3,2.4-1.94,3.57-.69,1.25-1.41,2.47-2.33,3.63-.07,.02-.16,.04-.22,.07,0-.15-.01-.38-.13-.57-.07-.11-.15-.19-.24-.25Zm-19.09,16.66l-.18-.34-.09-.17-.04-.07h0s-.02-.02-.02-.03c0,0,0-.01,0-.02h0s0-.03,0-.03v-.06c.04-.16,.09-.33,.17-.5,.16-.34,.4-.68,.7-1.01,.3-.33,.64-.64,1.01-.94,1.5-1.24,3.05-2.35,4.56-3.25,2.33-1.4,4.81-2.58,7.38-3.55,1.28-.49,2.59-.91,3.9-1.29l.49-.14,.5-.13,.5-.13c.17-.04,.33-.09,.48-.12,.15-.03,.29-.05,.42-.04,.13,0,.24,.03,.32,.07,.09,.04,.17,.12,.21,.19,.04,.07,.05,.13,.04,.17l-.04,.18,.07,.13c2.15,3.88,4.33,7.73,6.61,11.48,.21,.34,.47,.52,.66,.52,0,.09,0,.18,0,.25-.47,.33-.93,.67-1.4,1-.02,.01-.04,.02-.05,.04-.02-.04-.03-.09-.05-.13-.15-.37-.38-.88-.68-1.41-.31-.53-.64-.98-.89-1.3-.25-.32-.43-.52-.43-.52,0,0,.07,.25,.22,.64,.15,.39,.38,.91,.69,1.44,.31,.53,.64,.98,.89,1.29,.03,.04,.06,.08,.09,.11-.09,.06-.18,.12-.26,.18-.39-.81-.98-1.97-1.73-3.22-1.41-2.36-2.82-4.15-2.82-4.15,0,0,1.02,2.07,2.43,4.43,.74,1.25,1.45,2.33,1.94,3.07-.24,.17-.48,.33-.72,.49-.05-.13-.12-.31-.2-.53-.2-.48-.49-1.14-.87-1.83-.38-.7-.78-1.3-1.09-1.74-.31-.43-.52-.7-.52-.7,0,0,.42,1.28,1.19,2.68,.56,1.02,1.13,1.8,1.41,2.17-.56,.38-1.14,.74-1.72,1.09-2.41,1.43-5.04,2.57-7.63,3.79-2.16,1.02-4.24,2.1-6.35,3.07-.86,.39-1.75,.75-2.66,.98-.33-.84-.96-2.36-1.82-4.04-1.31-2.55-2.65-4.52-2.65-4.52,0,0,.93,2.22,2.24,4.77,.85,1.66,1.65,3.05,2.1,3.82-.16,.04-.32,.08-.48,.11-.21,.04-.43,.07-.65,.1-.03-.15-.08-.32-.18-.48-.12-.18-.28-.32-.42-.41-.02-.12-.06-.23-.1-.32-.63-3.32-2.24-6.92-4.1-10.47l-.35-.67Zm29.22,.06s-.09,.06-.14,.1c0-.03,0-.05,0-.07,.06-.02,.12-.04,.16-.06,0,.01-.01,.03-.02,.04Zm-.64,.45s-.02,.02-.03,.02c0-.29-.06-.52-.08-.58,.05,.03,.15,.1,.28,.13-.06,.12-.12,.27-.16,.43Zm-25.69,11.65s0,.02,0,.03c0,0,0,0-.01,0,0,0,0-.02,.01-.02Zm.27,.02s.01,.06,.02,.09c-.03,0-.05-.01-.08-.02,.02-.02,.04-.04,.06-.06Zm.37-.04c0,.07,.02,.14,.04,.2-.03,0-.06-.01-.1-.02,.02-.06,.04-.12,.06-.18Zm.47-.11c.05,.06,.1,.12,.15,.17,.03,.11,.06,.18,.07,.2-.09,0-.19,0-.28-.02,.03-.11,.05-.23,.06-.35Zm.3,.3s.07,.05,.1,.08c-.06,0-.11,0-.17,0,0,0,.03-.03,.06-.07Zm.35,.07s-.02-.08-.03-.13c0-.04-.02-.07-.03-.12,.06,.09,.12,.17,.18,.24-.04,0-.07,0-.11,0Zm-2.33,9.91c-.12-.05-.25-.11-.37-.17,0,0-.01,0-.02,0,.06-.04,.12-.08,.18-.12,.06,.09,.14,.18,.22,.27,0,0,0,.02-.01,.02Zm.58-.13s-.03-.03-.05-.04c.04-.02,.08-.05,.12-.08-.03,.04-.05,.08-.07,.12Zm.86-.8s-.04,.02-.06,.03c.01-.02,.03-.03,.04-.05,0,0,.01,.01,.02,.02Zm-.05,.57c.11-.09,.21-.18,.29-.27,.05,.06,.1,.11,.15,.17-.05,.02-.11,.05-.16,.09-.05,.04-.1,.08-.14,.13-.05-.04-.1-.08-.14-.12Zm.53,.41s-.02,.03-.03,.05c0,0,0,0-.01-.01,.02,0,.03-.02,.05-.03Zm-.82-1.57c.04,.05,.08,.11,.13,.16-.06-.03-.1-.05-.1-.05,0,0,.03,.05,.08,.13-.15,.1-.31,.21-.47,.35,0,0-.01,.01-.02,.02-.03-.03-.07-.05-.1-.08,.19-.19,.36-.38,.49-.53Zm-.69,.72s.05-.05,.07-.07c.02,.04,.04,.07,.06,.12-.11,.11-.2,.23-.27,.33-.05-.04-.1-.09-.15-.13,.1-.08,.2-.16,.3-.25Zm-.86,.09s0,.01,0,.02c.01,.02,.03,.05,.04,.07-.09,.11-.16,.22-.23,.32-.03-.02-.05-.04-.08-.06-.05-.04-.1-.07-.15-.1,.12-.06,.27-.14,.41-.24Zm5.65,2.21s-.04-.09-.07-.13c.25,.1,.55,.2,.86,.27,.02,0,.03,0,.05,0-.28-.04-.56-.09-.85-.14Zm-.79-1.49c.31,.12,.67,.25,1.06,.35,.18,.23,.35,.44,.5,.63,.05,.06,.09,.11,.14,.17,0,0-.02,0-.02,0-.43-.1-.84-.16-1.17-.21-.15-.28-.32-.6-.51-.94Zm2.67,1.21c.1,.11,.19,.2,.27,.29-.26-.08-.59-.18-.95-.27-.08-.12-.16-.25-.25-.4-.07-.12-.15-.24-.23-.37,.2,.04,.4,.07,.59,.1,.15,.18,.29,.34,.41,.48-.27,0-.43,.01-.43,.01,0,0,.22,.07,.59,.16Zm-.35,.52h0c.25,.02,.47,.02,.66,.02,.08,0,.15,0,.22-.01,.05,.05,.08,.08,.12,.11-.33-.04-.66-.07-.99-.12Zm21.92-.12c-1.99,.16-4,.21-6.03,.28-2.02,.07-4.04,.13-6.05,.18-1.6,.03-3.19,.06-4.76,.02,.06-.02,.12-.05,.16-.07,.07-.04,.11-.06,.11-.06,0,0-.05,0-.13-.01-.08,0-.2-.02-.35-.03-.29-.03-.67-.07-1.09-.1-.86-.05-1.59-.09-1.59-.09,0,0,.04,.03,.11,.08,.07,.05,.18,.11,.32,.18,0,0,0,0,0,0-.53-.04-1.06-.08-1.58-.14-.02-.03-.04-.07-.07-.12,.17-.01,.27-.03,.27-.03,0,0-.14-.06-.37-.13-.05-.08-.11-.18-.18-.29,.52,.11,1.22,.21,1.98,.23,.8,.01,1.51-.07,2.02-.17,.5-.09,.81-.18,.81-.18,0,0-.32-.03-.84-.06-.52-.03-1.22-.06-2-.08-.78-.01-1.49,0-2.02,0-.04,0-.08,0-.11,0t0,0c-.08-.13-.17-.28-.27-.43,.28,.02,.53,.03,.75,.02,.24,0,.44-.02,.57-.03,.13-.01,.21-.02,.21-.02,0,0-.07-.02-.21-.05-.13-.03-.32-.08-.56-.14-.29-.07-.65-.15-1.05-.25-.24-.38-.51-.81-.79-1.26-1.07-1.69-1.95-3.1-1.95-3.1,0,0,.03,.1,.09,.28,.06,.18,.15,.44,.28,.76,.25,.63,.65,1.48,1.19,2.34,.19,.3,.39,.59,.58,.85-.06-.01-.11-.02-.17-.04-.12-.03-.23-.05-.35-.07-.45-.7-.97-1.51-1.54-2.38-.85-1.29-1.65-2.45-2.24-3.29-.59-.84-.96-1.37-.96-1.37,0,0,.28,.59,.77,1.51,.49,.92,1.2,2.16,2.06,3.45,.48,.73,.96,1.39,1.39,1.97-.31-.06-.59-.12-.84-.17-.23-.41-.47-.84-.74-1.29-.63-1.06-1.25-2.01-1.71-2.69-.46-.68-.76-1.1-.76-1.1,0,0,.2,.48,.56,1.23,.36,.75,.88,1.77,1.52,2.84,.19,.31,.37,.61,.56,.9-.05,0-.09-.02-.13-.03-.14-.03-.22-.04-.22-.04,0,0,.07,.04,.19,.11,.07,.04,.17,.09,.28,.15,.29,.45,.57,.85,.82,1.2-.26-.03-.42-.04-.42-.04,0,0,.19,.13,.52,.29,.04,.02,.08,.04,.12,.06,0,0,.01,.02,.02,.02,.06,.08,.11,.15,.16,.21-1.02-.19-2.02-.43-3.01-.76-.28-.08-.55-.18-.82-.28-.11-.12-.23-.26-.37-.4,.08-.03,.16-.08,.25-.13,.08,.09,.16,.18,.26,.26,0,0,.02,.02,.03,.02-.03,.08-.04,.14-.04,.14,0,0,.07-.01,.16-.04,.1,.08,.2,.14,.29,.2,0,.02,0,.03,0,.03,0,0,.02,0,.04,0,.18,.11,.34,.18,.48,.24,.27,.1,.44,.13,.44,.13,0,0-.12-.14-.32-.34-.05-.05-.1-.11-.16-.16,.08-.03,.15-.08,.23-.13,.04-.03,.07-.06,.11-.08,.48,.37,.88,.55,.88,.55,0,0-.08-.17-.24-.41-.07-.11-.16-.23-.26-.36,.15-.09,.27-.24,.24-.39-.31-1.36-1.16-2.34-1.94-3.39-.42-.57-.83-1.16-1.22-1.75l-.6-.89c-.2-.3-.4-.58-.57-.85-.28-.46-.5-.9-.54-1.4-.05-.5,.08-1.06,.33-1.55,.25-.5,.64-.94,1.1-1.29,.43-.33,.92-.58,1.45-.78,.18,.42,.36,.84,.54,1.27,.04,.09,.08,.15,.12,.2,0,0,0,0,0,.01-.07-.05-.13-.1-.19-.14,.04-.05,.06-.08,.06-.08,0,0-.03,0-.09-.02-.04-.14-.08-.24-.08-.24,0,0-.05,.08-.12,.21-.02-.01-.04-.02-.04-.02,0,0,0,.02,0,.05-.06,0-.13,.03-.2,.06-.05-.1-.1-.19-.15-.26l-.15-.19-.05,.15s-.03,.08-.04,.12h-.03s0,.07,0,.11c-.02,.09-.03,.15-.03,.15,0,0,.01,0,.03-.02,0,.07,0,.14,.02,.22-.07,.09-.11,.19-.14,.29-.02-.07-.06-.14-.09-.2-.05-.09-.11-.17-.11-.17,0,0-.06,.04-.13,.12-.07,.08-.13,.21-.14,.35,0,.03,0,.05,0,.07-.02,0-.04-.01-.06-.02-.23-.1-.43,.21-.25,.37,.79,.73,2.03,1.09,3.24,1.04,1.23-.04,2.44-.41,3.54-.89,.56-.24,1.09-.5,1.61-.76,.52-.27,1.04-.54,1.55-.8,1.02-.53,2.01-1.04,2.95-1.46,2.62-1.16,5.32-2.22,7.9-3.58,1.29-.68,2.54-1.44,3.7-2.32,1.16-.88,2.24-1.88,3.14-3,.28-.35,.03-.81-.35-.71-.04-.1-.07-.16-.07-.16,0,0-.03,.04-.07,.1-.08-.09-.24-.24-.43-.24-.27,0-.49,.3-.49,.3,0,0,0,0,.02,.02-.02,.02-.13,.17-.25,.38,0-.36-.12-.65-.12-.65,0,0-.16,.22-.28,.54,0,0,0,0,0,0-.16-.4-.32-.8-.49-1.19,.4-.12,.77-.11,1.11-.05,.19,.03,.38,.09,.56,.14,.18,.06,.36,.14,.52,.22,.17,.09,.32,.19,.46,.29,.13,.1,.29,.24,.43,.38,.29,.29,.56,.64,.82,1.04,.26,.4,.51,.85,.76,1.32,.24,.48,.5,.96,.73,1.43,.47,.95,.9,1.89,1.22,2.79,.89,2.51,1.5,5.14,2,7.78,.12,.66,.24,1.32,.36,1.98,.11,.66,.23,1.32,.31,1.98,.08,.66,.13,1.31,.11,1.96-.01,.32-.05,.65-.1,.97-.06,.32-.14,.64-.26,.94-.08,.21-.02,.43,.12,.56,.02,.02,.05,.04,.08,.06-.07,.16-.12,.32-.17,.46,0,0,0,0-.02,0-.24,.04-.47,.08-.71,.12,.06-.17,.12-.35,.18-.54,.18-.63,.32-1.41,.36-2.29,.04-.88-.02-1.84-.19-2.84-.17-1-.4-1.93-.64-2.78-.23-.84-.46-1.6-.64-2.23-.18-.64-.33-1.16-.42-1.52-.09-.36-.14-.56-.14-.56,0,0,.02,.21,.07,.58,.05,.38,.13,.92,.26,1.58,.13,.66,.3,1.44,.49,2.29,.19,.86,.39,1.79,.55,2.77,.16,.98,.24,1.91,.25,2.75,0,.84-.07,1.6-.19,2.22-.04,.22-.09,.42-.14,.6-.19,.03-.37,.06-.56,.08,.1-.35,.19-.77,.22-1.23,.05-.68-.04-1.3-.14-1.73-.1-.44-.21-.7-.21-.7,0,0-.01,.28-.03,.72-.02,.44-.06,1.04-.1,1.7-.03,.48-.07,.93-.1,1.3-.21,.03-.41,.06-.62,.09,.25-.47,.47-1.14,.51-1.89,.05-.85-.11-1.6-.24-2.14-.14-.53-.26-.86-.26-.86,0,0,0,.35,.02,.9,.01,.55,.04,1.3,0,2.09-.04,.77-.18,1.45-.34,1.94-.87,.1-1.75,.2-2.63,.27Zm9.84-1.48c-.07-.09-.15-.15-.15-.15,0,0-.1,.09-.17,.22-.09,.02-.18,.03-.27,.05,.02-.1,.02-.2,.02-.29,0-.07,0-.14,0-.19,.13,.08,.26,.11,.36,.11,.11,0,.18-.01,.18-.01,0,0-.03-.09-.08-.2-.05-.11-.12-.23-.23-.31-.11-.08-.25-.1-.37-.11-.12-.01-.22,0-.22,0,0,0,0,.08,.05,.18,.04,.1,.12,.22,.24,.31-.04,.03-.09,.06-.14,.12-.08,.07-.17,.18-.24,.3-.09-.07-.19-.14-.3-.2,0-.03,0-.06,0-.08-.02-.14-.05-.25-.05-.25,0,0-.08,.05-.17,.15-.01,.01-.02,.03-.04,.04,0,0-.02,0-.03-.01,0-.04,0-.09,0-.12,0-.19-.03-.32-.03-.32,0,0-.08,.09-.19,.23-.02,.03-.05,.06-.07,.1-.08-.03-.17-.05-.25-.07,.03-.34-.02-.6-.02-.6,0,0-.17,.21-.34,.53-.07,0-.14-.02-.21-.02v-.03c-.01-.24-.06-.39-.06-.39,0,0-.07,.13-.18,.33-.01,.02-.02,.05-.04,.07-.12,0-.19,0-.19,0,0,0,.05,.03,.14,.09-.07,.15-.15,.34-.23,.53-.12,0-.19,0-.19,0,0,0,.05,.05,.14,.12-.04,.12-.08,.23-.12,.34-.13-.03-.25-.03-.36-.03,0-.02,.02-.04,.03-.06,.06-.15,.11-.3,.14-.44,.33-.5,.56-1.07,.7-1.65,.04-.18,.07-.36,.1-.54,.92,.54,1.85,1.05,2.81,1.58,.14,.08,.27,.15,.41,.23,.13,.08,.28,.16,.4,.23,.02,.01,.04,.03,.06,.04,0,0-.01,0-.02,0-.28,.05-.56,.11-.84,.16Zm8.88-3.06c-.02-.21-.08-.4-.14-.52,.15-.05,.36-.14,.61-.24-.04,.11-.07,.24-.08,.37,0,.06,0,.12,0,.18-.13,.07-.25,.14-.38,.21Zm10.19-5.45c.01-.05,.02-.1,.03-.16,.02-.18-.03-.36-.08-.5,.07-.04,.15-.08,.22-.12-.03,.08-.05,.16-.07,.25-.03,.17-.01,.33,0,.46-.04,.02-.07,.04-.11,.06h0Zm10.56-5.62c0-.29-.12-.54-.19-.67,.48-.27,.91-.51,1.28-.72-.04,.14-.1,.35-.08,.59,0,.08,.02,.16,.04,.24-.03,.02-.07,.04-.1,.05-.07-.25-.28-.44-.28-.44,0,0-.06,.08-.11,.21-.06-.17-.14-.28-.14-.28,0,0-.22,.33-.27,.74,0,.07,0,.13,0,.19-.05,.02-.09,.05-.14,.07Zm-42.43-41.75c-.13,.02-.23,.03-.23,.03,0,0,0-.03,.02-.07,.02-.05,.05-.11,.09-.18,.1-.13,.29-.29,.54-.31,.25-.02,.46,.09,.58,.2,.06,.06,.1,.11,.12,.15,.02,.04,.03,.07,.03,.07,0,0-.09,0-.22,.02-.12,.01-.29,.03-.47,.05-.18,.02-.34,.03-.48,.04Zm-2.11,4.08c-.87,1.76-1.84,3.03-1.84,3.03,0,0,.52-1.46,1.4-3.22,.88-1.76,1.77-3.15,1.77-3.15,0,0-.45,1.59-1.32,3.34Zm13.17,13.92c-.21-.31-.2-.66-.12-.94,.08-.28,.22-.5,.35-.68,.12-.19,.25-.36,.37-.51,.24-.31,.49-.53,.68-.64,.1-.06,.18-.1,.23-.12,.06-.02,.08-.03,.08-.03,0,0-.03,.02-.07,.05-.05,.03-.11,.09-.19,.16-.16,.15-.35,.39-.53,.71-.09,.16-.18,.34-.28,.54-.1,.2-.2,.4-.24,.61-.04,.2-.02,.43,.09,.57,.1,.14,.3,.21,.51,.19,.42-.04,.8-.47,1.06-.83,.26-.37,.38-.78,.32-1.12-.06-.34-.26-.59-.44-.7-.09-.06-.17-.09-.22-.11-.06-.01-.09-.02-.09-.02,0,0,.13-.02,.34,.06,.21,.08,.49,.3,.64,.69,.15,.4,.08,.93-.18,1.39-.13,.23-.28,.45-.49,.66-.21,.21-.48,.41-.85,.46-.18,.02-.36,0-.53-.05-.17-.06-.33-.18-.44-.33Zm-15.89,17.05c-.42-.8-.61-1.55-.61-1.55,0,0,.61,.52,1.03,1.31,.42,.8,.48,1.57,.48,1.57,0,0-.49-.54-.9-1.34Zm-19.64,4.16c-1.05-2.12-1.71-3.99-1.71-3.99,0,0,1.08,1.64,2.13,3.75,1.05,2.11,1.67,3.91,1.67,3.91,0,0-1.04-1.55-2.09-3.67Zm3.16,4.06c.23,.62,.36,1.02,.36,1.02,0,0-.23-.33-.57-.9s-.78-1.36-1.22-2.29c-.43-.93-.77-1.8-1-2.45-.23-.64-.35-1.06-.35-1.06,0,0,.23,.36,.56,.95,.33,.59,.78,1.41,1.21,2.33,.43,.92,.77,1.77,1,2.39Zm26.43,.59c-.09-.32-.18-.6-.25-.86-.07-.25-.14-.47-.2-.65-.11-.35-.17-.55-.17-.55,0,0,.09,.19,.24,.52,.15,.34,.37,.83,.61,1.44,.24,.61,.5,1.35,.77,2.18,.26,.83,.5,1.75,.71,2.72,.42,1.95,.59,3.74,.65,5.03,.03,.64,.04,1.17,.03,1.53,0,.36,0,.56,0,.56,0,0-.02-.19-.07-.54-.04-.35-.11-.86-.19-1.49-.18-1.26-.46-3-.87-4.93-.21-.96-.42-1.89-.63-2.72-.22-.84-.42-1.59-.61-2.23Zm3.78,16.99c.1,.85,.17,2.03,.06,3.32-.11,1.29-.38,2.43-.62,3.23-.12,.4-.23,.72-.32,.94-.08,.22-.13,.34-.13,.34,0,0,.02-.12,.06-.35,.04-.23,.09-.55,.15-.96,.12-.81,.27-1.94,.38-3.21,.11-1.27,.17-2.43,.19-3.29,.01-.43,.01-.77,.01-1.02,0-.24,0-.37,0-.37,0,0,.03,.13,.07,.36,.05,.24,.1,.58,.15,1Zm-.04,7.59c.15-.93,.34-2.23,.51-3.68,.16-1.45,.26-2.8,.31-3.78,.03-.49,.05-.89,.05-1.17,.01-.28,.02-.43,.02-.43,0,0,.02,.15,.06,.42,.04,.27,.08,.67,.11,1.16,.07,.98,.09,2.33-.07,3.81-.16,1.47-.47,2.78-.75,3.7-.14,.46-.26,.83-.35,1.08-.09,.25-.14,.39-.14,.39,0,0,.1-.57,.26-1.5Zm-1.37,7.59c.14-.41,.31-.85,.46-1.34,.08-.24,.17-.49,.25-.75,.08-.26,.16-.53,.24-.8,.32-1.1,.66-2.33,.95-3.63,.29-1.31,.52-2.57,.69-3.73,.08-.58,.16-1.14,.21-1.66,.03-.26,.06-.51,.08-.76,.02-.24,.04-.48,.06-.7,.04-.45,.07-.85,.09-1.21,.01-.18,.02-.34,.03-.5,0-.15,.01-.29,.02-.42,.02-.51,.03-.79,.03-.79,0,0,.01,.28,.04,.78,.01,.25,.03,.56,.03,.91,0,.35,.01,.76,0,1.21,0,.22-.01,.46-.02,.7,0,.24-.03,.5-.04,.76-.02,.53-.08,1.08-.14,1.67-.13,1.17-.33,2.45-.62,3.78-.29,1.32-.65,2.56-1.03,3.66-.19,.55-.38,1.07-.57,1.55-.18,.48-.38,.92-.55,1.33-.17,.4-.35,.76-.5,1.07-.15,.31-.28,.58-.4,.8-.23,.43-.35,.67-.35,.67,0,0,.1-.24,.28-.69,.09-.22,.2-.49,.32-.81,.12-.32,.27-.68,.41-1.09Zm4.42-15.01c.05,1.07,.04,2.55-.13,4.16-.18,1.61-.49,3.03-.76,4.05-.14,.51-.26,.91-.35,1.19-.09,.28-.14,.43-.14,.43,0,0,.09-.63,.25-1.65,.15-1.02,.34-2.44,.51-4.04,.18-1.59,.3-3.06,.38-4.13,.07-1.07,.11-1.74,.11-1.74,0,0,.02,.17,.05,.46,.03,.3,.06,.73,.08,1.27Zm-.17,8.21c.22-1.04,.5-2.5,.72-4.14,.11-.82,.2-1.61,.27-2.33,.06-.72,.12-1.38,.15-1.93,.02-.28,.03-.53,.04-.75,.01-.22,.02-.41,.02-.57,.01-.31,.02-.49,.02-.49,0,0,.02,.17,.06,.48,.04,.31,.07,.76,.1,1.31,.03,.55,.04,1.21,.02,1.94-.03,.73-.09,1.53-.2,2.36-.23,1.66-.62,3.13-.97,4.16-.17,.52-.32,.93-.44,1.21-.11,.28-.18,.43-.18,.43,0,0,.04-.16,.1-.45,.07-.29,.16-.71,.27-1.23Zm-25.89,12.65c.53,.08,1,.18,1.35,.26,.35,.08,.58,.14,.58,.14,0,0-.21,.06-.57,.1-.36,.04-.86,.06-1.42-.02-.56-.08-1.05-.25-1.39-.41-.34-.15-.54-.28-.54-.28,0,0,.24,.01,.6,.05,.37,.04,.85,.08,1.38,.16Zm2.65-.38c-.84-.04-2.02-.16-3.3-.46-.64-.15-1.25-.32-1.8-.51-.55-.19-1.03-.37-1.44-.55-.4-.17-.73-.32-.95-.43-.22-.11-.34-.17-.34-.17,0,0,.52,.14,1.36,.37,.83,.23,1.98,.52,3.24,.81,1.26,.29,2.4,.53,3.23,.69,.83,.16,1.35,.26,1.35,.26,0,0-.13,0-.36,0-.23,0-.57,0-1-.02Zm-14.54-23.52c-.24-.12-.43-.22-.56-.3-.13-.08-.2-.12-.2-.12,0,0,.08,.02,.23,.05,.15,.03,.35,.08,.61,.14,.51,.12,1.21,.28,1.96,.47,.76,.19,1.43,.38,1.93,.51,.25,.07,.45,.13,.59,.17,.14,.04,.22,.06,.22,.06,0,0-.08,0-.22,.01-.14,0-.35,0-.61,0-.51-.02-1.23-.09-2.01-.28-.78-.19-1.47-.47-1.94-.71Zm-1.18-.43c.21,.19,.54,.43,.98,.65,.88,.45,2.21,.78,3.68,1.05,1.47,.27,2.82,.44,3.79,.57,.97,.13,1.57,.24,1.57,.24,0,0-.59,.02-1.57,0-.97-.02-2.34-.06-3.84-.33-.75-.14-1.47-.32-2.1-.54-.64-.22-1.2-.49-1.63-.77-.44-.28-.74-.59-.92-.81-.09-.12-.16-.21-.2-.27-.04-.06-.06-.1-.06-.1,0,0,.03,.03,.08,.08,.05,.06,.13,.13,.23,.23Zm25.42-18.22c-.42,.22-.69,.31-.69,.31,0,0,.21-.19,.54-.49,.34-.3,.79-.73,1.3-1.21,.51-.48,.96-.93,1.29-1.27,.33-.34,.54-.55,.54-.55,0,0-.11,.28-.35,.7-.24,.41-.62,.96-1.14,1.46s-1.08,.85-1.49,1.06Zm4.15-3.59c.23-.31,.35-.49,.35-.49,0,0-.1,.19-.29,.52-.05,.08-.1,.18-.16,.28-.06,.1-.13,.21-.2,.32-.15,.23-.31,.5-.52,.77-.1,.14-.21,.28-.32,.44-.12,.15-.24,.3-.37,.45-.25,.32-.56,.63-.86,.96-.64,.65-1.39,1.31-2.22,1.94-1.67,1.26-3.32,2.15-4.52,2.75-.6,.3-1.09,.53-1.44,.68-.34,.15-.53,.24-.53,.24,0,0,.69-.42,1.83-1.11,1.13-.7,2.69-1.67,4.33-2.91,.82-.62,1.57-1.25,2.24-1.85,.16-.16,.32-.31,.47-.45,.16-.14,.3-.29,.44-.44,.14-.14,.27-.28,.4-.42,.12-.14,.24-.28,.35-.4,.23-.25,.42-.5,.59-.71,.09-.11,.17-.21,.24-.3,.07-.1,.13-.18,.19-.26Zm-11.49-11.01c.2-.17,.31-.27,.31-.27,0,0-.09,.11-.25,.31-.16,.2-.41,.49-.72,.83-.63,.68-1.56,1.56-2.7,2.38-1.14,.82-2.26,1.41-3.09,1.78-.41,.19-.75,.33-.99,.41-.24,.09-.37,.14-.37,.14,0,0,.12-.07,.33-.2,.21-.13,.52-.32,.9-.55,.76-.47,1.79-1.15,2.91-1.95,.56-.4,1.09-.8,1.57-1.17,.48-.37,.91-.71,1.26-1.01,.36-.3,.65-.54,.84-.71Zm-3.8,3.9c.56-.25,.91-.39,.91-.39,0,0-.29,.24-.78,.59-.49,.35-1.19,.82-2.02,1.27-.83,.45-1.62,.81-2.2,1.04-.58,.24-.96,.36-.96,.36,0,0,.32-.23,.84-.57,.52-.34,1.25-.79,2.07-1.24,.82-.45,1.58-.81,2.14-1.06Z"/></svg>