<?xml version="1.0" encoding="UTF-8"?><svg id="Layer_1" xmlns="http://www.w3.org/2000/svg" viewBox="0 0 268.84 141.35"><defs><style>.cls-1{fill:#6c1d30;}</style></defs><g id="Layer_6"><path class="cls-1" d="M59.19,101.48c7.24,2.33,13.29-1.93,16.59-8.33,2.61,8.75-6.81,14.69-2.8,23.14,2.04,4.52,7,8.9,11.63,12.01,1.44,.16,6.11,6.32,6.47,3.36-.14-12.62-16.58-17.74-13.97-30.57,.49-5.87,.84-9.22-1.43-14.4-.15-.35-.15-.6,.38-.41,15.19,2.56,20.23,17.15,27.89,28.42,1.01,1.63-.38,3.2,.84,4.81,.64,2.26-1.21,4.38-.98,6.81,.46,3.54,3.38,4.86,5.98,7.02,7.36,6.6,17.04,.11,25.4,.86,3.92-.31-9.07-4.56-4.51-4.17,1.12,.16,6.13,.07,4.93-1.36-5.2-2.38-6.56-8.52-11.23-11.42-3.96-2.42-9.19,.94-12.9-.23-1.58-1.65-4.38-1.52-6.25-2.93-4.93-7.12-8.56-14.97-13.39-22.13,30.49,4.08,21.54,22.53,46.68,30.04,.53,.19,1.36,.67,1.76,0-2.27-2.4-6.7-4.4-8.75-7.66-4.29-9-14.89-12.25-22.12-17.85-1.51-1.14,5.45,.37,5.89,0,15.56-1.14,29.95,8.89,38.92,20.5-.46,2.12,1.03,3.72,.14,5.94-2.55,4.48-1.36,11.37,4.81,12.03,3.47,.39,7.27,1.47,10.45-.12,1.4-.84,3.12-.94,4.61-.27,2.07,.16-2.53-5.34-3.51-6-1.36-.83,4.08-.61,4.6-.97,.93-.11,3.2-1.1,2.19-1.67-.98-.44-1.67-1.34-1.84-2.4-.64-7.39-8.55-8.32-14.21-6.81-4.61,0-8.17-2.37-10.89-6-4.08-4.91-9.64-8.02-14.85-11.56,12.03,1.93,23.05-3.21,34.25-6.23,1.97-.23,2.8,2.26,3.72,3.63,4.89,7.8,15.6,7.9,23.78,6.72,7.06-1.81,16.53-.29,22.43-2.31-.79-1.47,1.36-4.42,2.14-5.36,2.6-2.44,0-4.52,1.08-6.3,5.45-4.29-.16-10.54,1.62-15.46,2.01-3.93-3.58-3.28-5.65-2.63-1.47,.19-1.63-1.88-3.53-2.6-4.7-2.46-7.99-7.76-12.89-1.97-.97-6.06-5.01,9.13-8.03,9.66-6.96,5.54-17.26,5.13-22.41,13.27-2.12,2.57-6.57,2.35-9.53,3.68-2.95,.72-6.04,2.3-8.97,2.34,7.05-6.29,11.87-7.27,14.14-17.64,0-1.46,6.28-9.12,3.5-7.84-.5,.23-.46,.65,.11,.31-4.17,5.02-5.45,16.23-12.65,20.26,2.41-2.72,4.31-5.84,5.62-9.23-1.92,2.35-3.31,5.91-5.73,7.65,1.69-6.03,5.1-11.44,9.81-15.57,.69-.67,2.5-1.69,1.95-2.6-2.19-.49-8.51,6.43-10.52,12.25-5.65,22.17-31.58,11.11-48.08,10.66-1.93-.42,3.06-1.1,3.78-1.48,11.04-2.04,19.06-12.25,21.89-22.32,1.13-6.14-2.26-11.14-.41-17.14,.23-1.55-1.08-.2-1.5,.34-6.08,6.08-3.39,14.35-3.16,21.9-6.49,20.77-34.06,17.79-50.04,10.54-.84-.11-.64-.78,.11-.54,11.27,1.28,20.54-3.16,29.53-9.07,4.08-1.82,7.99-2.64,11.34-5.95,.9-1.52,7.68-3.92,5.24-5.34-13.83-4.79-17.45,13.25-28.37,16.99,5.59-7.3,4.97-15.82,.54-23.54-1.02-1.78-1.02-4.87-2.18-6.14-1.36,.65-1.36,2.33-1.36,3.89-2.08,15.94,13.65,29.74-13.45,27.42-10.6,.1-18.83-5.17-25.74-12.25-.69,.88-1.01,2-.9,3.12l1.13,1.17c4.61,5.79,22.76,9.83,14.27,19.06-8.33,4.59-18.23-1.57-27.17,1.16-8.75,2.53,12.06,4.82,13.76,5.84Zm51.97-26.99c3.38-5.91,9.83-11.34,16.96-9.17-5.35,3.39-9.08,7.6-15.41,9.19,2.59-2.85,6.59-4.36,9.31-6.81-1.84-.07-3.96,2.22-5.8,3.09-1.74,1.16-3.39,2.52-5.06,3.7Zm-13.07-18.5c0-.72,.16-3.28,.52-2.08,1.12,6.59,7.12,13.26,4.45,20.12-.22-3.83-1.08-7.59-2.53-11.14h-.15c1.08,4.51,1.88,8.74,1.14,13.35,0,.16,0,.41-.25,.41-2.18-6.68-3.8-13.54-3.19-20.66Zm35.5,17.53c-.14-6.22-3.19-15.91,3.17-20.61-2.37,7.34,2.63,14.88-1.61,20.85,1.16-3.38,1.16-7.05,0-10.43-.65,.83,.27,3.06,.27,4.17,.34,.72-1.82,8.37-1.84,6.02Zm76.75,.18c-1.53-.35-3.1-.51-4.67-.49-1.36-.27,1.66-1.44,1.5-2.19-1.01-.67-1.65,1.52-2.49,1.08-.8,.22-1.92,2.3-1.8,.6,.19-2.72-.33-5.12,2.22-6.81,2.08-1.88,2.72-1.65,5.09,0,1.78,1.36,.46,2.04-.52,3.31-.44,.56,0,.64,.37,.38,2.34-3.65,3.72,.26,6.53,.95,2.59,2.06-4.78,3.34-6.23,3.17Zm7.98,25.86c-7.77-3.55-16.47-4.23-23.89-8.88,4.08-1.52,8.88-.61,13.12-1.62-3.55-1.13-7.3,0-10.89-.1,4.64-6.97,13.18-6.47,20.3-8.05-11.22-1.99-17.17,4.67-15.44,.91,0-6.72,2.83-7.09,8.74-6.03,4.83,1.01,8.51-6.52,13.82-3.83,.29,3.57-1.59,4.81,0,8.82,.65,3.02-.16,5.65-2.85,7.02-1.1,1.52-10.02,.48-7.51,1.55,10.13,.95,9.83,.1,5.65,9.6-.19,.59-.38,.91-1.05,.56v.03Zm-17.36-32.51c1.36-3.38,1.03,3.99,.59,5.13,.5,15.93-5.84,17.26-19.85,17.89,6.89-.18,13.61,.88,19.26,5.53,4.87,3.73,11.72,2.87,17.21,4.93-5.45,1.63-16.25,.26-23.45,1.8-7.95,1.21-18.12-1.36-20.42-9.87-1.16-13.82,23.14-6.49,26.67-25.4Zm-45.6,51.35c-.33-1.57,2.27-2.15,2.72-.78,.25,.83-2.91,3.09-2.72,.78Zm1.55,1.58c1.16-.38,.97,1.92,2.18,1.99-1.16-3.36,.37-5.27,3.84-3.12,1.05,.45,1.73,1.95,2.72,2.15-.15-1.47-2.18-2.08-2.57-3.24,3.7-.3,5.45,2.6,7.62,4.86-.85-2.13-2.26-3.98-4.08-5.36,3.81-.07,8.03,2.85,8.17,6.68,.14,1.96,1.52,1.62,1.61,2.83-4.98,1.42-10.33,.63-14.67-2.18-.95-.75-1.13-.18-.65,.48,1.61,2.16,4.17,2.4,6.52,3.27,1.69,.37,7.09,4.32,5.73,5.45-5.89,.14-16.34,3.73-18.83-3.93-.44-3.08-.45-8.14,2.42-9.87Zm-38.76-15.33c3.01,2.12,4.72,5.57,7.66,7.68-.83-2.08-5.87-5.99-5.36-7.51,6.98,2.85,9.45,10.79,15.61,14.88,1.86,1.88-4.33-1.08-5.08-1.36-3.3-1.68-6.26-3.95-8.75-6.68-1.82-2.03-3.21-4.41-4.08-7Zm3.62,18.88c-3.85-2.12-9.53-1.69-12.81-5.34,3.56,.21,7.14-.13,10.6-.99,7.06-.25,8.85,9.07,14.46,11.73-5.25,1.5-8.32-2.72-12.21-5.4h-.04Zm-16.48,3.16c3.55,3.92,8.82,5.27,14.06,5.19-2.27-1.63-5.79-1.05-8.37-2.16-3.12-1.62-5.7-4.22-4.76-7.94,.11-.45,.56-.25,.65,0,1.12,2.29,8.06,6.04,5.15,4.17-2.1-1.36-5.02-3.8-4.33-6.92,2.32,1.99,5.15,3.29,8.17,3.77,7.23,.98,11.45,7.77,18,10.35-9.84,1.84-23.33,4.7-28.56-6.45Zm4.72-9.53c-3.57-.69-2.23-1.03-4.23,1.86-2.25-3.13,3.09-4.48,4.21-1.89l.03,.03Zm-27.57,5.17c.54-.64-.52-.99-.91-1.36-3.66-3.76-5.96-7.79-5.76-13.16,3.08,8.93,13.88,12.67,13.68,22.96-7.32-5.28-20.83-13.76-14.97-24.2-.15,6.77,2.65,11.64,7.96,15.76Zm-24.37-25.96c4.07,.46,8.16,.68,12.25,.67-4.55,2.35-9.95-1.57-13.82,2.12l-.22-.16h0l.25,.19c.78,.63,7.54,2.25,11.33,.87-6.21,3.58-15.71-2.22-22.46-2.52-2.9-1.67,11.24-1.52,12.67-1.17Z"/><path class="cls-1" d="M112.59,74.55s-.11,.07,0,.1,.03-.05,0-.1Z"/><path class="cls-1" d="M172.34,90.68h-.1c-.34,2.29,.53,1.62,0,0h.1Z"/><path class="cls-1" d="M217.06,80.85c.45-.22,.57,.25,0,0-.04,.04-.04,.01,0,0Z"/><path class="cls-1" d="M208.39,88.99c.1,0,.11,.2,0,.07s-.1-.12,0-.07Z"/><path class="cls-1" d="M100.47,62.89c.07-.38-.26,0-.15,0,.03,.04,.09,.05,.13,.02,0,0,.01-.01,.02-.02Z"/><path class="cls-1" d="M125.99,112.52s-.1-.11-.08-.15,.05,.16,.08,.15Z"/><path class="cls-1" d="M165.02,80.03s-.19,.41-.3,.33,.3-.49,.3-.33Z"/></g><g><path class="cls-1" d="M25.81,34.73v2.86H4.21v-2.28l12.8-12.72c3.48-3.48,4.14-5.58,4.14-7.72,0-3.62-2.51-5.85-7.21-5.85-3.61,0-6.38,1.12-8.4,3.48l-2.24-1.96c2.38-2.86,6.2-4.46,10.91-4.46,6.25,0,10.21,3.21,10.21,8.43,0,2.99-.92,5.67-5.06,9.77l-10.47,10.44H25.81Z"/><path class="cls-1" d="M55.06,28.4c0,5.31-3.65,9.46-11.17,9.46-4.44,0-8.67-1.56-11.04-4.02l1.54-2.54c1.98,2.1,5.5,3.62,9.46,3.62,5.24,0,8.01-2.59,8.01-6.38,0-4.02-2.46-6.52-10.29-6.52h-6.55l1.58-15.67h16.85v2.86h-14.08l-1.06,9.95h3.96c9.28,0,12.8,3.7,12.8,9.24Z"/><path class="cls-1" d="M63.51,35.36c0-1.38,1.06-2.41,2.33-2.41s2.38,1.03,2.38,2.41-1.1,2.46-2.38,2.46-2.33-1.07-2.33-2.46Z"/><path class="cls-1" d="M76.71,21.97c0-9.95,5.15-15.89,12.27-15.89s12.32,5.94,12.32,15.89-5.19,15.89-12.32,15.89-12.27-5.94-12.27-15.89Zm21.34,0c0-8.35-3.7-12.94-9.06-12.94s-9.06,4.6-9.06,12.94,3.7,12.94,9.06,12.94,9.06-4.6,9.06-12.94Z"/><path class="cls-1" d="M130.15,28.62c0,5.22-3.74,9.24-11.17,9.24-4.44,0-8.71-1.56-11.09-4.02l1.54-2.54c1.98,2.1,5.54,3.62,9.55,3.62,5.1,0,7.92-2.41,7.92-6.29s-2.6-6.2-8.31-6.2h-2.2v-2.37l8.53-10.85h-15.75v-2.86h19.8v2.28l-8.71,11.11c6.6,.36,9.9,3.88,9.9,8.88Z"/><path class="cls-1" d="M139.04,35.36c0-1.38,1.06-2.41,2.33-2.41s2.38,1.03,2.38,2.41-1.1,2.46-2.38,2.46-2.33-1.07-2.33-2.46Z"/><path class="cls-1" d="M174.19,34.73v2.86h-21.6v-2.28l12.8-12.72c3.48-3.48,4.14-5.58,4.14-7.72,0-3.62-2.51-5.85-7.21-5.85-3.61,0-6.38,1.12-8.4,3.48l-2.24-1.96c2.38-2.86,6.2-4.46,10.91-4.46,6.25,0,10.21,3.21,10.21,8.43,0,2.99-.92,5.67-5.06,9.77l-10.47,10.44h16.94Z"/><path class="cls-1" d="M182.37,21.97c0-9.95,5.15-15.89,12.27-15.89s12.32,5.94,12.32,15.89-5.19,15.89-12.32,15.89-12.27-5.94-12.27-15.89Zm21.34,0c0-8.35-3.7-12.94-9.06-12.94s-9.06,4.6-9.06,12.94,3.7,12.94,9.06,12.94,9.06-4.6,9.06-12.94Z"/><path class="cls-1" d="M236.82,34.73v2.86h-21.6v-2.28l12.8-12.72c3.48-3.48,4.14-5.58,4.14-7.72,0-3.62-2.51-5.85-7.21-5.85-3.61,0-6.38,1.12-8.4,3.48l-2.24-1.96c2.38-2.86,6.2-4.46,10.91-4.46,6.25,0,10.21,3.21,10.21,8.43,0,2.99-.92,5.67-5.06,9.77l-10.47,10.44h16.94Z"/><path class="cls-1" d="M265.55,28.62c0,5.22-3.74,9.24-11.17,9.24-4.44,0-8.71-1.56-11.09-4.02l1.54-2.54c1.98,2.1,5.54,3.62,9.55,3.62,5.1,0,7.92-2.41,7.92-6.29s-2.6-6.2-8.31-6.2h-2.2v-2.37l8.53-10.85h-15.75v-2.86h19.8v2.28l-8.71,11.11c6.6,.36,9.9,3.88,9.9,8.88Z"/></g></svg>