<svg width="249" height="233" viewBox="0 0 249 233" fill="none" xmlns="http://www.w3.org/2000/svg">
<path d="M207.682 44.9232L134.489 2.61384C128.462 -0.866723 120.981 -0.866723 114.96 2.61384L41.7678 44.9232C35.7406 48.4038 32 54.8951 32 61.8562V146.475C32 153.443 35.7406 159.927 41.7678 163.408L114.96 205.717C117.829 207.378 121.034 208.238 124.252 208.311V206.127C121.41 206.055 118.582 205.3 116.044 203.831L42.8517 161.535C37.4985 158.438 34.1743 152.675 34.1743 146.481V61.8562C34.1743 55.6626 37.4985 49.8992 42.8517 46.8024L116.044 4.49308C118.721 2.94469 121.721 2.1705 124.721 2.1705C127.722 2.1705 130.722 2.94469 133.399 4.49308L206.591 46.8024C211.079 49.3963 214.139 53.876 215.011 58.905H217.212C216.319 53.1018 212.843 47.9075 207.682 44.9232V44.9232Z" fill="#FBFAF9"/>
<path d="M156.886 221.095C162.881 216.304 162.676 208.84 159.147 202.488C167.956 205.181 167.685 216.417 177.017 217.773C181.954 218.581 188.397 216.86 193.585 214.703C194.53 213.578 202.302 213.095 200.015 211.143C189.342 204.208 175.867 215.179 166.549 205.81C161.896 202.117 159.279 199.954 153.655 198.968C153.271 198.895 153.067 198.756 153.523 198.418C164.15 187.077 179.211 190.988 192.957 190.842C194.894 190.908 195.429 192.946 197.464 192.814C199.718 193.535 200.472 196.281 202.633 197.439C205.864 199.027 208.6 197.313 211.865 196.341C221.521 193.84 221.468 182.068 226.755 175.464C228.678 171.99 217.866 180.539 220.741 176.926C221.501 176.079 224.217 171.811 222.347 172.023C217.443 175.067 211.528 172.777 206.492 175.087C202.249 177.065 202.157 183.338 199.097 185.806C196.83 186.217 195.37 188.639 193.156 189.426C184.425 189.591 175.801 188.261 167.09 188.328C187.531 164.969 198.026 182.802 218.362 165.863C218.818 165.525 219.683 165.088 219.34 164.387C216.062 164.963 211.911 167.563 208.019 167.464C198.073 166.041 189.422 173.141 180.691 176.093C178.887 176.721 184.035 171.719 183.983 171.136C191.702 157.413 208.158 150.921 222.915 149.863C224.442 151.438 226.616 151.067 227.977 153.065C230.317 157.71 236.76 160.562 240.765 155.745C243.032 153.045 246.052 150.452 246.495 146.885C246.568 145.237 247.447 143.729 248.841 142.855C250.13 141.208 242.946 142.002 241.843 142.458C240.389 143.14 243.607 138.68 243.601 138.051C244.023 137.211 244.46 134.743 243.415 135.272C242.503 135.848 241.36 135.927 240.375 135.477C233.813 131.884 228.618 138.018 226.728 143.623C224.151 147.5 220.179 149.168 215.612 149.426C209.208 150.114 203.498 153.052 197.623 155.461C205.963 146.422 207.781 134.286 211.495 123.176C212.4 121.39 214.958 122.078 216.623 122.084C225.902 122.329 231.956 113.376 235.538 105.846C237.957 98.8916 244.519 91.7915 246.112 85.6906C244.44 85.5318 243.158 82.0777 242.801 80.8999C242.206 77.3532 239.007 78.3722 238.109 76.4731C237.547 69.4987 229.167 70.7229 226.028 66.4747C223.847 62.5839 221.276 67.6526 220.668 69.7568C220.007 71.1 218.176 70.081 216.518 71.2721C211.825 73.8461 205.54 73.6542 207.668 81.0124C202.044 78.4383 212.546 90.3292 211.303 93.1679C212.077 102.114 205.983 110.551 209.949 119.424C210.927 122.647 208.257 126.266 207.721 129.489C206.677 132.374 206.281 135.854 204.681 138.342C203.333 128.9 205.197 124.301 197.755 116.592C196.533 115.778 193.598 106.223 193.123 109.267C193.037 109.823 193.413 110.021 193.446 109.353C195.343 115.659 204.034 122.997 203.399 131.302C202.461 127.755 200.901 124.414 198.786 121.416C199.692 124.347 201.899 127.497 202.011 130.508C197.894 125.71 195.251 119.821 194.411 113.555C194.239 112.595 194.391 110.505 193.314 110.465C191.682 112.033 193.962 121.211 197.735 126.154C213.207 143.292 189.441 158.915 179.859 172.539C178.425 173.929 180.638 169.35 180.724 168.529C185.172 158.107 181.068 145.661 174.188 137.654C169.661 133.274 163.575 133.333 159.57 128.423C158.393 127.365 158.796 129.211 159.021 129.873C160.739 138.389 169.179 140.738 175.655 144.761C189.481 161.826 171.598 183.338 156.582 192.721C156.021 193.37 155.571 192.827 156.186 192.324C163.548 183.563 164.995 173.287 165.048 162.435C165.795 157.982 167.289 154.243 166.377 149.578C165.597 147.97 167.368 140.93 164.817 142.194C153.08 151.146 166.205 164.268 163.257 175.537C160.25 166.756 152.743 162.521 143.794 161.932C141.726 161.793 139.135 160.066 137.424 160.331C137.212 161.84 138.62 162.773 139.935 163.653C152.161 174.306 172.529 168.787 155.452 190.28C149.617 199.252 140.602 203.222 130.802 205.082C131.158 206.154 131.918 207.047 132.916 207.576L134.529 207.279C141.964 206.63 155.479 193.628 158.492 205.929C157.699 215.497 147.006 220.38 144.303 229.419C141.547 238.194 155.082 221.969 156.886 221.108V221.095ZM163.211 162.316C160.131 156.175 159.173 147.719 164.969 142.928C164.83 149.32 166.284 154.806 164.09 161.019C163.145 157.254 164.11 153.045 163.568 149.386C162.484 150.895 163.224 153.959 162.927 155.99C162.927 158.101 163.152 160.245 163.211 162.316V162.316ZM140.384 162.971C139.776 162.567 137.721 160.999 138.924 161.37C145.077 164.109 154.031 162.792 158.301 168.867C154.963 166.915 151.328 165.532 147.535 164.777L147.449 164.903C151.831 166.518 155.836 168.205 159.299 171.401C159.437 171.494 159.642 171.626 159.504 171.838C152.677 169.939 146.008 167.464 140.371 162.971H140.384ZM174.915 142.915C169.615 139.553 159.775 136.701 159.378 128.734C164.216 134.822 173.336 134.835 175.993 141.737C173.805 138.872 170.719 136.82 167.236 135.914C167.566 136.926 169.959 137.396 170.884 138.012C171.677 138.131 176.898 144.225 174.909 142.915H174.915ZM217.886 78.478C216.742 79.5699 215.731 80.8006 214.872 82.1307C213.881 83.1232 214.588 79.9272 213.868 79.6493C212.744 80.1257 214.231 81.8858 213.378 82.3424C213.114 83.1364 214.238 85.2407 212.876 84.1886C210.695 82.5078 208.395 81.6013 208.395 78.5178C207.979 75.7187 208.534 75.3085 211.237 74.2365C213.378 73.4954 213.213 74.9909 213.729 76.5194C213.953 77.1943 214.264 76.8767 214.251 76.4201C212.493 72.4102 216.544 73.4425 218.699 71.4574C221.871 70.4317 218.831 77.3399 217.886 78.4714V78.478ZM244.057 86.22C236.734 90.7725 231.308 97.7072 223.272 101.353C224.27 97.0653 227.706 93.545 229.233 89.416C226.299 91.7717 225.162 95.55 223.08 98.5211C219.815 90.7262 225.003 83.8312 227.647 76.9627C219.723 85.287 221.99 94.0016 219.802 90.4549C214.152 86.6964 215.427 84.1091 219.611 79.7353C223.153 76.2349 218.884 68.9363 224.105 65.9785C227.257 67.732 227.25 70.0016 231.513 70.9082C234.414 72.0463 236.166 74.2034 235.822 77.2274C236.489 79.0074 230.634 85.9156 232.934 84.4135C239.384 76.4268 238.499 76.2018 244.142 85.0223C244.526 85.512 244.698 85.8494 244.024 86.2134L244.043 86.2266L244.057 86.22ZM207.074 82.6534C204.999 79.6228 210.999 84.0099 211.713 85.0289C225.367 93.5053 222.948 99.5798 215.659 111.709C219.353 105.82 223.999 100.758 231.044 98.6005C236.893 96.5889 239.992 90.349 244.784 86.8883C243.118 92.3804 235.934 100.698 233.205 107.613C229.788 114.971 221.95 122.084 213.524 119.272C201.278 112.529 220.985 96.1852 207.067 82.66L207.074 82.6534ZM224.752 149.684C223.252 149.082 224.217 146.574 225.618 146.964C226.451 147.222 226.589 151.14 224.752 149.684ZM226.946 149.261C227.27 148.076 229.094 149.519 229.828 148.539C226.358 147.633 225.611 145.29 229.352 143.57C230.317 142.941 231.949 143.206 232.676 142.485C231.361 141.79 229.709 143.153 228.519 142.835C230.337 139.553 233.74 139.712 236.853 139.143C234.593 138.667 232.247 138.819 230.072 139.58C232.141 136.337 236.945 134.418 240.243 136.443C241.968 137.423 242.457 136.066 243.515 136.675C241.935 141.658 238.28 145.707 233.496 147.798C232.333 148.182 232.716 148.652 233.529 148.612C236.245 148.473 237.864 146.448 239.913 144.953C241.162 143.742 247.493 141.399 247.685 143.173C244.513 148.208 241.704 158.994 233.879 156.804C231.05 155.454 226.794 152.635 226.94 149.254L226.946 149.261ZM192.448 173.287C195.911 171.944 199.758 172.427 203.175 171.13C200.961 170.667 194.874 172.718 193.869 171.441C200.154 167.16 208.204 169.529 215.077 166.624C217.694 166.107 211.759 169.661 211.098 170.131C207.847 171.964 204.291 173.188 200.604 173.757C197.881 174.154 195.105 173.995 192.448 173.28V173.287ZM210.325 180.791C206.393 182.842 203.591 187.858 198.7 188.579C200.868 185.701 202.58 182.505 203.783 179.11C207.516 173.036 216.333 176.734 221.706 173.512C220.034 178.766 214.78 178.984 210.352 180.758L210.332 180.791H210.325ZM203.783 196.414C209.056 195.613 213.127 191.94 215.982 187.487C213.345 188.486 211.872 191.768 209.493 193.317C206.393 195.031 202.765 195.758 200.167 192.887C199.85 192.543 200.273 192.278 200.531 192.337C203.075 192.675 210.101 188.936 206.902 190.339C204.589 191.338 200.908 192.443 198.681 190.114C201.648 189.274 204.318 187.626 206.406 185.35C211.264 179.818 219.32 180.063 225.136 176C221.19 185.304 216.062 198.24 203.783 196.407V196.414ZM198.416 187.117C195.845 189.73 196.301 188.414 197.623 191.715C193.744 191.854 195.588 186.614 198.383 187.123H198.423L198.416 187.117ZM187.379 213.174C187.148 212.361 186.256 213.055 185.727 213.174C180.526 214.154 175.86 213.836 171.459 210.66C180.672 213.062 189.851 206.061 198.377 211.983C189.858 215.193 175.199 221.81 169.694 211.057C175.292 214.961 180.949 215.325 187.373 213.168L187.379 213.174ZM151.983 219.163C154.639 216 157.105 212.685 159.378 209.231C158.816 214.372 152.511 216.721 153.45 222.035L153.192 222.127L153.49 222.028C154.448 221.724 159.583 216.94 160.541 212.989C160.085 220.208 149.914 224.959 145.896 230.471C142.869 231.973 150.886 220.162 151.983 219.163V219.163Z" fill="#CCAD91"/>
<path d="M164.057 161.138C164.057 161.138 164.057 161.271 164.137 161.191C164.216 161.112 164.103 161.138 164.057 161.138Z" fill="#CCAD91"/>
<path d="M223.233 101.36L223.153 101.307L223.233 101.36Z" fill="#CCAD91"/>
<path d="M160.369 209.833L160.409 209.773L160.369 209.833Z" fill="#CCAD91"/>
<path d="M210.94 119.914L210.887 119.993C212.618 121.555 212.546 120.45 210.887 119.993L210.94 119.914Z" fill="#CCAD91"/>
<path d="M227.634 76.8238C227.7 76.3275 228.156 76.4797 227.634 76.8238C227.647 76.8833 227.62 76.8635 227.634 76.8238Z" fill="#CCAD91"/>
<path d="M229.63 88.6618C229.683 88.5821 229.862 88.6818 229.69 88.7017C229.517 88.7216 229.53 88.715 229.63 88.6618Z" fill="#CCAD91"/>
<path d="M237.976 139.216C237.976 139.216 237.997 139.229 237.976 139.216V139.216Z" fill="#CCAD91"/>
<path d="M147.509 164.831C147.224 164.558 147.363 165.05 147.423 164.957C147.476 164.957 147.516 164.904 147.509 164.851C147.509 164.844 147.509 164.837 147.509 164.831Z" fill="#CCAD91"/>
<path d="M203.426 171.09C203.426 171.09 203.28 171.11 203.254 171.077C203.227 171.044 203.42 171.123 203.426 171.09Z" fill="#CCAD91"/>
<path d="M197.914 120.126C197.914 120.126 198.152 120.516 198.02 120.562C197.887 120.609 197.775 120.04 197.914 120.126Z" fill="#CCAD91"/>
</svg>
