<?xml version="1.0" encoding="UTF-8"?><svg id="Layer_1" xmlns="http://www.w3.org/2000/svg" viewBox="0 0 205 40"><defs><style>.cls-1{fill:#6c1d30;}.cls-2{fill:#ccad91;}</style></defs><path class="cls-1" d="M17.31,6.06v5.37h-.45c-.21-4.8-5.81-4.92-5.81-4.92h-.5v15.13c0,1.81,1.13,2.78,2.23,2.78v.45H4.5v-.45c1.1,0,2.23-.97,2.23-2.78V6.52h-.5S.65,6.65,.44,11.43h-.44V6.06H17.31Z"/><path class="cls-1" d="M35.44,9.89v11.35c0,2.19-.21,2.81,1.16,3.2v.45h-5.48v-.45c.71-.26,.64-.99,.64-3.2v-5.1h-6.37v5.1c0,2.19-.11,2.92,.63,3.2v.45h-5.5v-.45c1.4-.38,1.18-.99,1.18-3.2V9.89c0-2.06,.08-3.13-1.18-3.37v-.45h5.5v.45c-.74,.24-.63,1.31-.63,3.37v5.72h6.37v-5.72c0-2.06,.11-3.13-.64-3.37v-.45h5.48v.45c-1.24,.24-1.16,1.31-1.16,3.37Z"/><path class="cls-1" d="M57.37,24.42v.45h-7.52v-.45c2.05,0,.69-2.86,.69-2.86l-.79-1.95h-6.24s-1.63,5.03,2.52,4.8v.45h-6.47v-.45c.63-.05,1.26,.13,3.53-5.27h6.5l-3.35-8.3,1.79-4.8h.45c6.45,15.73,6.68,16.42,6.68,16.42,.9,2.14,1.52,1.9,2.21,1.95Z"/><path class="cls-1" d="M68.97,6.06v.45c-1.2-.04-2.2,.9-2.24,2.09,0,.09,0,.19,0,.29v12.72c0,1.84,1.13,2.8,2.23,2.8v.45h-8.29v-.45c1.11,0,2.24-.97,2.24-2.8V8.89c0-1.65-1.07-2.38-2.24-2.38v-.45h8.29Zm-7.87-.83h.97l6.4-3.42-2.95-.93-4.43,4.36h0Z"/><path class="cls-1" d="M85.78,22.94s-1.07,1.9-4.65,2.16v-.45c2.13-.67,2.53-4.09-.34-6.23l-4.05-2.59c-3.73-2.38-5.13-5.05-2.94-7.96,0,0,1.13-1.76,4.6-2.01v.45c-2.13,.61-2.67,3.73,.4,5.78l4.05,2.73c3.47,2.31,4.92,5.2,2.94,8.12Zm-6.32,1.68v.46c-4.5-.16-6.36-1.63-6.36-1.63v-5.11h.45c.58,1.52,1.9,5.77,5.91,6.28Zm.58-18.28v-.46c3.95,.13,5.95,1.26,5.95,1.26v4.48h-.45c-.47-1.33-1.89-4.83-5.49-5.29h0Z"/><path class="cls-1" d="M108.33,24.42v.45h-7.54v-.45c2.05,0,.68-2.86,.68-2.86l-.79-1.95h-6.22s-1.63,5.02,2.53,4.8v.45h-6.48v-.45c.63-.05,1.26,.13,3.53-5.27h6.5l-3.34-8.31,1.79-4.8h.44c6.45,15.74,6.69,16.44,6.69,16.44,.88,2.14,1.52,1.9,2.2,1.95h0Z"/><path class="cls-1" d="M141.93,6.28v.45c-1.18,0-2.29,.75-2.29,2.46v11.04c0,6.44-3.89,8.69-8.18,9.33l-.11-.45c2.26-.83,4.37-3.08,4.37-8.87v-7.78c0-5.03,0-5.72-2.16-5.72v-.45h8.36Z"/><path class="cls-1" d="M154.21,24.85v.45c-5.24-.4-8.21-4.44-8.21-9.49s2.97-9.3,8.21-9.73v.48c-2.53,.35-3.73,2.62-3.73,9.25s1.21,8.69,3.73,9.04Zm1.65,.45v-.45c2.56-.32,3.73-2.33,3.73-9.04s-1.18-8.9-3.73-9.28v-.45c5.29,.4,8.29,4.7,8.29,9.73s-3,9.11-8.29,9.49Z"/><path class="cls-1" d="M184.38,24.64v.43h-7.52v-.45c2.05,0,.68-2.86,.68-2.86l-.79-1.95h-6.24s-1.63,5.03,2.52,4.8v.46h-6.47v-.45c.63-.05,1.26,.13,3.52-5.27h6.5l-3.34-8.31,1.78-4.8h.45c6.45,15.72,6.68,16.41,6.68,16.41,.9,2.18,1.52,1.94,2.21,1.99Zm-11.03-20.74c-.9-.32-3.26-.19-3.94,1.28l-.4-.16c1.87-4.65,5.05-3.58,5.05-3.58l3.13,1.18c.92,.32,3.29,.08,3.97-1.37l.4,.21c-1.9,4.65-5.05,3.58-5.05,3.58l-3.16-1.15h0Z"/><path class="cls-1" d="M194.95,24.85v.45c-5.23-.4-8.21-4.44-8.21-9.49s2.98-9.3,8.21-9.73v.48c-2.52,.35-3.7,2.62-3.7,9.25s1.18,8.69,3.7,9.04Zm1.66,.45v-.45c2.56-.32,3.73-2.33,3.73-9.04s-1.18-8.9-3.73-9.28v-.45c5.29,.4,8.29,4.7,8.29,9.73s-3,9.11-8.29,9.49Z"/><path class="cls-2" d="M122.28,10.88c1.85,0,2.78,.39,2.78,1.16,0,.19-.06,.37-.2,.5-.43,.74-1.36,1.11-2.8,1.11-1.41,0-2.77-.45-3.89-1.31-1.78,.53-3.86,1.68-6.25,3.42-3.71,2.78-5.56,5.52-5.56,8.2,0,2.99,2,4.65,6,4.98,.79-4.98,3.18-8.71,7.14-11.2,1.28-.82,2.69-1.41,4.17-1.75,1.49-.35,2.5-.59,3.05-.7,.55-.12,1.47-.28,2.78-.5l2.26-.38c3.08-.54,5.05-1.15,5.93-1.81,.88-.67,1.31-1.31,1.31-1.94,0-.18-.03-.36-.07-.53-.04-.2,0-.31,.13-.35,.16-.02,.33,.04,.44,.15,.28,.4,.42,.87,.4,1.35-.1,.75-.45,1.44-.99,1.97-1.14,1.09-2.57,1.83-4.12,2.13-.66,.17-1.55,.36-2.67,.58-1.11,.22-1.92,.4-2.41,.53,.68,.73,1.02,1.7,.95,2.69,0,2.49-1.45,4.92-4.37,7.3-3.2,2.62-7.5,3.93-12.89,3.92-.04,.42-.06,.84-.05,1.26,0,2.35,.77,4.2,2.3,5.56,1.62,1.39,3.7,2.12,5.83,2.04,.79,.01,1.56-.29,2.13-.83,.56-.47,.88-1.16,.9-1.89-.01-.28-.08-.55-.2-.81-.13-.31,0-.45,.38-.45s.57,.44,.57,1.33c-.01,.92-.43,1.79-1.14,2.37-.72,.65-1.65,1-2.62,.99-2.34,.09-4.63-.67-6.45-2.13-1.91-1.48-2.99-3.78-2.93-6.19,0-.57,.02-1.01,.05-1.31-2.87-.26-5.05-1-6.55-2.21-1.35-1.17-2.03-2.47-2.03-3.88,0-3.25,2.45-6.36,7.34-9.31,2.1-1.32,4.34-2.39,6.7-3.17-.95-1.14-1.44-2.6-1.36-4.08-.03-.77,.18-1.52,.6-2.16,1.26-1.71,2.98-3.02,4.96-3.77,2.48-1.14,5.18-1.74,7.91-1.76,3.55,0,5.29,1.12,5.21,3.37-.07,.97-.5,1.88-1.21,2.54-.64,.67-1.52,1.06-2.45,1.07-.9,0-1.34-.24-1.34-.71,0-.33,.21-.5,.64-.5l.84,.15c.57-.05,1.08-.36,1.38-.84,.41-.48,.64-1.08,.67-1.71,0-.9-.51-1.56-1.54-1.97-.61-.22-1.25-.34-1.9-.34-2.78,0-5.09,.59-6.93,1.76-1.65,.97-3.04,2.31-4.07,3.92-.48,.79-.74,1.7-.75,2.62-.05,.74,.16,1.47,.6,2.06,1.11-.34,2.25-.53,3.41-.57h-.02Zm6.77,7.96c0-1.47-.63-2.21-1.88-2.21-.82,.07-1.64,.22-2.43,.45-6.4,2.42-10.12,6.39-11.16,11.93,.73,0,1.46-.05,2.18-.15,4.27-.47,7.66-1.85,10.17-4.13,2.08-1.9,3.13-3.87,3.13-5.89h0Zm-5.48-6.64c0-.3-.44-.45-1.32-.45-.94,0-1.88,.11-2.8,.31,.79,.53,1.72,.81,2.67,.81s1.45-.22,1.45-.66h0Z"/></svg>