<svg xmlns="http://www.w3.org/2000/svg" viewBox="0 0 133.88 61.85"><defs><style>.cls-1{fill:#6c1d30;}</style></defs><g id="Layer_6" data-name="Layer 6"><path class="cls-1" d="M132.3,32c-6.56-2-13.83,2.5-20-.76-6.23-6.82,7.1-9.79,10.48-14l.84-.86a3.27,3.27,0,0,0-.66-2.29c-5.09,5.17-11.12,9-18.91,9-19.92,1.67-8.36-8.47-9.86-20.18,0-1.15,0-2.38-1-2.86-.85.93-.85,3.2-1.59,4.51C88.35,10.18,87.9,16.44,92,21.8c-8-2.75-10.67-16-20.83-12.48-1.79,1,3.18,2.8,3.84,3.92,2.46,2.43,5.38,3,8.34,4.37C90,22,96.76,25.21,105,24.27c.55-.17.7.32.08.4-11.74,5.33-32,7.52-36.76-7.74C68.52,11.38,70.5,5.31,66,.84c-.3-.4-1.26-1.39-1.09-.25,1.36,4.42-1.13,8.08-.3,12.59,2,7.43,8,14.9,16.07,16.4.54.28,4.2.78,2.78,1.09C71.37,31,52.32,39.13,48.18,22.8c-1.47-4.24-6.11-9.32-7.72-9-.42.67.91,1.42,1.43,1.91a23.76,23.76,0,0,1,7.24,11.44c-1.79-1.28-2.8-3.89-4.22-5.62A22.58,22.58,0,0,0,49,28.32c-5.31-3-6.24-11.19-9.29-14.88.42.25.45-.06.08-.23-2-.94,2.56,4.69,2.57,5.76,1.66,7.65,5.2,8.37,10.39,12.94-2.16,0-4.43-1.19-6.59-1.72-2.17-1-5.44-.81-7-2.7-3.78-6-11.36-5.68-16.47-9.75-2.21-.39-5.19-11.55-5.89-7.1-3.6-4.25-6-.36-9.47,1.45-1.4.53-1.51,2.05-2.6,1.91C3.23,13.52-.88,13,.6,15.93c1.3,3.62-2.79,8.21,1.19,11.36.78,1.31-1.13,2.84.78,4.63.61.69,2.16,2.86,1.57,3.94,4.34,1.49,11.3.37,16.49,1.7,6,.86,13.88.79,17.46-4.94.67-1,1.29-2.84,2.73-2.67,8.24,2.27,16.33,6,25.12,4.72C62.1,37.27,58,39.55,55,43.16c-2,2.67-4.57,4.44-8,4.41-4.17-1.1-10-.42-10.44,5a2.35,2.35,0,0,1-1.36,1.76c-.74.42.94,1.15,1.61,1.23.43.26,4.35.1,3.38.71-.71.49-4.1,4.53-2.57,4.41a3.64,3.64,0,0,1,3.38.2c2.35,1.17,5.14.38,7.69.09,4.49-.49,5.4-5.55,3.53-8.84-.67-1.63.44-2.8.09-4.36C59,39.25,69.56,31.88,81,32.72c.33.22,5.44-.89,4.32,0C80,36.76,72.22,39.17,69.06,45.78c-1.51,2.4-4.75,3.87-6.42,5.63.24.44.89.09,1.29,0C82.4,45.84,75.81,32.28,98.22,29.29c-3.56,5.27-6.23,11-9.85,16.26-1.37,1-3.42.94-4.59,2.15-2.73.86-6.56-1.61-9.47.17-3.39,2.17-4.39,6.64-8.26,8.35-.87,1.05,2.8,1.12,3.63,1,3.35-.29-6.19,2.83-3.31,3.06,6.14-.55,13.24,4.22,18.66-.63,1.91-1.59,4-2.56,4.39-5.16.17-1.74-1.2-3.3-.73-5,.91-1.18-.12-2.33.63-3.53,5.63-8.28,9.32-19,20.49-20.93.39-.14.39,0,.28.3-1.68,3.81-1.41,6.27-1.06,10.58C111,45.43,98.9,49.19,98.78,58.48c.26,2.17,3.69-2.35,4.75-2.47,3.39-2.28,7-5.5,8.53-8.82,3-6.23-4-10.59-2.06-17,2.43,4.7,6.87,7.83,12.19,6.12C123.45,35.55,138.74,33.86,132.3,32Zm-52-18.25c-1.36-.64-2.92-2.32-4.27-2.27,2,1.77,5,2.88,6.85,5-4.68-1.17-7.42-4.26-11.34-6.75,5.23-1.59,10,2.4,12.46,6.74C82.79,15.59,81.58,14.59,80.32,13.77Zm11,4.33c-.17,0-.15-.18-.17-.3-.55-3.39.05-6.5.84-9.81l-.11,0A25.09,25.09,0,0,0,90,16.12c-2-5,2.45-9.94,3.26-14.78.27-.88.41,1,.38,1.53C94.07,8.1,92.92,13.14,91.27,18.1ZM66.21,11.33c0-.81.67-2.45.19-3.06a11.89,11.89,0,0,0,0,7.66C63.27,11.54,67,6,65.2.61c4.71,3.45,2.43,10.57,2.34,15.14C67.52,17.48,65.94,11.86,66.21,11.33ZM6.58,13.59c2.06-.51,3.07-3.38,4.8-.7.27.19.59.13.27-.28-.72-.93-1.69-1.47-.39-2.43,1.71-1.24,2.21-1.41,3.75,0,1.86,1.23,1.48,2.95,1.63,5,.09,1.25-.74-.28-1.32-.44-.63.33-1.09-1.28-1.83-.79-.12.55,2.11,1.41,1.09,1.61a14.76,14.76,0,0,0-3.43.36C10.08,16,4.67,15.06,6.58,13.59Zm-2,20.84c-3.06-7-3.29-6.35,4.16-7,1.84-.79-4.72,0-5.52-1.14-2-1-2.57-2.94-2.09-5.16,1.14-2.95-.24-3.86,0-6.48,3.9-2,6.59,3.55,10.15,2.81,4.33-.78,6.43-.51,6.41,4.43,1.28,2.76-3.1-2.13-11.34-.67,5.23,1.16,11.51.79,14.91,5.91-2.64.05-5.4-.76-8,.07,3.12.74,6.68.07,9.63,1.19C17.4,31.75,11,32.25,5.3,34.86,4.81,35.12,4.67,34.88,4.55,34.43Zm33.13-4.78c-1.73,6.24-9.21,8.14-15,7.25-5.28-1.13-13.18-.12-17.22-1.32,4-1.51,9.05-.88,12.63-3.62,4.13-3.41,9.1-4.19,14.16-4.06-10.3-.46-15-1.44-14.59-13.14C17.28,13.92,17,8.51,18,11,20.63,24.89,38.49,19.51,37.68,29.65Zm11.84,18.5c.36-1,2.27-.58,2,.57C51.68,50.42,49.37,48.76,49.52,48.15Zm2.62,9c-1.86,5.63-9.5,3-13.83,2.89-1-.87,3-3.77,4.21-4,1.73-.64,3.62-.81,4.79-2.4.36-.48.23-.9-.48-.35a13.16,13.16,0,0,1-10.74,1.6c0-.89,1.08-.64,1.17-2.08.12-2.82,3.23-5,6-4.91a9.21,9.21,0,0,0-3,3.94c1.63-1.66,2.88-3.79,5.59-3.57-.28.85-1.77,1.3-1.89,2.38.7-.15,1.21-1.25,2-1.58,2.54-1.58,3.67-.18,2.82,2.29.89-.05.74-1.74,1.6-1.46C52.51,51.15,52.51,54.87,52.14,57.17ZM75.83,43.76a22.32,22.32,0,0,1-6.42,4.87c-.55.25-5.1,2.42-3.72,1,4.53-3,6.34-8.84,11.47-10.93.36,1.12-3.33,4-4,5.52,2.17-1.55,3.43-4.08,5.63-5.64A14.57,14.57,0,0,1,75.83,43.76Zm-8.65,12.7c4.12-2,5.44-8.8,10.63-8.62a25.73,25.73,0,0,0,7.78.73c-2.38,2.68-6.57,2.36-9.4,3.92C73.33,54.46,71.08,57.56,67.18,56.46Zm.19,3.07c4.81-1.89,7.92-6.88,13.22-7.6a12.16,12.16,0,0,0,6-2.77c.51,2.29-1.63,4.09-3.17,5.08-2.14,1.38,3-1.38,3.77-3.06.08-.16.4-.31.49,0,.68,2.73-1.21,4.64-3.5,5.83-1.91.82-4.48.39-6.16,1.59,3.86.06,7.73-.93,10.34-3.81C84.49,63,74.57,60.9,67.37,59.53ZM88,49.16c-1.48-2.13-.5-1.88-3.11-1.37C85.69,45.89,89.61,46.88,88,49.16ZM111,40c4.31,7.67-5.61,13.9-11,17.78-.16-7.56,7.78-10.31,10.05-16.87.15,4-1.54,6.91-4.24,9.67-.29.3-1.07.56-.67,1C109,48.58,111.07,45,111,40Zm21.4-6.61c-5,.22-11.94,4.48-16.51,1.85,2.79,1,7.76-.18,8.33-.64l.18-.14h0s0,0,0,0l-.15.12c-2.85-2.71-6.82.17-10.15-1.56a77.69,77.69,0,0,0,9-.49C124.06,32.28,134.45,32.17,132.35,33.39Z"/><path class="cls-1" d="M83,16.51s.08,0,.05.06S83,16.53,83,16.51Z"/><path class="cls-1" d="M84.07,16.5l0,0Z"/><path class="cls-1" d="M92,21.8s0,0,0,0Z"/><path class="cls-1" d="M22.86,28.34s0-.07,0-.07S22.88,28.34,22.86,28.34Z"/><path class="cls-1" d="M114,33.87s0,0,0,0Z"/><path class="cls-1" d="M39.08,28.35l.06,0c.26,1.68-.38,1.19,0,0Z"/><path class="cls-1" d="M6.23,21.13c-.33-.16-.42.18,0,0A0,0,0,0,0,6.23,21.13Z"/><path class="cls-1" d="M12.59,27.11c-.07,0-.07.15,0,.05S12.67,27.07,12.59,27.11Z"/><path class="cls-1" d="M39.84,52.53s0,0,0,0S39.86,52.55,39.84,52.53Z"/><path class="cls-1" d="M91.83,7.94c0-.28.2,0,.12,0A.07.07,0,0,1,91.83,7.94Z"/><path class="cls-1" d="M73.12,44.4s.07-.08.06-.11S73.14,44.41,73.12,44.4Z"/><path class="cls-1" d="M44.46,20.53s.14.3.21.24S44.46,20.41,44.46,20.53Z"/></g></svg>