<svg xmlns="http://www.w3.org/2000/svg" viewBox="0 0 133.88 61.85"><defs><style>.cls-1{fill:#6c1d30;}</style></defs><g id="Layer_6" data-name="Layer 6"><path class="cls-1" d="M11.68,36.29C17,38,21.44,34.87,23.87,30.17c1.92,6.43-5,10.79-2.06,17,1.5,3.32,5.14,6.54,8.54,8.82,1.06.12,4.49,4.64,4.75,2.47C35,49.19,22.92,45.43,24.84,36c.36-4.31.62-6.77-1.05-10.58-.11-.26-.11-.44.28-.3C35.23,27,38.93,37.72,44.56,46c.74,1.2-.28,2.35.62,3.53.47,1.66-.89,3.22-.72,5,.34,2.6,2.48,3.57,4.39,5.16,5.41,4.85,12.52.08,18.66.63,2.88-.23-6.66-3.35-3.31-3.06.82.12,4.5.05,3.62-1C64,54.51,63,50,59.57,47.87c-2.91-1.78-6.75.69-9.48-.17-1.16-1.21-3.22-1.12-4.59-2.15-3.62-5.23-6.29-11-9.84-16.26,22.4,3,15.82,16.55,34.29,22.07.39.14,1,.49,1.29,0-1.67-1.76-4.92-3.23-6.43-5.63-3.15-6.61-10.94-9-16.25-13.11-1.11-.84,4,.27,4.33,0,11.43-.84,22,6.53,28.59,15.06-.34,1.56.76,2.73.1,4.36-1.87,3.29-1,8.35,3.53,8.84,2.55.29,5.34,1.08,7.68-.09a3.66,3.66,0,0,1,3.39-.2c1.52.12-1.86-3.92-2.58-4.41-1-.61,3-.45,3.38-.71.68-.08,2.35-.81,1.61-1.23a2.33,2.33,0,0,1-1.35-1.76c-.47-5.43-6.28-6.11-10.44-5-3.39,0-6-1.74-8-4.41-3-3.61-7.08-5.89-10.91-8.49C76.73,36,84.82,32.22,93.05,30c1.45-.17,2.06,1.66,2.73,2.67,3.59,5.73,11.46,5.8,17.47,4.94,5.19-1.33,12.14-.21,16.48-1.7-.58-1.08,1-3.25,1.57-3.94,1.91-1.79,0-3.32.79-4.63,4-3.15-.12-7.74,1.19-11.36,1.48-2.89-2.63-2.41-4.15-1.93-1.08.14-1.2-1.38-2.59-1.91-3.45-1.81-5.87-5.7-9.47-1.45-.71-4.45-3.68,6.71-5.9,7.1-5.11,4.07-12.68,3.77-16.46,9.75-1.56,1.89-4.83,1.73-7,2.7-2.17.53-4.44,1.69-6.59,1.72C86.3,27.34,89.84,26.62,91.51,19c0-1.07,4.61-6.7,2.57-5.76-.37.17-.34.48.08.23-3.06,3.69-4,11.92-9.29,14.88A22.35,22.35,0,0,0,89,21.57c-1.41,1.73-2.43,4.34-4.21,5.62A23.76,23.76,0,0,1,92,15.75c.51-.49,1.84-1.24,1.43-1.91-1.61-.36-6.25,4.72-7.73,9C81.55,39.13,62.5,31,50.38,30.67c-1.42-.31,2.25-.81,2.78-1.09,8.11-1.5,14-9,16.08-16.4C70.07,8.67,67.58,5,68.94.59c.17-1.14-.79-.15-1.1.25-4.47,4.47-2.49,10.54-2.32,16.09C60.75,32.19,40.5,30,28.76,24.67c-.62-.08-.47-.57.08-.4,8.28.94,15.09-2.32,21.69-6.66,3-1.34,5.87-1.94,8.33-4.37.66-1.12,5.64-2.88,3.85-3.92C52.55,5.8,49.89,19.05,41.87,21.8c4.11-5.36,3.65-11.62.4-17.29C41.52,3.2,41.52.93,40.67,0c-1,.48-1,1.71-1,2.86C38.14,14.57,49.7,24.71,29.79,23c-7.79.07-13.83-3.8-18.91-9a3.2,3.2,0,0,0-.66,2.29l.83.86c3.39,4.25,16.72,7.22,10.48,14C15.41,34.52,8.14,30,1.57,32-4.86,33.86,10.43,35.54,11.68,36.29ZM49.86,16.46c2.48-4.34,7.22-8.33,12.46-6.74C58.39,12.21,55.65,15.3,51,16.47c1.9-2.09,4.84-3.2,6.84-5-1.35-.05-2.91,1.63-4.26,2.27C52.3,14.59,51.09,15.59,49.86,16.46ZM40.26,2.87c0-.53.12-2.41.38-1.53.82,4.84,5.23,9.74,3.27,14.78a25.35,25.35,0,0,0-1.86-8.18l-.11,0c.79,3.31,1.38,6.42.84,9.81,0,.12,0,.3-.18.3C41,13.14,39.81,8.1,40.26,2.87ZM66.34,15.75C66.24,11.18,64,4.06,68.67.61,66.93,6,70.6,11.54,67.49,15.93a11.76,11.76,0,0,0,0-7.66c-.48.61.2,2.25.2,3.06C67.94,11.86,66.35,17.48,66.34,15.75Zm56.38.13a14.7,14.7,0,0,0-3.43-.36c-1-.2,1.22-1.06,1.1-1.61-.74-.49-1.21,1.12-1.83.79-.59.16-1.41,1.69-1.32.44.14-2-.24-3.76,1.63-5,1.53-1.38,2-1.21,3.74,0,1.31,1,.34,1.5-.38,2.43-.32.41,0,.47.27.28,1.72-2.68,2.73.19,4.8.7C129.2,15.06,123.79,16,122.72,15.88Zm5.86,19c-5.71-2.61-12.1-3.11-17.55-6.52,3-1.12,6.52-.45,9.64-1.19-2.61-.83-5.36,0-8-.07,3.41-5.12,9.68-4.75,14.91-5.91-8.24-1.46-12.61,3.43-11.34.67,0-4.94,2.08-5.21,6.42-4.43,3.55.74,6.25-4.79,10.15-2.81.21,2.62-1.17,3.53,0,6.48.48,2.22-.12,4.15-2.09,5.16-.81,1.12-7.36.35-5.52,1.14,7.44.7,7.22.07,4.15,7.05C129.21,34.88,129.07,35.12,128.58,34.86ZM115.83,11c1-2.48.76,2.93.43,3.77.37,11.7-4.29,12.68-14.58,13.14,5.06-.13,10,.65,14.15,4.06,3.58,2.74,8.61,2.11,12.64,3.62-4,1.2-11.94.19-17.23,1.32-5.84.89-13.31-1-15-7.25C95.39,19.51,113.24,24.89,115.83,11ZM82.33,48.72c-.24-1.15,1.67-1.58,2-.57C84.51,48.76,82.19,50.42,82.33,48.72Zm1.14,1.16c.85-.28.71,1.41,1.6,1.46-.85-2.47.27-3.87,2.82-2.29.77.33,1.27,1.43,2,1.58-.11-1.08-1.6-1.53-1.89-2.38,2.72-.22,4,1.91,5.6,3.57a9.21,9.21,0,0,0-3-3.94c2.8-.05,5.9,2.09,6,4.91.1,1.44,1.12,1.19,1.18,2.08A13.19,13.19,0,0,1,87,53.27c-.7-.55-.83-.13-.48.35,1.18,1.59,3.06,1.76,4.79,2.4,1.24.27,5.21,3.17,4.21,4-4.33.1-12,2.74-13.83-2.89C81.37,54.87,81.36,51.15,83.47,49.88ZM55,38.62c2.21,1.56,3.47,4.09,5.63,5.64-.61-1.53-4.31-4.4-3.94-5.52,5.13,2.09,6.94,7.93,11.47,10.93,1.37,1.38-3.18-.79-3.73-1A22.6,22.6,0,0,1,58,43.76,14.72,14.72,0,0,1,55,38.62Zm2.66,13.87c-2.83-1.56-7-1.24-9.41-3.92a25.8,25.8,0,0,0,7.79-.73c5.19-.18,6.5,6.66,10.62,8.62C62.8,57.56,60.55,54.46,57.69,52.49ZM45.55,54.81c2.61,2.88,6.48,3.87,10.33,3.81-1.67-1.2-4.25-.77-6.15-1.59-2.29-1.19-4.19-3.1-3.5-5.83.08-.33.41-.18.48,0,.82,1.68,5.92,4.44,3.78,3.06-1.54-1-3.69-2.79-3.18-5.08a12.16,12.16,0,0,0,6,2.77c5.31.72,8.41,5.71,13.22,7.6C59.3,60.9,49.39,63,45.55,54.81Zm3.47-7c-2.62-.51-1.64-.76-3.11,1.37C44.26,46.88,48.18,45.89,49,47.79ZM28.77,51.61c.4-.47-.38-.73-.67-1-2.69-2.76-4.38-5.72-4.23-9.67,2.26,6.56,10.2,9.31,10.05,16.87-5.38-3.88-15.3-10.11-11-17.78C22.81,45,24.87,48.58,28.77,51.61ZM10.87,32.54a77.69,77.69,0,0,0,9,.49c-3.34,1.73-7.31-1.15-10.15,1.56l-.16-.12h0l.18.14c.57.46,5.54,1.65,8.32.64-4.56,2.63-11.54-1.63-16.5-1.85C-.57,32.17,9.82,32.28,10.87,32.54Z"/><path class="cls-1" d="M50.91,16.5s-.08.05,0,.07S50.93,16.53,50.91,16.5Z"/><path class="cls-1" d="M49.81,16.5l0,0Z"/><path class="cls-1" d="M41.86,21.8s0,0,0,0Z"/><path class="cls-1" d="M111,28.34s0-.07,0-.07S111,28.34,111,28.34Z"/><path class="cls-1" d="M19.91,33.87s0,0,.05,0Z"/><path class="cls-1" d="M94.8,28.35l-.07,0c-.25,1.68.39,1.19,0,0Z"/><path class="cls-1" d="M127.65,21.13c.33-.16.42.18,0,0C127.62,21.16,127.62,21.14,127.65,21.13Z"/><path class="cls-1" d="M121.28,27.11c.07,0,.08.15,0,.05S121.21,27.07,121.28,27.11Z"/><path class="cls-1" d="M94,52.53s0,0,0,0S94,52.55,94,52.53Z"/><path class="cls-1" d="M42,7.94c.05-.28-.19,0-.11,0A.07.07,0,0,0,42,7.94Z"/><path class="cls-1" d="M60.75,44.4s-.07-.08-.06-.11S60.73,44.41,60.75,44.4Z"/><path class="cls-1" d="M89.42,20.53s-.14.3-.22.24S89.42,20.41,89.42,20.53Z"/></g></svg>