<?xml version="1.0" encoding="utf-8"?>
<!-- Generator: Adobe Illustrator 26.0.1, SVG Export Plug-In . SVG Version: 6.00 Build 0)  -->
<svg version="1.1" id="Layer_1" xmlns="http://www.w3.org/2000/svg" xmlns:xlink="http://www.w3.org/1999/xlink" x="0px" y="0px"
	 viewBox="0 0 130 130" style="enable-background:new 0 0 130 130;" xml:space="preserve">
<style type="text/css">
	.st0{fill:#6C1D30;}
	.st1{enable-background:new    ;}
	.st2{fill:#CCAD91;}
</style>
<g id="Layer_6">
	<path class="st0" d="M75.9,6.2v15.2h-1.3C74,7.9,58.2,7.5,58.2,7.5h-1.4v42.7c0,5.1,3.2,7.8,6.3,7.8v1.3H39.6v-1.3
		c3.1,0,6.3-2.7,6.3-7.8V7.5h-1.4c0,0-15.8,0.4-16.4,13.9h-1.3V6.2H75.9z"/>
	<path class="st0" d="M103.1,58v1.3c-3.3,0-6.5,2.1-6.5,7v31.1c0,18.2-11,24.5-23.1,26.3l-0.3-1.3c6.4-2.3,12.3-8.7,12.3-25.1v-22
		c0-14.2,0-16.2-6.1-16.2V58H103.1z"/>
	<g class="st1">
		<path class="st2" d="M75.6,47.9c2.7,0,4,0.6,4,1.7c0,0.3-0.1,0.5-0.3,0.7c-0.6,1.1-2,1.6-4,1.6c-2.1,0-3.9-0.6-5.6-1.9
			c-2.6,0.8-5.6,2.4-9,4.9c-5.3,4-8,7.9-8,11.7c0,4.3,2.9,6.7,8.6,7.1c1.1-7.1,4.6-12.4,10.3-16c1.9-1.2,3.9-2.1,6-2.6
			c2.1-0.5,3.6-0.8,4.4-1c0.8-0.2,2.1-0.4,4-0.7c1.9-0.3,3-0.5,3.2-0.5c4.4-0.8,7.3-1.6,8.5-2.6c1.3-1,1.9-1.9,1.9-2.7
			c0-0.2,0-0.5-0.1-0.8c-0.1-0.3,0-0.5,0.2-0.5c0.2,0,0.4,0,0.6,0.2c0.4,0.5,0.6,1.2,0.6,1.9c0,0.8-0.5,1.7-1.4,2.8
			c-1.4,1.4-3.4,2.4-5.9,3c-1,0.2-2.2,0.5-3.8,0.8c-1.6,0.3-2.7,0.6-3.5,0.8c0.9,0.9,1.4,2.2,1.4,3.9c0,3.6-2.1,7-6.3,10.4
			c-4.6,3.7-10.8,5.6-18.5,5.6c0,0.4-0.1,1-0.1,1.8c0,3.4,1.1,6,3.3,8c2.2,1.9,5,2.9,8.4,2.9c1.2,0,2.2-0.4,3.1-1.2
			c0.9-0.8,1.3-1.7,1.3-2.7c0-0.3-0.1-0.7-0.3-1.2c-0.2-0.4,0-0.6,0.5-0.6s0.8,0.6,0.8,1.9c0,1.3-0.5,2.4-1.6,3.4
			c-1.1,1-2.4,1.5-3.8,1.5c-3.7,0-6.8-1-9.3-3.1c-2.8-2.3-4.2-5.2-4.2-8.9c0-0.8,0-1.4,0.1-1.9c-4.1-0.4-7.3-1.4-9.4-3.2
			c-2-1.7-2.9-3.5-2.9-5.5c0-4.7,3.5-9.1,10.6-13.3c3.3-2,6.5-3.5,9.6-4.5c-1.3-1.5-2-3.4-2-5.8c0-1.2,0.3-2.3,0.9-3.1
			c1.6-2.3,3.9-4.1,7.1-5.4c3.8-1.7,7.6-2.5,11.4-2.5c5.1,0,7.6,1.6,7.5,4.8c-0.1,1.4-0.7,2.6-1.7,3.6c-1.1,1-2.2,1.5-3.5,1.5
			c-1.3,0-1.9-0.3-1.9-1c0-0.5,0.3-0.7,0.9-0.7l1.2,0.2c0.7,0,1.3-0.4,2-1.2c0.6-0.8,1-1.6,1-2.5c0-1.3-0.7-2.2-2.2-2.8
			c-1-0.3-1.9-0.5-2.7-0.5c-4,0-7.3,0.8-10,2.5c-2.7,1.7-4.6,3.6-5.8,5.6c-0.7,1.2-1.1,2.5-1.1,3.7s0.3,2.3,0.9,3
			C72.6,48.1,74.2,47.9,75.6,47.9z M85.3,59.2c0-2.1-0.9-3.2-2.7-3.2c-0.6,0-1.7,0.2-3.5,0.6c-9.2,3.5-14.5,9.2-16.1,17.1
			c1,0,2.1-0.1,3.1-0.2c6.1-0.7,11-2.6,14.6-5.9C83.8,64.9,85.3,62.1,85.3,59.2z M77.5,49.7c0-0.4-0.6-0.6-1.9-0.6s-2.6,0.1-4,0.4
			c1.2,0.8,2.5,1.2,3.9,1.2C76.8,50.7,77.5,50.4,77.5,49.7z"/>
	</g>
</g>
</svg>
