<svg xmlns="http://www.w3.org/2000/svg" viewBox="0 0 130 130"><defs><style>.cls-1{fill:#6c1d30;}</style></defs><g id="Layer_6" data-name="Layer 6"><path class="cls-1" d="M89.34,58.05a10.22,10.22,0,0,1,.16,1.7c0,3.15-1.35,6.23-4,9.18,0,1.83,0,4,0,6.56v22c0,16.38-6,22.72-12.35,25.06l.3,1.28C85.6,122,96.61,115.64,96.61,97.45V66.28c0-4.83,3.12-7,6.47-7V58.05Z"/><path class="cls-1" d="M82.45,58.08a16.34,16.34,0,0,0-2.88.56l-.15.06v.63a7.88,7.88,0,0,1,3.68.61,5.34,5.34,0,0,0,.05-.69C83.15,58.08,83,58.08,82.45,58.08Z"/><path class="cls-1" d="M63.07,59.35V58.06a5.5,5.5,0,0,1-2.49-.6,26.27,26.27,0,0,0-2.08,1.89Z"/><path class="cls-1" d="M39.64,58.06v1.29h9.87A28.32,28.32,0,0,1,57,52.72a10.36,10.36,0,0,1-.29-2.51V7.49h1.41S74,7.87,74.6,21.38h1.26V6.21H26.92V21.38h1.26C28.78,7.87,44.55,7.49,44.55,7.49H46V50.21C46,55.34,42.76,58.06,39.64,58.06Z"/><path class="cls-1" d="M75.49,47.86c2.66,0,4,.56,4,1.66a1,1,0,0,1-.28.72q-.93,1.59-4,1.59A9,9,0,0,1,69.6,50a31.33,31.33,0,0,0-8.95,4.9q-7.95,6-7.95,11.75,0,6.42,8.59,7.13,1.71-10.66,10.23-16a18.65,18.65,0,0,1,6-2.56c2.13-.51,3.59-.84,4.37-1s2.11-.41,4-.72l3.23-.54q6.6-1.15,8.49-2.6c1.25-1,1.88-1.87,1.88-2.73a3.48,3.48,0,0,0-.11-.8c-.07-.29,0-.45.18-.5a.74.74,0,0,1,.64.21,3.26,3.26,0,0,1,.57,1.95,4.78,4.78,0,0,1-1.42,2.81,11.8,11.8,0,0,1-5.9,3c-1,.24-2.21.51-3.8.83s-2.73.56-3.44.75a5.16,5.16,0,0,1,1.35,3.89q0,5.34-6.25,10.45-6.9,5.63-18.47,5.62a15.92,15.92,0,0,0-.07,1.81,10.09,10.09,0,0,0,3.3,8,12.18,12.18,0,0,0,8.35,2.92,4.33,4.33,0,0,0,3-1.19,3.64,3.64,0,0,0,1.28-2.71,3.09,3.09,0,0,0-.28-1.15c-.19-.43,0-.65.53-.65s.82.64.82,1.91a4.47,4.47,0,0,1-1.64,3.39,5.46,5.46,0,0,1-3.76,1.48,13.88,13.88,0,0,1-9.23-3.1,10.83,10.83,0,0,1-4.19-8.86A17.87,17.87,0,0,1,61,75.75q-6.18-.57-9.38-3.17A7.3,7.3,0,0,1,48.72,67q0-7,10.51-13.33a44.09,44.09,0,0,1,9.59-4.54,8.43,8.43,0,0,1-2-5.84,5.3,5.3,0,0,1,.85-3.1,15.94,15.94,0,0,1,7.1-5.4A27.51,27.51,0,0,1,86.15,32.3q7.59,0,7.45,4.83a5.39,5.39,0,0,1-1.74,3.63,4.9,4.9,0,0,1-3.51,1.55c-1.28,0-1.92-.33-1.92-1,0-.48.31-.72.92-.72l1.21.21a2.6,2.6,0,0,0,2-1.22,4,4,0,0,0,1-2.45,2.93,2.93,0,0,0-2.2-2.81,8,8,0,0,0-2.7-.51,18.25,18.25,0,0,0-9.94,2.52A17.57,17.57,0,0,0,70.81,42a7.3,7.3,0,0,0-1.07,3.75,4.54,4.54,0,0,0,.85,3A18.09,18.09,0,0,1,75.49,47.86Zm9.66,11.39c0-2.11-.9-3.17-2.7-3.17a18.33,18.33,0,0,0-3.48.65Q65.28,61.92,63,73.81a23.41,23.41,0,0,0,3.13-.22q9.16-1,14.56-5.91Q85.15,63.57,85.15,59.25Zm-7.81-9.51c0-.44-.63-.65-1.88-.65a20,20,0,0,0-4,.43,6.88,6.88,0,0,0,3.83,1.15C76.65,50.67,77.34,50.36,77.34,49.74Z"/></g></svg>