<svg width="205" height="40" viewBox="0 0 205 40" fill="none" xmlns="http://www.w3.org/2000/svg">
<path d="M17.3086 6.06027V11.4318H16.8603C16.6525 6.63084 11.0487 6.51673 11.0487 6.51673H10.5474V21.645C10.5474 23.4586 11.6763 24.4245 12.7808 24.4245V24.8768H4.49935V24.4245C5.60381 24.4245 6.73272 23.4586 6.73272 21.645V6.51673H6.23144C6.23144 6.51673 0.65208 6.65122 0.444229 11.4318H0V6.06027H17.3086Z" fill="#6C1D30"/>
<path d="M35.4365 9.88716V21.2415C35.4365 23.4341 35.2246 24.0536 36.594 24.4408V24.8932H31.1165V24.4408C31.8297 24.1759 31.7523 23.4504 31.7523 21.2415V16.139H25.3863V21.2415C25.3863 23.4341 25.2804 24.1596 26.014 24.4408V24.8932H20.5161V24.4408C21.914 24.0658 21.698 23.4504 21.698 21.2415V9.88716C21.698 7.82904 21.7795 6.75718 20.5161 6.51673V6.06435H26.014V6.51673C25.2763 6.75718 25.3863 7.82904 25.3863 9.88716V15.6051H31.7523V9.88716C31.7523 7.82904 31.8582 6.75718 31.1165 6.51673V6.06435H36.594V6.51673C35.355 6.75718 35.4365 7.82904 35.4365 9.88716Z" fill="#6C1D30"/>
<path d="M57.3708 24.4244V24.8768H49.8474V24.4244C51.9015 24.4244 50.5362 21.5675 50.5362 21.5675L49.7455 19.6153H43.51C43.51 19.6153 41.8798 24.6404 46.0328 24.4163V24.8686H39.5649V24.4163C40.1926 24.3633 40.8243 24.5508 43.0902 19.1507H49.5947L46.2447 10.8489L48.0298 6.04799H48.4781C54.9255 21.7794 55.1619 22.4722 55.1619 22.4722C56.0585 24.6119 56.6861 24.3714 57.3708 24.4244Z" fill="#6C1D30"/>
<path d="M68.9697 6.06028V6.51266C67.7715 6.47191 66.7689 7.40928 66.7282 8.60747C66.7282 8.70121 66.7282 8.79494 66.7363 8.89276V21.6165C66.7363 23.4545 67.8652 24.4204 68.9697 24.4204V24.8728H60.6842V24.4204C61.7927 24.4204 62.9257 23.4545 62.9257 21.6165V8.89276C62.9257 7.2381 61.8579 6.51266 60.6842 6.51266V6.06028H68.9697ZM61.104 5.23296H62.078L68.4766 1.80954L65.5259 0.876251L61.0999 5.23296H61.104Z" fill="#6C1D30"/>
<path d="M85.7771 22.9369C85.7771 22.9369 84.7093 24.8361 81.1228 25.101V24.6486C83.2543 23.9803 83.6496 20.5568 80.7805 18.4213L76.7294 15.8293C72.9963 13.4492 71.5984 10.7797 73.7869 7.86574C73.7869 7.86574 74.9158 6.10105 78.3882 5.8606V6.31298C76.2567 6.9243 75.7228 10.0461 78.7835 12.088L82.8345 14.8145C86.3069 17.1293 87.7496 20.0148 85.7771 22.9369ZM79.456 24.612V25.0725C74.9607 24.9135 73.0941 23.4423 73.0941 23.4423V18.3316H73.5424C74.1252 19.8559 75.4416 24.1066 79.456 24.612ZM80.0387 6.32928V5.86875C83.9838 6.00324 85.9849 7.12808 85.9849 7.12808V11.6111H85.5366C85.0679 10.2825 83.6496 6.77758 80.0428 6.3252H80.0387V6.32928Z" fill="#6C1D30"/>
<path d="M108.327 24.4244V24.8768H100.791V24.4244C102.845 24.4244 101.472 21.5675 101.472 21.5675L100.681 19.6154H94.4578C94.4578 19.6154 92.8276 24.6404 96.9846 24.4163V24.8687H90.5087V24.4163C91.1363 24.3633 91.7721 24.5508 94.034 19.1508H100.534L97.1925 10.8367L98.9857 6.0358H99.4299C105.877 21.7794 106.122 22.4723 106.122 22.4723C107.006 24.6119 107.638 24.3715 108.323 24.4244H108.327Z" fill="#6C1D30"/>
<path d="M141.925 6.27629V6.72867C140.743 6.72867 139.639 7.48264 139.639 9.1862V20.2267C139.639 26.6701 135.747 28.9157 131.459 29.5555L131.353 29.1032C133.615 28.2718 135.722 26.0262 135.722 20.2308V12.4507C135.722 7.42558 135.722 6.72867 133.562 6.72867V6.27629H141.929H141.925Z" fill="#6C1D30"/>
<path d="M154.209 24.8483V25.3007C148.972 24.9013 146.001 20.8625 146.001 15.8129C146.001 10.7634 148.972 6.51266 154.209 6.08473V6.56564C151.682 6.91206 150.476 9.18211 150.476 15.8129C150.476 22.4438 151.682 24.5019 154.209 24.8483ZM155.863 25.3007V24.8483C158.419 24.5264 159.597 22.5212 159.597 15.8129C159.597 9.10468 158.415 6.91206 155.863 6.53711V6.08473C161.153 6.48413 164.149 10.7879 164.149 15.8129C164.149 20.838 161.153 24.9258 155.863 25.3007Z" fill="#6C1D30"/>
<path d="M184.384 24.6364V25.0684H176.86V24.616C178.914 24.616 177.541 21.7591 177.541 21.7591L176.75 19.8069H170.515C170.515 19.8069 168.884 24.832 173.037 24.6079V25.0725H166.57V24.6201C167.197 24.5671 167.833 24.7546 170.095 19.3546H176.591L173.253 11.0406L175.038 6.23962H175.487C181.934 21.9547 182.171 22.6476 182.171 22.6476C183.067 24.8239 183.695 24.5834 184.384 24.6364ZM173.359 3.8962C172.463 3.57424 170.095 3.70873 169.414 5.17999L169.019 5.02104C170.886 0.370898 174.068 1.43868 174.068 1.43868L177.198 2.6165C178.115 2.93846 180.487 2.69801 181.172 1.25121L181.567 1.46313C179.672 6.11328 176.518 5.04549 176.518 5.04549L173.359 3.89213V3.8962Z" fill="#6C1D30"/>
<path d="M194.951 24.8483V25.3007C189.719 24.9013 186.743 20.8625 186.743 15.8129C186.743 10.7634 189.719 6.51266 194.951 6.08473V6.56564C192.429 6.91206 191.247 9.18211 191.247 15.8129C191.247 22.4438 192.429 24.5019 194.951 24.8483ZM196.61 25.3007V24.8483C199.166 24.5264 200.343 22.5212 200.343 15.8129C200.343 9.10468 199.161 6.91206 196.61 6.53711V6.08473C201.9 6.48413 204.896 10.7879 204.896 15.8129C204.896 20.838 201.9 24.9258 196.61 25.3007Z" fill="#6C1D30"/>
<path d="M122.281 10.8775C124.132 10.8775 125.057 11.2647 125.061 12.0349C125.069 12.2224 124.996 12.4017 124.865 12.5362C124.433 13.278 123.5 13.6488 122.061 13.6448C120.655 13.6529 119.286 13.1965 118.169 12.3365C116.392 12.8704 114.31 14.0116 111.917 15.76C108.209 18.5435 106.358 21.2782 106.362 23.9599C106.362 26.9472 108.363 28.61 112.361 28.9442C113.156 23.968 115.54 20.2348 119.506 17.7447C120.786 16.9255 122.196 16.3346 123.675 15.9963C125.163 15.6458 126.177 15.4095 126.724 15.2913C127.27 15.1731 128.195 15.0101 129.503 14.79L131.761 14.411C134.838 13.8689 136.814 13.2657 137.691 12.5974C138.567 11.929 139.003 11.2851 139.003 10.6615C138.999 10.4822 138.974 10.3029 138.93 10.1276C138.885 9.93199 138.93 9.8138 139.056 9.77712C139.219 9.75674 139.382 9.8138 139.5 9.93199C139.777 10.3273 139.916 10.8041 139.9 11.2851C139.802 12.0349 139.451 12.7278 138.909 13.2535C137.768 14.3458 136.338 15.0834 134.789 15.385C134.129 15.5562 133.24 15.7477 132.124 15.9678C131.015 16.1879 130.208 16.3631 129.715 16.5017C130.391 17.2312 130.734 18.2052 130.665 19.1956C130.665 21.6857 129.21 24.1188 126.296 26.4948C123.096 29.1154 118.797 30.4236 113.401 30.4195C113.36 30.8393 113.344 31.2631 113.352 31.6829C113.352 34.0304 114.118 35.8848 115.654 37.246C117.272 38.6316 119.355 39.3612 121.482 39.2837C122.277 39.296 123.043 38.9984 123.614 38.4523C124.172 37.9836 124.498 37.2949 124.511 36.5654C124.498 36.2842 124.429 36.0111 124.307 35.7584C124.18 35.4528 124.307 35.306 124.682 35.306C125.057 35.306 125.252 35.7503 125.252 36.6387C125.24 37.5557 124.82 38.4238 124.111 39.0066C123.394 39.6587 122.461 40.0092 121.495 39.9929C119.159 40.0825 116.869 39.3245 115.047 37.8614C113.14 36.382 112.056 34.0834 112.121 31.6707C112.121 31.1001 112.137 30.6641 112.17 30.3584C109.297 30.0935 107.116 29.3558 105.621 28.1454C104.268 26.9716 103.587 25.6756 103.587 24.2696C103.587 21.0173 106.036 17.9118 110.931 14.9571C113.026 13.6325 115.275 12.5648 117.627 11.7823C116.673 10.6411 116.184 9.1821 116.262 7.69862C116.233 6.93242 116.441 6.17438 116.861 5.53453C118.12 3.82689 119.84 2.51866 121.821 1.76062C124.303 0.619476 126.997 0.016302 129.731 0C133.285 0 135.021 1.12484 134.94 3.37451C134.875 4.34448 134.443 5.25332 133.725 5.91355C133.085 6.58601 132.201 6.9691 131.272 6.98133C130.375 6.98133 129.935 6.74495 129.935 6.27627C129.935 5.94208 130.147 5.77498 130.579 5.77498L131.423 5.92577C131.989 5.87687 132.499 5.56306 132.8 5.08215C133.208 4.60531 133.444 4.00214 133.468 3.37451C133.468 2.46975 132.955 1.8136 131.932 1.40605C131.325 1.18597 130.681 1.06778 130.033 1.0637C127.257 1.0637 124.947 1.65058 123.1 2.8284C121.454 3.79836 120.06 5.14328 119.033 6.7531C118.552 7.53967 118.291 8.44851 118.287 9.36957C118.238 10.1072 118.45 10.8368 118.886 11.4318C119.995 11.0894 121.14 10.8979 122.298 10.8653L122.281 10.8775ZM129.055 18.8288C129.055 17.3575 128.427 16.6158 127.172 16.6158C126.349 16.6892 125.533 16.84 124.739 17.0682C118.34 19.485 114.619 23.4626 113.576 28.9972C114.305 28.9972 115.035 28.9483 115.756 28.8464C120.023 28.3777 123.414 27.0002 125.925 24.7179C128.007 22.8146 129.051 20.8502 129.051 18.8247L129.055 18.8288ZM123.573 12.1857C123.573 11.8882 123.137 11.7334 122.257 11.7334C121.315 11.7415 120.378 11.8434 119.457 12.039C120.248 12.5648 121.173 12.846 122.122 12.846C123.088 12.846 123.573 12.6259 123.573 12.1898V12.1857Z" fill="#FBFAF9"/>
</svg>
