<svg xmlns="http://www.w3.org/2000/svg" viewBox="0 0 130 130"><defs><style>.cls-1{fill:#6c1d30;}.cls-2{font-size:72.06px;fill:#ccad91;font-family:AlexBrush-Regular, Alex Brush;}</style></defs><g id="Layer_6" data-name="Layer 6"><path class="cls-1" d="M75.86,6.21V21.38H74.6C74,7.87,58.16,7.49,58.16,7.49H56.75V50.21c0,5.13,3.2,7.85,6.32,7.85v1.29H39.64V58.06c3.12,0,6.32-2.72,6.32-7.85V7.49H44.55s-15.77.38-16.37,13.89H26.92V6.21Z"/><path class="cls-1" d="M103.08,58.05v1.28c-3.35,0-6.47,2.12-6.47,7V97.45c0,18.19-11,24.53-23.13,26.34l-.3-1.28c6.39-2.34,12.35-8.68,12.35-25.06v-22c0-14.19,0-16.16-6.11-16.16V58.05Z"/><text class="cls-2" transform="translate(47.8 79.93) scale(0.99 1)">&amp;</text></g></svg>