<svg xmlns="http://www.w3.org/2000/svg" viewBox="0 0 384.22 75.04"><defs><style>.cls-1{fill:#6c1d30;}.cls-2{fill:#ccad91;}</style></defs><g id="Layer_3" data-name="Layer 3"><path class="cls-1" d="M32.46,11.36V21.43h-.84c-.39-9-10.9-9.22-10.9-9.22h-.94V40.58c0,3.4,2.12,5.21,4.19,5.21v.85H8.44v-.85c2.07,0,4.19-1.81,4.19-5.21V12.21h-.94S1.23,12.46.84,21.43H0V11.36Z"/><path class="cls-1" d="M66.45,18.53V39.82c0,4.11-.4,5.27,2.17,6v.85H58.35v-.85c1.34-.5,1.19-1.86,1.19-6V30.25H47.6v9.57c0,4.11-.2,5.47,1.18,6v.85H38.47v-.85c2.62-.7,2.22-1.86,2.22-6V18.53c0-3.86.15-5.87-2.22-6.32v-.85H48.78v.85c-1.38.45-1.18,2.46-1.18,6.32V29.25H59.54V18.53c0-3.86.2-5.87-1.19-6.32v-.85H68.62v.85C66.3,12.66,66.45,14.67,66.45,18.53Z"/><path class="cls-1" d="M107.58,45.79v.85H93.47v-.85c3.85,0,1.29-5.36,1.29-5.36l-1.48-3.66H81.59s-3.06,9.42,4.73,9v.85H74.19v-.85c1.18-.1,2.36.25,6.61-9.87H93L86.72,20.33l3.35-9h.84C103,40.83,103.44,42.13,103.44,42.13,105.12,46.14,106.3,45.69,107.58,45.79Z"/><path class="cls-1" d="M129.33,11.36v.85a4.07,4.07,0,0,0-4.19,4.46V40.53c0,3.45,2.12,5.26,4.19,5.26v.85H113.79v-.85c2.08,0,4.2-1.81,4.2-5.26V16.67c0-3.1-2-4.46-4.2-4.46v-.85ZM114.58,9.81h1.83l12-6.42-5.53-1.75Z"/><path class="cls-1" d="M160.85,43s-2,3.56-8.73,4.06v-.85c4-1.25,4.74-7.67-.64-11.68l-7.6-4.86c-7-4.46-9.62-9.47-5.52-14.93,0,0,2.12-3.31,8.63-3.76v.85c-4,1.15-5,7,.74,10.83l7.6,5.11C161.84,32.11,164.55,37.52,160.85,43ZM149,46.14V47c-8.43-.3-11.93-3.06-11.93-3.06V34.36h.84C139,37.22,141.47,45.19,149,46.14Zm1.09-34.28V11c7.4.25,11.15,2.36,11.15,2.36v8.41h-.84C159.52,19.28,156.86,12.71,150.1,11.86Z"/><path class="cls-1" d="M203.13,45.79v.85H189v-.85c3.85,0,1.28-5.36,1.28-5.36l-1.48-3.66H177.13s-3.06,9.42,4.74,9v.85H169.73v-.85c1.18-.1,2.37.25,6.61-9.87h12.19l-6.27-15.59,3.36-9h.83C198.54,40.83,199,42.13,199,42.13,200.66,46.14,201.84,45.69,203.13,45.79Z"/><path class="cls-1" d="M266.13,11.76v.85c-2.22,0-4.29,1.41-4.29,4.61v20.7c0,12.08-7.3,16.29-15.34,17.49l-.2-.85c4.24-1.56,8.19-5.77,8.19-16.64V23.34c0-9.42,0-10.73-4.05-10.73v-.85Z"/><path class="cls-1" d="M289.17,46.59v.85c-9.82-.75-15.39-8.32-15.39-17.79s5.57-17.44,15.39-18.24v.9c-4.74.65-7,4.91-7,17.34S284.43,45.94,289.17,46.59Zm3.1.85v-.85c4.79-.6,7-4.36,7-16.94s-2.22-16.69-7-17.39v-.85c9.92.75,15.54,8.82,15.54,18.24S302.19,46.74,292.27,47.44Z"/><path class="cls-1" d="M345.75,46.19V47H331.64v-.85c3.85,0,1.28-5.36,1.28-5.36l-1.48-3.66H319.75s-3.06,9.42,4.73,9V47H312.35v-.85c1.18-.1,2.37.25,6.61-9.87h12.18l-6.26-15.59,3.35-9h.84c12.09,29.47,12.53,30.77,12.53,30.77C343.28,46.54,344.46,46.09,345.75,46.19ZM325.08,7.3c-1.68-.6-6.12-.35-7.4,2.41l-.74-.3c3.5-8.72,9.47-6.72,9.47-6.72l5.87,2.21c1.72.6,6.17.15,7.45-2.56l.74.4C336.92,11.46,331,9.46,331,9.46Z"/><path class="cls-1" d="M365.57,46.59v.85c-9.81-.75-15.39-8.32-15.39-17.79s5.58-17.44,15.39-18.24v.9c-4.73.65-6.95,4.91-6.95,17.34S360.84,45.94,365.57,46.59Zm3.11.85v-.85c4.79-.6,7-4.36,7-16.94s-2.22-16.69-7-17.39v-.85c9.92.75,15.54,8.82,15.54,18.24S378.6,46.74,368.68,47.44Z"/><path class="cls-2" d="M229.3,20.39q5.2,0,5.21,2.17a1.27,1.27,0,0,1-.37.94q-1.21,2.09-5.26,2.08a11.85,11.85,0,0,1-7.3-2.45q-5,1.5-11.72,6.42-10.43,7.83-10.42,15.38,0,8.4,11.25,9.35,2.24-14,13.4-21A24.65,24.65,0,0,1,231.91,30c2.79-.66,4.69-1.1,5.72-1.32s2.76-.53,5.21-.94l4.23-.71q8.66-1.52,11.12-3.4T260.65,20a4.6,4.6,0,0,0-.14-1q-.13-.55.24-.66a1,1,0,0,1,.83.29,4.22,4.22,0,0,1,.75,2.54,6.25,6.25,0,0,1-1.86,3.69,15.46,15.46,0,0,1-7.73,4q-1.86.48-5,1.09c-2.08.41-3.59.74-4.52,1A6.74,6.74,0,0,1,245,36q0,7-8.19,13.69-9,7.37-24.18,7.36a19.94,19.94,0,0,0-.09,2.37q0,6.6,4.32,10.43a15.93,15.93,0,0,0,10.93,3.82,5.65,5.65,0,0,0,4-1.56,4.73,4.73,0,0,0,1.68-3.54,3.84,3.84,0,0,0-.38-1.51c-.24-.57,0-.85.7-.85s1.07.83,1.07,2.5a5.84,5.84,0,0,1-2.14,4.44A7.12,7.12,0,0,1,227.81,75,18.17,18.17,0,0,1,215.72,71a14.22,14.22,0,0,1-5.49-11.61q0-1.6.09-2.46-8.08-.75-12.28-4.15c-2.54-2.2-3.81-4.63-3.81-7.27q0-9.15,13.77-17.46a57.36,57.36,0,0,1,12.56-5.95A11.06,11.06,0,0,1,218,14.44a6.94,6.94,0,0,1,1.12-4.06,20.83,20.83,0,0,1,9.3-7.08A36,36,0,0,1,243.25,0q10,0,9.77,6.33a7.09,7.09,0,0,1-2.28,4.76,6.45,6.45,0,0,1-4.6,2c-1.68,0-2.51-.44-2.51-1.32,0-.63.4-.94,1.21-.94l1.58.28A3.4,3.4,0,0,0,249,9.53a5.21,5.21,0,0,0,1.25-3.2q0-2.55-2.88-3.69A10.59,10.59,0,0,0,243.81,2q-7.81,0-13,3.31a22.79,22.79,0,0,0-7.63,7.36,9.51,9.51,0,0,0-1.4,4.91,5.88,5.88,0,0,0,1.12,3.87A23.81,23.81,0,0,1,229.3,20.39ZM242,35.3c0-2.76-1.18-4.15-3.53-4.15a24.08,24.08,0,0,0-4.56.85q-18,6.8-20.93,22.37a29.59,29.59,0,0,0,4.09-.28q12-1.32,19.07-7.74Q242,41,242,35.3ZM231.72,22.84c0-.56-.82-.85-2.47-.85a26.29,26.29,0,0,0-5.25.57,9,9,0,0,0,5,1.51Q231.72,24.07,231.72,22.84Z"/></g></svg>