<svg xmlns="http://www.w3.org/2000/svg" viewBox="0 0 203.13 136.96"><defs><style>.cls-1{fill:#6c1d30;}.cls-2{fill:#ccad91;}</style></defs><g id="Layer_3" data-name="Layer 3"><path class="cls-1" d="M32.46,9.72V19.79h-.84c-.39-9-10.9-9.22-10.9-9.22h-.94V38.93c0,3.41,2.12,5.22,4.19,5.22V45H8.44v-.85c2.07,0,4.19-1.81,4.19-5.22V10.57h-.94S1.23,10.82.84,19.79H0V9.72Z"/><path class="cls-1" d="M66.45,16.89V38.18c0,4.11-.4,5.27,2.17,6V45H58.35v-.85c1.34-.5,1.19-1.86,1.19-6V28.61H47.6v9.57c0,4.11-.2,5.47,1.18,6V45H38.47v-.85c2.62-.7,2.22-1.86,2.22-6V16.89c0-3.86.15-5.87-2.22-6.32V9.72H48.78v.85C47.4,11,47.6,13,47.6,16.89V27.61H59.54V16.89c0-3.86.2-5.87-1.19-6.32V9.72H68.62v.85C66.3,11,66.45,13,66.45,16.89Z"/><path class="cls-1" d="M107.58,44.15V45H93.47v-.85c3.85,0,1.29-5.36,1.29-5.36l-1.48-3.66H81.59s-3.06,9.42,4.73,9V45H74.19v-.85c1.18-.1,2.36.25,6.61-9.88H93L86.72,18.69l3.35-9h.84C103,39.19,103.44,40.49,103.44,40.49,105.12,44.5,106.3,44.05,107.58,44.15Z"/><path class="cls-1" d="M129.33,9.72v.85A4.07,4.07,0,0,0,125.14,15V38.88c0,3.46,2.12,5.27,4.19,5.27V45H113.79v-.85c2.08,0,4.2-1.81,4.2-5.27V15c0-3.1-2-4.46-4.2-4.46V9.72ZM114.58,8.17h1.83l12-6.42L122.92,0Z"/><path class="cls-1" d="M160.85,41.34s-2,3.56-8.73,4.06v-.85c4-1.26,4.74-7.67-.64-11.68L143.88,28c-7-4.46-9.62-9.47-5.52-14.93,0,0,2.12-3.31,8.63-3.76v.85c-4,1.15-5,7,.74,10.83l7.6,5.11C161.84,30.47,164.55,35.88,160.85,41.34ZM149,44.5v.9c-8.43-.3-11.93-3.06-11.93-3.06V32.72h.84C139,35.58,141.47,43.54,149,44.5Zm1.09-34.28v-.9c7.4.25,11.15,2.35,11.15,2.35v8.42h-.84C159.52,17.64,156.86,11.07,150.1,10.22Z"/><path class="cls-1" d="M203.13,44.15V45H189v-.85c3.85,0,1.28-5.36,1.28-5.36l-1.48-3.66H177.13s-3.06,9.42,4.74,9V45H169.73v-.85c1.18-.1,2.37.25,6.61-9.88h12.19l-6.27-15.58,3.36-9h.83C198.54,39.19,199,40.49,199,40.49,200.66,44.5,201.84,44.05,203.13,44.15Z"/><path class="cls-1" d="M51.25,93.31v.85C49,94.16,47,95.57,47,98.77v20.7c0,12.07-7.3,16.28-15.34,17.49l-.2-.86c4.24-1.55,8.19-5.76,8.19-16.63V104.89c0-9.43,0-10.73-4-10.73v-.85Z"/><path class="cls-1" d="M74.29,128.14V129c-9.82-.75-15.4-8.32-15.4-17.79S64.47,93.76,74.29,93v.9c-4.74.65-7,4.91-7,17.34S69.55,127.49,74.29,128.14Zm3.1.85v-.85c4.79-.6,7-4.36,7-16.94s-2.22-16.69-7-17.39V93c9.92.75,15.54,8.82,15.54,18.24S87.31,128.29,77.39,129Z"/><path class="cls-1" d="M130.87,127.74v.85H116.76v-.85c3.84,0,1.28-5.37,1.28-5.37l-1.48-3.65H104.87s-3.06,9.42,4.73,9v.85H97.47v-.85c1.18-.1,2.37.25,6.61-9.88h12.18L110,102.28l3.35-9h.84c12.09,29.47,12.53,30.77,12.53,30.77C128.4,128.09,129.58,127.64,130.87,127.74ZM110.2,88.85c-1.68-.6-6.12-.35-7.41,2.41l-.73-.3c3.5-8.72,9.47-6.72,9.47-6.72l5.87,2.21c1.72.6,6.16.15,7.45-2.56l.74.4C122,93,116.12,91,116.12,91Z"/><path class="cls-1" d="M150.69,128.14V129c-9.81-.75-15.39-8.32-15.39-17.79S140.88,93.76,150.69,93v.9c-4.73.65-6.95,4.91-6.95,17.34S146,127.49,150.69,128.14Zm3.11.85v-.85c4.79-.6,7-4.36,7-16.94s-2.22-16.69-7-17.39V93c9.92.75,15.54,8.82,15.54,18.24S163.72,128.29,153.8,129Z"/><path class="cls-2" d="M104.54,48.22c3.48,0,5.21.73,5.21,2.17a1.3,1.3,0,0,1-.37,1c-.8,1.38-2.56,2.07-5.25,2.07A11.82,11.82,0,0,1,96.82,51q-5,1.5-11.72,6.42Q74.69,65.21,74.68,72.76q0,8.42,11.26,9.35,2.24-14,13.4-21a24.6,24.6,0,0,1,7.81-3.35q4.18-1,5.72-1.32t5.21-.94l4.23-.71q8.66-1.52,11.12-3.4c1.64-1.26,2.47-2.45,2.47-3.59a4.6,4.6,0,0,0-.14-1c-.1-.37,0-.59.23-.66a1,1,0,0,1,.84.29,4.29,4.29,0,0,1,.74,2.55,6.26,6.26,0,0,1-1.86,3.68,15.38,15.38,0,0,1-7.72,4q-1.86.48-5,1.09c-2.08.41-3.58.74-4.51,1a6.75,6.75,0,0,1,1.77,5.1q0,7-8.19,13.68-9,7.36-24.19,7.37a22,22,0,0,0-.09,2.36q0,6.6,4.33,10.43a15.87,15.87,0,0,0,10.93,3.82,5.67,5.67,0,0,0,4-1.56,4.75,4.75,0,0,0,1.67-3.54,3.81,3.81,0,0,0-.37-1.51c-.25-.56,0-.85.7-.85s1.07.84,1.07,2.5a5.87,5.87,0,0,1-2.14,4.44,7.14,7.14,0,0,1-4.93,1.94A18.23,18.23,0,0,1,91,98.82a14.22,14.22,0,0,1-5.49-11.61,21.89,21.89,0,0,1,.1-2.46Q77.47,84,73.29,80.6c-2.55-2.2-3.82-4.63-3.82-7.27q0-9.15,13.77-17.46A57.57,57.57,0,0,1,95.8,49.92a11.05,11.05,0,0,1-2.6-7.65,7,7,0,0,1,1.11-4.06,20.91,20.91,0,0,1,9.31-7.08,36,36,0,0,1,14.88-3.3q9.94,0,9.77,6.33A7.18,7.18,0,0,1,126,38.92a6.47,6.47,0,0,1-4.61,2c-1.67,0-2.51-.44-2.51-1.32,0-.63.4-.94,1.21-.94l1.58.28a3.41,3.41,0,0,0,2.56-1.6,5.19,5.19,0,0,0,1.26-3.21c0-1.7-1-2.93-2.89-3.69a10.83,10.83,0,0,0-3.53-.66q-7.82,0-13,3.31a22.85,22.85,0,0,0-7.62,7.36A9.42,9.42,0,0,0,97,45.39a5.82,5.82,0,0,0,1.12,3.87A23.68,23.68,0,0,1,104.54,48.22ZM117.2,63.13c0-2.76-1.18-4.15-3.54-4.15a24.36,24.36,0,0,0-4.56.85q-18,6.8-20.93,22.37a29.73,29.73,0,0,0,4.1-.28q12-1.32,19.07-7.74Q117.19,68.8,117.2,63.13ZM107,50.67q0-.84-2.46-.84a26.26,26.26,0,0,0-5.26.56,9,9,0,0,0,5,1.51C106.06,51.9,107,51.49,107,50.67Z"/></g></svg>