<svg xmlns="http://www.w3.org/2000/svg" viewBox="0 0 65.05 23.65"><defs><style>.cls-1{fill:#ba9977;}</style></defs><g id="Layer_5" data-name="Layer 5"><path class="cls-1" d="M58.2,10.22A18.46,18.46,0,0,1,65,14.42a17.16,17.16,0,0,0-6.8-4.89A16.18,16.18,0,0,0,53.7,8.6C52.54,7,51.52,5.36,50.31,3.84a11.73,11.73,0,0,0-5-3.82c-.21-.08-1.56.1-1.48.46a11.65,11.65,0,0,0,2.45,5.36A11.81,11.81,0,0,0,50,8.26l.7.35-.55.05A50.68,50.68,0,0,0,39.9,11.09a.54.54,0,0,0-.23-.19.73.73,0,0,0-.35-.05l-.36-.1C37.52,9.21,36.3,7.47,34.77,6a9.74,9.74,0,0,0-6.29-2.6c-.46,0-1.26.31-1,.9a12.18,12.18,0,0,0,4.74,5.32,26.19,26.19,0,0,0,5.56,2.07l0,0h0l-3,1a63.49,63.49,0,0,1-8.68,2.22.42.42,0,0,0-.12-.53.81.81,0,0,0-.8,0,61.4,61.4,0,0,0-2.24-7.17,15.88,15.88,0,0,0-4.48-6.07c-.34-.28-1.51-.05-1.47.51a17.44,17.44,0,0,0,2.05,7.93,33.25,33.25,0,0,0,4.74,5.58h0l-.16.09a23,23,0,0,1-4.15,0,17.11,17.11,0,0,1-6.56-2c.43-.26.66-.76,0-.86a.38.38,0,0,0,0-.1C10,7.64,6.54,3.29,1.26,1.51.88,1.38-.08,1.64,0,2.2A16.21,16.21,0,0,0,3.2,9.52,10.38,10.38,0,0,0,8.47,12.6a26.63,26.63,0,0,0,3.34.65,17.08,17.08,0,0,0,7.55,3c.72.1,1.45.16,2.17.19a15.91,15.91,0,0,0-1.45.91,11.13,11.13,0,0,0-3.82,5.13c-.19.46.28.66.65.64a7,7,0,0,0,5.31-2.72c1-1.3,1.75-2.76,2.71-4.07.88-.08,1.76-.19,2.63-.34a60.33,60.33,0,0,0,7.83-2l.43-.14A28.7,28.7,0,0,0,33.5,16.3a18.46,18.46,0,0,0-3.36,6.89c-.16.6.85.48,1.11.38a9.58,9.58,0,0,0,5.13-4.48c1.07-2,1.73-4.22,2.61-6.32a61.8,61.8,0,0,1,11.5-3.1c.61-.08,1.23-.13,1.85-.16-1.5,1-3.23,1.65-4.78,2.61a9.67,9.67,0,0,0-4.12,5.47c-.19.59.43.77.88.68a9.9,9.9,0,0,0,5.38-3.11c1.5-1.62,2.68-3.51,4.1-5.2l0,0,0-.09a1,1,0,0,0,.05-.16s0,0,0-.06a.48.48,0,0,0,0-.12A15.42,15.42,0,0,1,58.2,10.22ZM5.67,9.89C3.58,8.26,2.53,5.66,1.88,3.09c3.82,1.81,6.57,5.15,9,8.7A23.36,23.36,0,0,1,6.51,7.46a22,22,0,0,0,3.56,4.37A11.16,11.16,0,0,1,5.67,9.89ZM18.85,3.37a15.58,15.58,0,0,1,2.77,4.41c.35.84.63,1.7.9,2.56a7,7,0,0,0-1.95-2c.43.85.86,1.65,1.31,2.43a15.48,15.48,0,0,1-1.24-1.76A14.7,14.7,0,0,1,18.85,3.37Zm2.33,16.27a6,6,0,0,1-1.63,1.67,4.34,4.34,0,0,1-1.51.55,9.54,9.54,0,0,1,3.2-3.94c.08-.06.16-.1.24-.15a5.63,5.63,0,0,0-1.23,1.87A12.74,12.74,0,0,0,22,18.34C21.76,18.78,21.48,19.21,21.18,19.64ZM29.54,4.77A8.4,8.4,0,0,1,33.67,7a27.63,27.63,0,0,1,2,2.21,8.83,8.83,0,0,0-3.09-1.34,10,10,0,0,0,1.08,1l-.2-.1A10.79,10.79,0,0,1,29.54,4.77ZM32,22A16.4,16.4,0,0,1,35,16.52c.31-.38.65-.74,1-1.1a10.55,10.55,0,0,0-1.61,3.4,10.85,10.85,0,0,0,1.42-1.7c-.2.5-.42,1-.65,1.47A8.07,8.07,0,0,1,32,22ZM46.62,3.66a12.49,12.49,0,0,1-.85-2.15,12.46,12.46,0,0,1,3.1,2.84c.75,1,1.42,2,2.11,3-1.11-1-2.23-1.88-3.44-2.84a7.62,7.62,0,0,0,.8,1.35A7.39,7.39,0,0,1,46.62,3.66ZM45.31,16.75a7.81,7.81,0,0,1,3.28-3.83c.47-.27.95-.52,1.44-.76a8.91,8.91,0,0,0-2.33,2.26,6.1,6.1,0,0,0,1.43-.63l-.48.59A8.51,8.51,0,0,1,45.31,16.75Z"/></g></svg>