<svg xmlns="http://www.w3.org/2000/svg" viewBox="0 0 65.05 23.65"><defs><style>.cls-1{fill:#ba9977;}</style></defs><g id="Layer_5" data-name="Layer 5"><path class="cls-1" d="M64.1,1.51a18.53,18.53,0,0,0-7,4.23,39.09,39.09,0,0,0-5.3,6.65.76.76,0,0,0-.59.59.29.29,0,0,0,0,.16A19.85,19.85,0,0,1,45,14.51a27.25,27.25,0,0,1-3.83-.08,27.52,27.52,0,0,0,4.21-4.94,17.5,17.5,0,0,0,2.12-8c0-.68-1-.62-1.32-.33A16.47,16.47,0,0,0,41.43,7.3a51.87,51.87,0,0,0-2.23,6.9,84.69,84.69,0,0,1-9.87-2.27l-2.5-.68a23.61,23.61,0,0,0,5-1.88,12.54,12.54,0,0,0,5-5.44c.11-.21-.36-.2-.44-.2a11.33,11.33,0,0,0-6.93,2.65,52.71,52.71,0,0,0-4.1,4.48A46.84,46.84,0,0,0,13.23,8.93c-.47,0-.94,0-1.4.06C13,8.41,14.17,7.9,15.3,7.25a8.53,8.53,0,0,0,3.4-3.39A15.17,15.17,0,0,0,20,.22c.1-.41-.91-.13-1-.08a12.8,12.8,0,0,0-5.42,3.93C12.15,5.73,11,7.58,9.7,9.27a14.39,14.39,0,0,0-4.25,1.48A15,15,0,0,0,0,16a15.79,15.79,0,0,1,5.9-4.72,15,15,0,0,1,3.87-1.09c1.44,1.68,2.65,3.56,4.18,5.16a10,10,0,0,0,5.46,3c.37.07,1.22-.26,1.05-.77a9.4,9.4,0,0,0-4.1-5.37c-1.39-.84-2.9-1.42-4.3-2.23.47,0,.93,0,1.4,0a48.54,48.54,0,0,1,10.66,1.91l.63.58c1,2.23,1.7,4.63,2.87,6.78a9.28,9.28,0,0,0,5.06,4.36c.34.13,1.57,0,1.41-.6a17.78,17.78,0,0,0-3.42-6.77,36.55,36.55,0,0,0-3.52-3.52l1.92.53a79.68,79.68,0,0,0,9.09,2s0,.07.09.1.25.14.38.22c1.39,1.51,2.27,3.35,3.52,5a6.77,6.77,0,0,0,5.21,2.66c.35,0,1.27-.24,1-.79a11,11,0,0,0-3.88-5.13,24.36,24.36,0,0,0-3-1.7,26.08,26.08,0,0,0,3.42,0,19.28,19.28,0,0,0,7.28-2.09,20.16,20.16,0,0,0,6.61-1.75,10.44,10.44,0,0,0,4.59-4.81A21.14,21.14,0,0,0,65,2C65.15,1.52,64.4,1.41,64.1,1.51ZM18.28,1.13A10.35,10.35,0,0,1,16,5.76a7.23,7.23,0,0,1-1.49,1.15c.17-.16.34-.32.49-.48a5.37,5.37,0,0,0,.7-.9,9.58,9.58,0,0,0,.55-1,9.8,9.8,0,0,0-.9.65l-.39.33c-.13.13-.3.23-.45.36-.32.24-.64.52-1,.8s-.66.51-1,.78l-.48.42C13.89,5.37,15.56,2.65,18.28,1.13Zm.11,15.61a9.15,9.15,0,0,1-3.25-2.36c-.13-.14-.24-.28-.36-.42.18.1.36.2.52.27a4.31,4.31,0,0,0,.75.27,5.9,5.9,0,0,0-.47-.64,8,8,0,0,0-1.22-1.12l-.26-.2L15,13A8.32,8.32,0,0,1,18.39,16.74ZM30.32,6.83a8.87,8.87,0,0,1,2.26-1.68,7.28,7.28,0,0,1,2.59-.7A11.3,11.3,0,0,1,30.8,9.19a19,19,0,0,1-3.91,1.48l.08-.09c.16,0,.4-.09.7-.18a10.12,10.12,0,0,0,1.74-.77A9.81,9.81,0,0,0,31,8.57,7.87,7.87,0,0,0,31.61,8a8.2,8.2,0,0,0-.87.21A10.41,10.41,0,0,0,29,8.93a10.63,10.63,0,0,0-1.4.93C28.5,8.83,29.35,7.78,30.32,6.83Zm1.7,15a8.38,8.38,0,0,1-3-3.25c-.16-.32-.3-.65-.45-1,.17.23.34.44.5.62a8.16,8.16,0,0,0,.68.66,9.44,9.44,0,0,0-.28-.91,12.25,12.25,0,0,0-.91-1.81h0c.17.19.36.38.53.58A16.33,16.33,0,0,1,32,21.86ZM45.75,3.25a14.53,14.53,0,0,1-1.88,6,15.45,15.45,0,0,1-1.59,2.1l.1-.17c.21-.33.43-.65.6-1s.36-.61.51-.87a9.42,9.42,0,0,0,.45-.91,7.3,7.3,0,0,0-.81.62,7.58,7.58,0,0,0-1.33,1.56,28.39,28.39,0,0,1,1-2.81A15.21,15.21,0,0,1,45.75,3.25Zm.59,18.57a4.4,4.4,0,0,1-1.19-.49,6.12,6.12,0,0,1-1.75-1.69c-.2-.28-.39-.57-.58-.86a6.5,6.5,0,0,0,.73.56,6.22,6.22,0,0,0,.72.39,7,7,0,0,0-.38-.72,8.66,8.66,0,0,0-.6-.78A9.6,9.6,0,0,1,46.34,21.82Zm13-11.8a11.14,11.14,0,0,1-4.52,1.87A27.17,27.17,0,0,0,59,8.07a30.7,30.7,0,0,1-5.25,3.86c2.48-3.63,5.36-7.11,9.45-8.87C62.58,5.68,61.53,8.35,59.34,10Z"/></g></svg>