<svg width="300" height="25" viewBox="0 0 300 25" fill="none" xmlns="http://www.w3.org/2000/svg">
<path d="M235.125 16.9324C236.466 14.7622 238.336 12.9676 240.56 11.7165C242.959 10.4864 245.623 9.86328 248.319 9.90143C253.814 9.90143 259.17 11.4971 264.365 12.8933C269.561 14.2896 274.787 15.7456 279.993 15.4663C282.598 15.3335 285.15 14.6861 287.503 13.5615C289.868 12.3716 292.05 10.8503 293.985 9.0437C292.187 11.1088 290.053 12.8554 287.672 14.2097C285.292 15.5078 282.666 16.2926 279.963 16.5136C274.558 16.9623 269.252 15.596 264.116 14.1998C258.98 12.8036 253.824 11.158 248.538 10.9486C245.964 10.8053 243.39 11.2451 241.009 12.2351C238.696 13.301 236.676 14.9131 235.125 16.9324V16.9324Z" fill="#CCAD91"/>
<path d="M288.111 13.8507C290.964 9.5623 294.265 5.28391 299.341 3.60844L298.403 3.10978C297.775 5.99199 296.748 9.09357 294.295 10.9884C292.24 12.5542 289.547 12.9831 287.054 13.3022C286.705 13.3521 286.236 13.5416 286.196 13.9405C286.157 14.3394 286.605 14.5189 286.924 14.479C289.303 14.2793 291.63 13.6756 293.806 12.6939C295.817 11.6376 297.428 9.95309 298.393 7.89683C299.118 6.33391 299.654 4.68998 299.989 3.00003C300.099 2.51135 299.351 2.40165 299.052 2.50138C296.436 3.36739 294.05 4.81285 292.071 6.72994C290.07 8.73927 288.297 10.9635 286.785 13.362C286.236 14.1898 287.682 14.469 288.101 13.8507H288.111Z" fill="#CCAD91"/>
<path d="M275.535 15.985C276.155 13.5544 276.911 11.1604 277.799 8.81436C278.749 6.48192 280.268 4.42465 282.217 2.83054L280.901 2.51139C280.876 5.20866 280.191 7.85882 278.906 10.2305C277.522 12.1879 275.93 13.9902 274.159 15.606C274.103 15.6663 274.063 15.7397 274.043 15.8195C274.023 15.8993 274.024 15.9829 274.045 16.0625C274.065 16.142 274.106 16.215 274.163 16.2747C274.219 16.3344 274.29 16.3788 274.368 16.4038C274.562 16.4657 274.77 16.4705 274.966 16.4174C275.162 16.3643 275.339 16.2557 275.475 16.1047C277.324 14.4023 278.976 12.499 280.402 10.43C281.743 7.96335 282.469 5.20907 282.516 2.4017C282.516 1.72354 281.519 1.78337 281.2 2.08256C279.155 3.73062 277.534 5.84385 276.473 8.24589C275.508 10.6949 274.702 13.2033 274.059 15.7556C273.8 16.6332 275.356 16.6531 275.565 15.955L275.535 15.985Z" fill="#CCAD91"/>
<path d="M261.214 12.4146C262.68 10.9585 263.887 9.25314 265.363 7.80705C266.018 7.1346 266.776 6.56924 267.607 6.13159C268.597 5.6659 269.674 5.41118 270.768 5.38361L270.329 5.18414C269.37 7.26023 267.805 8.99821 265.841 10.1707C263.966 11.0617 262 11.7471 259.977 12.2151C259.818 12.2151 259.199 12.4246 259.269 12.6839C259.339 12.9432 259.987 12.7736 260.117 12.7337C262.444 12.1904 264.705 11.3945 266.859 10.3601C269.028 9.08945 270.766 7.19567 271.845 4.92483C271.955 4.7154 271.476 4.72542 271.406 4.72542C268.87 4.8093 266.436 5.74363 264.495 7.37822C262.73 8.9041 261.413 10.8788 259.768 12.5243C259.519 12.7737 259.987 12.8135 260.147 12.8036C260.512 12.7907 260.863 12.6575 261.144 12.4246L261.214 12.4146Z" fill="#CCAD91"/>
<path d="M246.015 10.43C248.598 7.20867 250.473 3.09982 254.562 1.55399L253.515 1.47419C253.173 3.4212 252.32 5.24217 251.041 6.74991C249.992 7.71075 248.775 8.47126 247.451 8.99384C246.514 9.44263 245.596 9.90139 244.699 10.43C244.429 10.5895 244.539 10.779 244.808 10.8089C245.197 10.8307 245.582 10.7257 245.905 10.5098C247.351 9.67203 248.897 9.06364 250.383 8.23588C251.807 7.45086 252.979 6.27871 253.764 4.85507C254.355 3.70415 254.791 2.48013 255.061 1.21488C255.15 0.815963 254.143 1.08522 254.013 1.13508C251.897 1.94572 250.03 3.2971 248.598 5.05448C247.162 6.79976 246.005 8.75451 244.609 10.5098C244.389 10.779 244.798 10.8189 244.988 10.8089C245.354 10.8016 245.706 10.6677 245.985 10.43H246.015Z" fill="#CCAD91"/>
<path d="M244.848 11.0981C246.304 12.7835 247.521 14.6784 249.057 16.2941C250.507 17.8458 252.415 18.8939 254.502 19.286C254.881 19.3658 255.729 19.0267 255.559 18.518C254.904 16.2896 253.447 14.3821 251.47 13.1625C249.735 12.1652 247.8 11.497 246.165 10.3003C245.616 9.89138 244.25 10.6693 244.968 11.1879C246.62 12.2075 248.328 13.1331 250.084 13.9604C251.979 15.0587 253.379 16.8443 253.994 18.9469L255.051 18.179C253.18 17.7844 251.491 16.7856 250.244 15.3366C248.827 13.7809 247.661 12.0056 246.254 10.41C245.796 9.88139 244.26 10.4997 244.818 11.0981H244.848Z" fill="#CCAD91"/>
<path d="M259.728 13.2424C260.785 15.5262 261.473 17.9895 262.66 20.2235C263.754 22.2429 265.554 23.7877 267.716 24.5618C268.055 24.6914 269.282 24.5618 269.113 23.9634C268.482 21.4958 267.322 19.1952 265.712 17.2216C264.089 15.4375 262.361 13.7523 260.536 12.1753C260.117 11.7763 258.651 12.3747 259.09 12.7936C260.873 14.3605 262.567 16.0253 264.166 17.7801C265.777 19.7179 266.935 21.9903 267.557 24.4321L268.953 23.8337C266.861 23.0985 265.128 21.5935 264.106 19.6251C262.989 17.461 262.311 15.0974 261.284 12.8933C261.024 12.3349 259.489 12.8135 259.728 13.3122V13.2424Z" fill="#CCAD91"/>
<path d="M273.61 16.5234C275.027 18.0393 275.904 19.8943 277.151 21.51C277.762 22.3175 278.546 22.9789 279.445 23.4464C280.343 23.9138 281.335 24.1756 282.347 24.2127C282.706 24.2127 283.623 23.9634 283.344 23.4148C282.584 21.3667 281.239 19.5874 279.475 18.2987C277.879 17.2016 276.064 16.4736 274.408 15.4663C274.235 15.3677 274.035 15.3235 273.836 15.3395C273.637 15.3555 273.447 15.431 273.291 15.5561C273.042 15.7456 272.872 16.1744 273.212 16.3839C274.807 17.3812 276.562 18.0693 278.118 19.1165C279.789 20.2827 281.069 21.9271 281.788 23.8337L282.786 23.0359C281.833 23.02 280.899 22.7736 280.063 22.3178C279.374 21.8782 278.781 21.3051 278.318 20.6323C277.294 18.9752 276.168 17.3832 274.947 15.8653C274.808 15.7299 274.628 15.6439 274.435 15.6205C274.242 15.5971 274.047 15.6375 273.88 15.7356C273.63 15.8553 273.241 16.2642 273.521 16.5634L273.61 16.5234Z" fill="#CCAD91"/>
<path d="M275.555 14.7483C275.617 14.4119 275.697 14.079 275.795 13.751C276.015 13.0519 276.32 12.3821 276.702 11.7564C277.1 11.1277 277.58 10.5543 278.128 10.051C278.386 9.83393 278.656 9.63087 278.936 9.44263C278.803 9.75299 278.653 10.0559 278.487 10.3501C278.348 10.5995 278.158 10.8887 277.989 11.2079C277.819 11.527 277.6 11.8561 277.39 12.2052C277.011 12.8833 276.543 13.5017 276.203 14.0003C276.001 14.2614 275.785 14.5111 275.555 14.7483V14.7483Z" fill="#CCAD91"/>
<path d="M275.555 17.4111C275.813 17.4888 276.066 17.5821 276.313 17.6903C276.826 17.9466 277.313 18.2504 277.769 18.5979C278.188 19.0135 278.562 19.4714 278.886 19.9642C279.032 20.1892 279.159 20.4261 279.265 20.6723C279.022 20.5571 278.785 20.4272 278.557 20.2833C278.098 19.9969 277.67 19.6626 277.281 19.286C276.824 18.9396 276.406 18.5451 276.034 18.1092C275.858 17.8883 275.698 17.655 275.555 17.4111V17.4111Z" fill="#CCAD91"/>
<path d="M261.862 11.5869C262.055 11.3642 262.265 11.1573 262.491 10.9685C262.978 10.5691 263.498 10.2121 264.046 9.90141C264.601 9.59798 265.182 9.34432 265.782 9.14345C266.062 9.05171 266.349 8.97839 266.639 8.92401C266.447 9.1467 266.237 9.35348 266.011 9.54233C265.524 9.94174 265.003 10.2988 264.455 10.6095C263.901 10.9147 263.32 11.1684 262.72 11.3674C262.439 11.4592 262.153 11.5325 261.862 11.5869V11.5869Z" fill="#CCAD91"/>
<path d="M261.802 14.858C262.044 15.0607 262.271 15.2807 262.481 15.5162C262.92 16.0269 263.32 16.5703 263.677 17.1418C264.031 17.7197 264.335 18.3269 264.585 18.9569C264.694 19.2509 264.787 19.5505 264.864 19.8545C264.622 19.6518 264.396 19.4318 264.186 19.1962C263.74 18.6906 263.34 18.1467 262.989 17.5707C262.641 16.9896 262.338 16.3828 262.082 15.7556C261.862 15.237 261.802 14.858 261.802 14.858Z" fill="#CCAD91"/>
<path d="M247.331 12.4046C247.584 12.4912 247.828 12.6014 248.06 12.7337C248.556 13.0108 249.018 13.3456 249.436 13.731C249.882 14.06 250.293 14.4343 250.662 14.848C250.836 15.0478 250.992 15.2613 251.131 15.4863C250.875 15.416 250.625 15.3259 250.383 15.217C249.861 14.9749 249.366 14.6774 248.907 14.3295C248.48 13.9613 248.095 13.5465 247.76 13.0927C247.601 12.8741 247.458 12.6441 247.331 12.4046Z" fill="#CCAD91"/>
<path d="M246.015 9.95125C246.265 9.67899 246.531 9.4225 246.813 9.1833C247.062 8.97387 247.361 8.73454 247.651 8.46527C247.94 8.196 248.279 7.94664 248.648 7.68735C249.017 7.42805 249.286 7.13884 249.645 6.88951C249.795 6.75987 249.974 6.66016 250.104 6.54048C250.234 6.42081 250.373 6.3011 250.493 6.20137C251.002 5.80245 251.391 5.5531 251.391 5.5531C251.225 5.89662 251.038 6.22968 250.832 6.5504C250.635 6.87018 250.405 7.16778 250.144 7.43802C249.855 7.73721 249.536 8.03644 249.206 8.3456C248.576 8.85234 247.882 9.27471 247.142 9.60215C246.775 9.74423 246.398 9.8609 246.015 9.95125V9.95125Z" fill="#CCAD91"/>
<path d="M66.5801 15.4092C64.5841 13.5236 62.202 12.0945 59.599 11.2205C57.0341 10.465 54.336 10.2744 51.6904 10.662C46.4346 11.3501 41.4281 13.3448 36.2122 14.9504C33.5994 15.7899 30.9342 16.4562 28.2338 16.9451C25.4605 17.457 22.6252 17.541 19.8265 17.1944C17.0443 16.8199 14.3895 15.7949 12.0775 14.2025C9.91148 12.6479 8.06877 10.6866 6.65213 8.42804C8.29057 10.5294 10.2897 12.3225 12.5562 13.7237C14.8353 15.081 17.3859 15.9187 20.026 16.1771C25.3616 16.6857 30.6373 15.2297 35.7136 13.6739C40.7898 12.1181 45.8661 10.1833 51.3313 9.62482C54.1215 9.3002 56.9489 9.59998 59.609 10.5024C62.3049 11.5322 64.7011 13.2188 66.5801 15.4092V15.4092Z" fill="#CCAD91"/>
<path d="M13.2244 13.1852C10.1726 8.59759 6.63218 4.25934 1.25671 2.48413C0.867766 2.35448 -0.109592 2.61379 0.010084 3.17228C0.445243 5.84196 1.55776 8.35545 3.24134 10.4725C4.70074 12.0092 6.58101 13.0811 8.64674 13.5542C9.98178 13.8927 11.3377 14.1426 12.7057 14.3022C13.4039 14.3919 14.3314 13.4245 13.2842 13.3049C10.6812 12.9558 7.9187 12.497 5.7745 10.8615C3.26129 8.9566 2.21412 5.72535 1.56588 2.77333L0.329229 3.46147C5.52518 5.16686 8.89606 9.44528 11.8182 13.8534C12.1572 14.372 13.6632 13.8534 13.2543 13.2052L13.2244 13.1852Z" fill="#CCAD91"/>
<path d="M25.95 15.6186C25.3131 13.0997 24.5237 10.6219 23.5863 8.19869C22.5652 5.8363 20.9879 3.75593 18.9888 2.13507C18.6397 1.84585 17.4429 2.13507 17.4828 2.63372C17.5204 5.42412 18.2394 8.16306 19.5772 10.6122C20.9894 12.6409 22.6216 14.5072 24.444 16.1771C24.8031 16.5461 26.2791 15.9777 25.9001 15.5788C24.098 13.9393 22.4855 12.1027 21.0931 10.1035C19.7862 7.69804 19.0813 5.01191 19.0386 2.2747L17.5327 2.77336C19.5273 4.38506 21.0929 6.46454 22.0904 8.827C22.996 11.2012 23.7652 13.6253 24.3941 16.0873C24.5437 16.596 26.0996 16.1671 25.95 15.6685V15.6186Z" fill="#CCAD91"/>
<path d="M40.1615 12.0682C38.5559 10.4626 37.2494 8.56769 35.5739 7.08171C33.7976 5.48622 31.5175 4.56501 29.1313 4.47876C28.6526 4.47876 27.8348 4.7879 28.134 5.38628C29.1859 7.60077 30.8778 9.44893 32.9909 10.6919C35.055 11.6875 37.2222 12.4533 39.4534 12.9757C39.645 13.0356 39.8495 13.0402 40.0436 12.989C40.2376 12.9379 40.4133 12.833 40.5505 12.6866C40.6055 12.6309 40.645 12.5618 40.665 12.4862C40.6851 12.4106 40.6851 12.3311 40.6649 12.2555C40.6448 12.1799 40.6052 12.1108 40.5501 12.0553C40.4951 11.9997 40.4264 11.9595 40.351 11.9386C38.2293 11.4497 36.1664 10.7342 34.1977 9.80433C32.1706 8.61095 30.5535 6.8304 29.5602 4.69814L28.5629 5.60572C30.7501 5.67807 32.8356 6.54695 34.427 8.04906C35.9729 9.52507 37.1995 11.2903 38.7154 12.7962C39.2041 13.2949 40.71 12.6566 40.1416 12.1181L40.1615 12.0682Z" fill="#CCAD91"/>
<path d="M55.4303 10.1933C54.044 8.46794 52.9071 6.55312 51.5009 4.83776C50.1742 3.13185 48.4143 1.81282 46.4046 1.01807C46.1952 0.938282 44.799 1.1278 44.8888 1.48683C45.2441 3.45798 46.1107 5.30127 47.402 6.83237C48.5019 7.86603 49.7833 8.68762 51.1817 9.25581C52.1092 9.69462 53.0267 10.1434 53.9143 10.662C54.1637 10.8116 54.6623 10.662 54.9116 10.5423C54.9815 10.5423 55.5998 10.2731 55.3904 10.1434C53.9443 9.30569 52.3984 8.68732 50.9224 7.85956C49.5614 7.13019 48.4447 6.017 47.7111 4.65825C47.1435 3.51883 46.7214 2.31258 46.4545 1.06792L44.9287 1.53668C46.9432 2.3177 48.7056 3.63521 50.0249 5.34639C51.3812 7.04181 52.5082 8.91671 53.8745 10.6121C54.1437 10.9612 55.5101 10.283 55.4303 10.1933V10.1933Z" fill="#CCAD91"/>
<path d="M53.7548 10.4427C52.3785 12.0284 51.2116 13.8036 49.7656 15.3693C48.5381 16.7863 46.8695 17.7488 45.0284 18.1019L45.926 18.7901C46.5118 16.736 47.8699 14.9883 49.7157 13.9133C51.5058 13.0772 53.2442 12.1348 54.9216 11.0909C54.9923 11.0452 55.0515 10.9838 55.0947 10.9116C55.1378 10.8394 55.1638 10.7581 55.1705 10.6743C55.1773 10.5904 55.1646 10.5061 55.1336 10.4279C55.1025 10.3496 55.0539 10.2797 54.9914 10.2233C54.8176 10.1211 54.6168 10.0739 54.4156 10.0881C54.2144 10.1024 54.0222 10.1773 53.8645 10.303C52.2588 11.4898 50.344 12.0882 48.6486 13.1154C46.6206 14.3546 45.1192 16.2962 44.43 18.5707C44.2305 19.1691 44.8688 19.3486 45.3276 19.2588C47.4487 18.8309 49.3796 17.7415 50.8427 16.1472C52.3785 14.5316 53.5952 12.6367 55.0513 10.9613C55.1066 10.8984 55.1455 10.8227 55.1646 10.7412C55.1837 10.6596 55.1823 10.5745 55.1605 10.4936C55.1388 10.4127 55.0975 10.3384 55.0401 10.2773C54.9828 10.2162 54.9113 10.1703 54.8319 10.1435C54.639 10.0734 54.4292 10.0645 54.2311 10.118C54.0329 10.1716 53.8562 10.2849 53.7249 10.4427H53.7548Z" fill="#CCAD91"/>
<path d="M38.7055 12.896C37.7082 15.0801 37.0101 17.4238 35.913 19.568C34.9555 21.4783 33.2924 22.941 31.2756 23.6469L32.4125 24.0359C33.0315 21.637 34.1761 19.4058 35.7634 17.5036C37.3389 15.7916 39.0034 14.1638 40.75 12.6267C40.8054 12.5722 40.8453 12.5039 40.8657 12.4288C40.886 12.3537 40.8861 12.2746 40.8658 12.1995C40.8455 12.1244 40.8056 12.056 40.7502 12.0014C40.6948 11.9468 40.6259 11.9079 40.5505 11.8887C40.3577 11.8347 40.1538 11.834 39.9606 11.8867C39.7674 11.9394 39.5921 12.0435 39.4534 12.1879C37.6106 13.7766 35.8686 15.4786 34.2376 17.2841C32.6101 19.3058 31.4336 21.6521 30.7869 24.1656C30.6273 24.7639 31.6545 24.6443 31.9238 24.5445C34.1615 23.7408 36.0322 22.1535 37.1896 20.0766C38.4063 17.8526 39.0844 15.3593 40.1815 13.0954C40.5505 12.2976 38.9847 12.3176 38.6955 12.9259L38.7055 12.896Z" fill="#CCAD91"/>
<path d="M24.9826 15.8978C23.7684 17.4 22.6524 18.9791 21.6416 20.6251C21.204 21.2838 20.6374 21.8469 19.9761 22.2806C19.1903 22.7148 18.3106 22.951 17.413 22.9687L18.0912 23.607C18.788 21.7045 20.0516 20.0615 21.7114 18.8997C23.2473 17.9024 25.0125 17.1544 26.6082 16.1771C26.6795 16.1427 26.741 16.0908 26.7868 16.0263C26.8326 15.9617 26.8614 15.8866 26.8704 15.8079C26.8793 15.7292 26.8682 15.6496 26.8381 15.5764C26.8079 15.5031 26.7597 15.4388 26.698 15.3892C26.5232 15.292 26.3233 15.2494 26.1241 15.2672C25.9249 15.285 25.7357 15.3623 25.581 15.4889C23.9354 16.4862 22.1103 17.2143 20.5147 18.3213C18.7319 19.6068 17.3684 21.39 16.5953 23.4474C16.4058 23.9062 16.8845 24.1056 17.2734 24.0857C18.3226 24.0582 19.353 23.8011 20.2921 23.3324C21.2311 22.8638 22.0561 22.195 22.7087 21.3731C23.9853 19.7375 24.8629 17.8625 26.2791 16.3366C26.3346 16.2828 26.3748 16.2152 26.3958 16.1407C26.4168 16.0663 26.4177 15.9876 26.3984 15.9127C26.3792 15.8377 26.3405 15.7693 26.2863 15.7141C26.232 15.659 26.1642 15.6191 26.0896 15.5986C25.8954 15.5415 25.6893 15.5393 25.4939 15.5921C25.2985 15.6449 25.1216 15.7507 24.9826 15.8978V15.8978Z" fill="#CCAD91"/>
<path d="M24.4041 14.6911C24.1735 14.4442 23.9571 14.1845 23.7558 13.9132C23.3295 13.3357 22.9334 12.7365 22.5691 12.1181C22.3521 11.7965 22.1523 11.4636 21.9707 11.1208C21.7911 10.8016 21.6117 10.5124 21.4621 10.2631C21.2963 9.96888 21.1464 9.66589 21.0133 9.35553C21.2953 9.54081 21.5651 9.74406 21.8211 9.96393C22.372 10.4647 22.8519 11.0384 23.2472 11.6693C23.632 12.2949 23.9401 12.9646 24.1647 13.6639C24.2631 14.0017 24.343 14.3446 24.4041 14.6911Z" fill="#CCAD91"/>
<path d="M24.4041 17.3539C24.4041 17.3539 24.2246 17.6332 23.9254 18.0022C23.5509 18.4358 23.1332 18.8301 22.6788 19.179C22.2857 19.551 21.8582 19.8849 21.4022 20.1763C21.1717 20.3216 20.9318 20.4516 20.6841 20.5653C20.797 20.3204 20.9269 20.0838 21.0731 19.8572C21.3938 19.3618 21.7684 18.9036 22.1901 18.4909C22.6445 18.1413 23.1322 17.8373 23.6461 17.5833C23.8934 17.4902 24.1467 17.4136 24.4041 17.3539V17.3539Z" fill="#CCAD91"/>
<path d="M38.0971 11.5297C37.8068 11.4754 37.5202 11.402 37.2394 11.3103C36.639 11.1113 36.0581 10.8576 35.5041 10.5523C34.9545 10.2441 34.4338 9.88691 33.9483 9.48521C33.7212 9.29452 33.5078 9.08789 33.31 8.86688C33.6036 8.9218 33.8934 8.99512 34.1777 9.08632C34.7749 9.28552 35.3524 9.53925 35.903 9.84428C36.4557 10.1527 36.9797 10.5097 37.4688 10.9113C37.6915 11.1035 37.9014 11.3101 38.0971 11.5297V11.5297Z" fill="#CCAD91"/>
<path d="M38.1769 14.8008C38.1039 15.1059 38.0106 15.4058 37.8976 15.6984C37.6495 16.3274 37.3493 16.9346 37.0001 17.5135C36.6431 18.085 36.243 18.6284 35.8033 19.1391C35.5935 19.3746 35.3668 19.5947 35.1251 19.7973C35.2022 19.4934 35.2955 19.1938 35.4044 18.8997C35.6543 18.2698 35.9579 17.6625 36.3119 17.0846C36.6623 16.5087 37.0628 15.9647 37.5087 15.4591C37.7169 15.2254 37.9401 15.0055 38.1769 14.8008V14.8008Z" fill="#CCAD91"/>
<path d="M52.6179 12.3474C52.4972 12.5815 52.357 12.805 52.199 13.0156C51.8614 13.4672 51.477 13.8818 51.0521 14.2523C50.5919 14.5981 50.0973 14.8955 49.5761 15.1399C49.3333 15.247 49.0834 15.337 48.8281 15.4091C48.9669 15.1841 49.1237 14.9707 49.2968 14.7709C49.66 14.3549 50.068 13.9802 50.5135 13.6539C50.9378 13.2762 51.3988 12.9421 51.8898 12.6566C52.1233 12.5331 52.3669 12.4297 52.6179 12.3474V12.3474Z" fill="#CCAD91"/>
<path d="M53.9443 9.8941C53.6046 9.78766 53.2716 9.6611 52.947 9.51512C52.2095 9.18318 51.5161 8.76108 50.8826 8.2585C50.5634 7.94934 50.2343 7.65017 49.955 7.35098C49.6915 7.08074 49.4575 6.78318 49.257 6.46337C49.0558 6.14133 48.8727 5.80838 48.7084 5.46606C48.7084 5.46606 49.0974 5.71535 49.606 6.11428C49.7257 6.21401 49.8653 6.32374 49.995 6.45339C50.1246 6.58304 50.2942 6.67277 50.4437 6.80242C50.7629 7.04177 51.082 7.32106 51.4411 7.60031C51.8001 7.87955 52.0993 8.11888 52.4384 8.37818C52.7774 8.63747 53.0268 8.88683 53.2761 9.09627C53.5112 9.35155 53.7342 9.61778 53.9443 9.8941Z" fill="#CCAD91"/>
<path d="M79.8226 4.296V4.104H71.8306V4.296C72.5026 4.344 72.8626 4.32 73.7266 6.24C73.7266 6.24 74.0626 6.864 80.4946 21H81.1906L83.3506 15.648L79.4866 7.08C79.4866 7.08 78.1666 4.296 79.8226 4.296ZM83.0866 4.104V4.296C85.9186 4.296 86.3746 7.392 85.7026 9.168L85.9186 9.264C87.7906 5.04 89.3266 4.296 90.3586 4.296V4.104H83.0866ZM91.862 4.104V4.296C92.894 4.296 93.422 4.32 93.422 6.432V18.288C93.422 20.568 92.87 20.784 91.862 20.784V21H99.782V20.784C98.774 20.784 98.222 20.568 98.222 18.288V6.432C98.222 4.32 98.774 4.296 99.782 4.296V4.104H91.862ZM116.445 18.816C116.445 18.816 116.037 18.024 109.965 4.104H109.845L107.325 10.488L109.821 16.128H105.093C103.197 20.544 101.853 20.76 101.133 20.808V21H108.045V20.808C105.165 20.808 104.733 17.448 105.213 16.344H109.917L110.685 18C110.685 18 112.125 20.808 110.205 20.808V21H118.605V20.808C118.125 20.76 117.309 20.736 116.445 18.816ZM140.14 18.816C140.14 18.816 139.732 18.024 133.66 4.104H133.54L131.02 10.488L133.516 16.128H128.788C126.892 20.544 125.548 20.76 124.828 20.808V21H131.74V20.808C128.86 20.808 128.428 17.448 128.908 16.344H133.612L134.38 18C134.38 18 135.82 20.808 133.9 20.808V21H142.3V20.808C141.82 20.76 141.004 20.736 140.14 18.816ZM146.685 14.64H146.469C146.469 17.784 145.437 20.784 142.869 20.784V21H150.357V20.784C147.573 20.784 146.685 17.736 146.685 14.64ZM156.861 15.384L150.933 4.104H144.093V4.32C144.765 4.368 145.533 4.752 146.469 6.408L154.461 21.216H154.677L156.861 15.384ZM165.621 18.768V6.096C165.621 4.632 165.573 4.32 166.749 4.32V4.104H160.893V18.768C160.893 20.4 160.797 20.784 159.669 20.784V21H166.989V20.784C165.813 20.784 165.621 20.4 165.621 18.768ZM185.836 12.672C185.836 8.064 182.572 4.152 177.556 3.912V4.128C179.908 4.368 180.004 6.504 180.004 12.672C180.004 18.864 179.908 20.76 177.556 20.976V21.192C182.572 20.976 185.836 17.304 185.836 12.672ZM174.1 12.672C174.1 6.504 174.196 4.368 176.572 4.128V3.912C171.58 4.152 168.316 8.064 168.316 12.672C168.316 17.304 171.58 20.976 176.572 21.192V20.976C174.196 20.784 174.1 18.864 174.1 12.672ZM202.889 17.952C201.713 13.632 200.321 13.032 197.561 13.032C199.865 13.032 203.177 12.288 203.177 8.688C203.177 4.752 199.025 4.128 194.345 4.104V4.32C196.937 4.32 197.537 4.248 197.537 8.688C197.537 12.912 197.225 12.984 194.345 12.984V13.2C194.345 13.2 197.369 13.056 197.681 15.456C198.257 19.92 198.785 21 200.489 21H205.265V20.784C204.641 20.736 203.369 19.776 202.889 17.952ZM193.361 4.104H187.289V4.296C188.345 4.296 188.537 4.944 188.537 6.432V18.288C188.537 20.736 188.321 20.784 187.289 20.784V21H194.465V20.784C193.457 20.784 193.361 20.64 193.361 18.288V4.104ZM206.307 4.104V4.296C207.339 4.296 207.867 4.32 207.867 6.432V18.288C207.867 20.568 207.315 20.784 206.307 20.784V21H214.227V20.784C213.219 20.784 212.667 20.568 212.667 18.288V6.432C212.667 4.32 213.219 4.296 214.227 4.296V4.104H206.307ZM227.626 9.024H227.842V4.992C227.842 4.992 226.402 3.984 222.658 3.888V4.128C226.09 4.392 227.17 7.368 227.626 9.024ZM216.154 15.384H215.938V19.992C215.938 19.992 217.618 21.12 221.89 21.216V20.976C218.458 20.64 216.538 16.944 216.154 15.384ZM225.634 11.472L221.938 9.024C219.034 7.128 219.49 4.488 221.674 4.152V3.912C218.122 4.056 216.898 5.712 216.898 5.712C214.858 8.28 215.698 11.208 219.106 13.344L222.802 15.672C225.514 17.664 225.058 20.592 222.874 20.952V21.216C226.642 21.048 227.842 19.248 227.842 19.248C229.642 16.632 228.802 13.56 225.634 11.472Z" fill="#6C1D30"/>
</svg>
