<?xml version="1.0" encoding="UTF-8"?><svg id="Layer_2" xmlns="http://www.w3.org/2000/svg" viewBox="0 0 587.81 148.58"><defs><style>.cls-1{fill:none;stroke:#6c1d30;stroke-linecap:round;stroke-linejoin:round;}.cls-2{fill:#6c1d30;}</style></defs><g><path class="cls-2" d="M281.8,88.88l-5.16,18.97h-36.13l20.18-28.51c17.83-28.6-15.21-34.13-17.18-17.54l-1.5,.19c-1.97-14.68,10.23-22.12,18.4-22.12,9.39,0,16.99,7.82,16.99,16.49,0,10.49-11.73,19.35-17.93,27.36-2.35,3.05-7.7,10.58-7.7,10.58h19.9c3.19,0,6.85-1.62,8.92-5.43h1.22Z"/><path class="cls-2" d="M314.37,108.71c-9.2,0-13.42-2.86-15.58-4.67-2.06-1.72-3.19-5.05-2.53-8.01,.94-4.29,5.35-6.86,9.57-5.91,4.13,.95,6.76,5.24,5.82,9.63-.56,2.19-1.69,3.81-3.28,4.77-1.13,.57-.66,2.96,6.01,2.96,10.51,0,14.64-8.77,12.48-16.59-1.31-4.48-7.32-15.06-30.03-12.01l7.13-38.13h33.7l-4.32,14.21h-30.69l-2.16,10.87c28.25-4.58,38.86,9.06,38.48,21.74-.47,14.68-11.73,21.17-24.59,21.17Z"/></g><g><g><path class="cls-2" d="M41.59,57.18l.71-1.42c1.23,1.22,3.42,2.12,5.69,2.12,3.22,0,4.63-1.38,4.63-3.1,0-4.8-10.61-1.85-10.61-8.32,0-2.57,1.97-4.8,6.35-4.8,1.94,0,3.96,.57,5.34,1.55l-.62,1.47c-1.48-.98-3.2-1.45-4.73-1.45-3.15,0-4.55,1.42-4.55,3.17,0,4.8,10.61,1.9,10.61,8.27,0,2.57-2.02,4.77-6.42,4.77-2.58,0-5.12-.92-6.4-2.27Z"/><path class="cls-2" d="M69.62,51.16v8.15h-1.67v-2.05c-.79,1.35-2.31,2.17-4.46,2.17-2.93,0-4.73-1.55-4.73-3.82,0-2.02,1.28-3.72,5-3.72h4.11v-.8c0-2.25-1.25-3.47-3.67-3.47-1.67,0-3.25,.6-4.31,1.55l-.79-1.33c1.3-1.12,3.22-1.77,5.27-1.77,3.35,0,5.24,1.7,5.24,5.1Zm-1.75,4.2v-2.15h-4.06c-2.51,0-3.32,1-3.32,2.35,0,1.52,1.21,2.47,3.27,2.47s3.42-.95,4.11-2.67Zm-3.32-11.22h-1.72l3.37-3.1h2.34l-3.99,3.1Z"/><path class="cls-2" d="M89.33,52.74c0,3.97-2.76,6.7-6.45,6.7-2.14,0-3.94-.95-5-2.72v2.6h-1.67v-18.55h1.75v7.9c1.08-1.7,2.85-2.6,4.92-2.6,3.69,0,6.45,2.7,6.45,6.67Zm-1.75,0c0-3.07-2.09-5.12-4.82-5.12s-4.82,2.05-4.82,5.12,2.07,5.12,4.82,5.12,4.82-2.05,4.82-5.12Z"/><path class="cls-2" d="M104.44,51.16v8.15h-1.67v-2.05c-.79,1.35-2.31,2.17-4.46,2.17-2.93,0-4.73-1.55-4.73-3.82,0-2.02,1.28-3.72,5-3.72h4.11v-.8c0-2.25-1.25-3.47-3.67-3.47-1.67,0-3.25,.6-4.31,1.55l-.79-1.33c1.3-1.12,3.22-1.77,5.27-1.77,3.35,0,5.24,1.7,5.24,5.1Zm-1.75,4.2v-2.15h-4.06c-2.51,0-3.32,1-3.32,2.35,0,1.52,1.21,2.47,3.27,2.47s3.42-.95,4.11-2.67Z"/><path class="cls-2" d="M122.9,40.76v18.55h-1.67v-2.6c-1.06,1.77-2.86,2.72-5,2.72-3.69,0-6.45-2.72-6.45-6.7s2.76-6.67,6.45-6.67c2.07,0,3.84,.9,4.92,2.6v-7.9h1.75Zm-1.72,11.97c0-3.07-2.07-5.12-4.8-5.12s-4.82,2.05-4.82,5.12,2.07,5.12,4.82,5.12,4.8-2.05,4.8-5.12Z"/><path class="cls-2" d="M128.31,52.74c0-3.9,2.81-6.67,6.6-6.67s6.57,2.77,6.57,6.67-2.78,6.7-6.57,6.7-6.6-2.8-6.6-6.7Zm11.4,0c0-3.07-2.04-5.12-4.8-5.12s-4.82,2.05-4.82,5.12,2.07,5.12,4.82,5.12,4.8-2.05,4.8-5.12Z"/></g><g><path class="cls-2" d="M75.99,90.35v17.5h-1.77v-15.9h-4.06v-1.6h5.83Z"/><path class="cls-2" d="M93.64,102.7c0,2.97-2.04,5.3-6.25,5.3-2.49,0-4.85-.88-6.18-2.25l.86-1.42c1.11,1.17,3.08,2.02,5.29,2.02,2.93,0,4.48-1.45,4.48-3.57,0-2.25-1.38-3.65-5.76-3.65h-3.67l.89-8.77h9.43v1.6h-7.88l-.59,5.57h2.21c5.19,0,7.16,2.07,7.16,5.17Z"/><path class="cls-2" d="M110.79,100.23v7.62h-1.75v-7.45c0-2.77-1.43-4.2-3.89-4.2-2.78,0-4.53,1.75-4.53,4.75v6.9h-1.75v-18.55h1.75v7.7c.96-1.52,2.66-2.4,4.85-2.4,3.15,0,5.32,1.85,5.32,5.62Z"/></g><line class="cls-1" x1="24.85" y1="76.23" x2="200.04" y2="76.23"/></g><g><g><path class="cls-2" d="M473.13,41.81v17.5h-1.75v-14l-6.77,11.77h-.86l-6.77-11.7v13.92h-1.75v-17.5h1.5l7.48,12.97,7.41-12.97h1.5Z"/><path class="cls-2" d="M489.99,51.16v8.15h-1.67v-2.05c-.79,1.35-2.31,2.17-4.46,2.17-2.93,0-4.73-1.55-4.73-3.82,0-2.02,1.28-3.72,5-3.72h4.11v-.8c0-2.25-1.25-3.47-3.67-3.47-1.67,0-3.25,.6-4.31,1.55l-.79-1.33c1.3-1.12,3.22-1.77,5.27-1.77,3.35,0,5.24,1.7,5.24,5.1Zm-1.75,4.2v-2.15h-4.06c-2.51,0-3.32,1-3.32,2.35,0,1.52,1.21,2.47,3.27,2.47s3.42-.95,4.11-2.67Z"/><path class="cls-2" d="M503.11,46.06v1.72c-.15,0-.29-.02-.42-.02-2.71,0-4.36,1.75-4.36,4.85v6.7h-1.75v-13.15h1.67v2.57c.81-1.75,2.46-2.67,4.85-2.67Z"/><path class="cls-2" d="M517.11,55.93l1.3,.9c-1.03,1.7-2.88,2.6-5.07,2.6h-.05l-.29,1.17c1.35,.12,2.09,.92,2.09,2.02,0,1.35-1.13,2.17-2.78,2.17-.81,0-1.48-.18-2.07-.58l.42-.95c.49,.33,1.03,.48,1.62,.48,.98,0,1.53-.42,1.53-1.17,0-.67-.49-1.15-1.53-1.15h-.57l.54-2.07c-3.3-.47-5.59-3.07-5.59-6.62,0-3.92,2.81-6.67,6.67-6.67,2.19,0,4.04,.88,5.07,2.6l-1.3,.9c-.89-1.32-2.26-1.95-3.77-1.95-2.83,0-4.9,2.05-4.9,5.12s2.07,5.12,4.9,5.12c1.5,0,2.88-.6,3.77-1.92Z"/><path class="cls-2" d="M522.15,52.74c0-3.9,2.81-6.67,6.6-6.67s6.57,2.77,6.57,6.67-2.78,6.7-6.57,6.7-6.6-2.8-6.6-6.7Zm11.4,0c0-3.07-2.04-5.12-4.8-5.12s-4.82,2.05-4.82,5.12,2.07,5.12,4.82,5.12,4.8-2.05,4.8-5.12Z"/></g><g><path class="cls-2" d="M475.73,106.25v1.6h-12.08v-1.27l7.16-7.12c1.94-1.95,2.31-3.12,2.31-4.32,0-2.02-1.4-3.27-4.04-3.27-2.02,0-3.57,.62-4.7,1.95l-1.25-1.1c1.33-1.6,3.47-2.5,6.1-2.5,3.5,0,5.71,1.8,5.71,4.72,0,1.67-.52,3.17-2.83,5.47l-5.86,5.85h9.48Z"/><path class="cls-2" d="M479.69,99.1c0-5.57,2.88-8.9,6.87-8.9s6.89,3.32,6.89,8.9-2.9,8.9-6.89,8.9-6.87-3.32-6.87-8.9Zm11.94,0c0-4.67-2.07-7.25-5.07-7.25s-5.07,2.57-5.07,7.25,2.07,7.25,5.07,7.25,5.07-2.57,5.07-7.25Z"/><path class="cls-2" d="M509.54,106.25v1.6h-12.08v-1.27l7.16-7.12c1.94-1.95,2.31-3.12,2.31-4.32,0-2.02-1.4-3.27-4.04-3.27-2.02,0-3.57,.62-4.7,1.95l-1.25-1.1c1.33-1.6,3.47-2.5,6.1-2.5,3.5,0,5.71,1.8,5.71,4.72,0,1.67-.52,3.17-2.83,5.47l-5.86,5.85h9.48Z"/><path class="cls-2" d="M525,102.83c0,2.92-2.09,5.17-6.25,5.17-2.49,0-4.87-.88-6.2-2.25l.86-1.42c1.11,1.17,3.1,2.02,5.34,2.02,2.86,0,4.43-1.35,4.43-3.52s-1.45-3.47-4.65-3.47h-1.23v-1.32l4.77-6.07h-8.81v-1.6h11.08v1.28l-4.87,6.22c3.69,.2,5.54,2.17,5.54,4.97Z"/></g><line class="cls-1" x1="387.77" y1="76.23" x2="562.96" y2="76.23"/></g></svg>