<?xml version="1.0" encoding="UTF-8"?><svg id="Layer_2" xmlns="http://www.w3.org/2000/svg" viewBox="0 0 327.68 350.61"><defs><style>.cls-1{fill:none;stroke:#6c1d30;stroke-linecap:round;stroke-linejoin:round;stroke-width:3px;}</style></defs><g><path class="cls-1" d="M114.24,106.13l32.74,2.65s2.8,50.67,0,67.24c-1.26,7.44-7.08,20.35-23.45,19.02-16.37-1.33-20.72-14.83-20.86-22.5-.31-16.85,11.57-66.42,11.57-66.42Z"/><path class="cls-1" d="M120.74,180.84c-3.59-2.96-4.74-7.5-4.8-10.52-.11-6.11,2.47-19.45,4.5-28.95"/><line class="cls-1" x1="119.98" y1="194.54" x2="115.82" y2="264.95"/><line class="cls-1" x1="96.98" y1="263.62" x2="133.04" y2="266.27"/></g><g><path class="cls-1" d="M144.48,95.02l31.06-10.69s22.87,45.3,26.95,61.61c1.83,7.32,1.67,21.48-13.86,26.83-15.53,5.34-24.93-5.28-28.13-12.25-7.04-15.32-16.02-65.49-16.02-65.49Z"/><path class="cls-1" d="M180.37,160.87c-4.48-1.27-7.35-4.97-8.61-7.72-2.55-5.56-5.53-18.81-7.48-28.33"/><line class="cls-1" x1="189.71" y1="172.37" x2="214.49" y2="238.19"/><line class="cls-1" x1="197.77" y1="245.61" x2="230.7" y2="231.6"/></g></svg>