<?xml version="1.0" encoding="UTF-8"?><svg id="Layer_2" xmlns="http://www.w3.org/2000/svg" viewBox="0 0 327.68 350.61"><defs><style>.cls-1{fill:none;stroke:#6c1d30;stroke-linecap:round;stroke-linejoin:round;stroke-width:3px;}</style></defs><path class="cls-1" d="M191.1,101.42h21.95c6.6,0,12,5.4,12,12V243.71c0,6.6-5.4,12-12,12H114.63c-6.6,0-12-5.4-12-12V113.42c0-6.6,5.4-12,12-12h20.74"/><rect class="cls-1" x="135.36" y="94.9" width="55.74" height="13.27" rx="4" ry="4"/><polyline class="cls-1" points="121.21 132.17 131.05 141.57 148.19 124.1"/><line class="cls-1" x1="159.92" y1="132.83" x2="204.82" y2="132.83"/><polyline class="cls-1" points="121.21 162.51 131.05 171.91 148.19 154.43"/><line class="cls-1" x1="159.92" y1="163.17" x2="204.82" y2="163.17"/><polyline class="cls-1" points="121.21 192.84 131.05 202.24 148.19 184.77"/><line class="cls-1" x1="159.92" y1="193.51" x2="204.82" y2="193.51"/><polyline class="cls-1" points="121.21 223.18 131.05 232.58 148.19 215.11"/><line class="cls-1" x1="159.92" y1="223.84" x2="204.82" y2="223.84"/></svg>