<?xml version="1.0" encoding="UTF-8"?><svg id="Layer_2" xmlns="http://www.w3.org/2000/svg" viewBox="0 0 327.68 350.61"><defs><style>.cls-1{fill:none;stroke:#6c1d30;stroke-linecap:round;stroke-linejoin:round;stroke-width:3px;}</style></defs><path class="cls-1" d="M128.69,186.72l-46.04,22.37c-3.59,1.74-7.91,.55-10.1-2.79h0c-2.6-3.98-1.14-9.34,3.12-11.45l53.01-26.19"/><polyline class="cls-1" points="78.7 209.89 78.7 267.76 128.69 267.76 128.69 157"/><path class="cls-1" d="M93.52,221.56v24.53h20.57v-35.71c0-.76-.81-1.24-1.47-.88l-17.52,9.42c-.97,.52-1.58,1.54-1.58,2.64Z"/><path class="cls-1" d="M198.99,186.72l46.04,22.37c3.59,1.74,7.91,.55,10.1-2.79h0c2.6-3.98,1.14-9.34-3.12-11.45l-53.01-26.19"/><path class="cls-1" d="M162.82,119.07c.63-.37,1.41-.37,2.03,0l48.83,28.85c3.95,2.37,4.93,7.66,2.11,11.29h0c-2.37,3.05-6.64,3.86-9.96,1.89l-40.96-24.6c-.63-.38-1.43-.38-2.06,0l-40.96,24.6c-3.32,1.97-7.59,1.16-9.96-1.89h0c-2.83-3.63-1.84-8.92,2.11-11.29l48.83-28.85Z"/><polyline class="cls-1" points="248.99 209.89 248.99 267.76 198.99 267.76 198.99 156.97"/><path class="cls-1" d="M234.16,221.56v24.53h-20.57v-35.71c0-.76,.81-1.24,1.47-.88l17.52,9.42c.97,.52,1.58,1.54,1.58,2.64Z"/><line class="cls-1" x1="254.52" y1="267.76" x2="73.17" y2="267.76"/><path class="cls-1" d="M146.63,266.66v-35.75c0-.97,.38-1.91,1.06-2.61l12.99-13.42c1.46-1.51,3.86-1.52,5.35-.04l13.46,13.46c.7,.7,1.1,1.66,1.1,2.65v35.72"/><rect class="cls-1" x="150.39" y="164.91" width="27.87" height="25.88" rx="10" ry="10"/><g><line class="cls-1" x1="163.84" y1="118.47" x2="163.84" y2="82.84"/><line class="cls-1" x1="153" y1="95.67" x2="174.68" y2="95.67"/></g></svg>