<?xml version="1.0" encoding="UTF-8"?><svg id="Layer_2" xmlns="http://www.w3.org/2000/svg" viewBox="0 0 327.68 350.61"><defs><style>.cls-1{fill:none;stroke:#6c1d30;stroke-linecap:round;stroke-linejoin:round;stroke-width:3px;}</style></defs><path class="cls-1" d="M234.63,160.76v90.12c0,2.76-2.24,5-5,5H96.73c-2.76,0-5-2.24-5-5v-90.12"/><rect class="cls-1" x="146.81" y="134.88" width="34.06" height="121"/><path class="cls-1" d="M84.79,136.43h62.02v24.33h-62.02c-2.76,0-5-2.24-5-5v-14.33c0-2.76,2.24-5,5-5Z"/><path class="cls-1" d="M180.87,136.43h62.02c2.76,0,5,2.24,5,5v14.33c0,2.76-2.24,5-5,5h-62.02v-24.33h0Z"/><path class="cls-1" d="M163.05,134.35s-31.38-6.73-38.02-12.86c-6.65-6.12-6.65-16.05,0-22.17,6.65-6.12,17.42-6.12,24.07,0,6.65,6.12,13.96,35.03,13.96,35.03Z"/><path class="cls-1" d="M163.3,134.35s31.38-6.73,38.02-12.86c6.65-6.12,6.65-16.05,0-22.17-6.65-6.12-17.42-6.12-24.07,0-6.65,6.12-13.96,35.03-13.96,35.03Z"/></svg>